<svg xmlns="http://www.w3.org/2000/svg" xmlns:xlink="http://www.w3.org/1999/xlink" viewBox="0 0 1729.87 620.42"><defs><style>.cls-1,.cls-17{fill:none;}.cls-2{clip-path:url(#clip-path);}.cls-3{fill:url(#Degradado_sin_nombre_62);}.cls-4{opacity:0.74;}.cls-5{fill:#fffcbc;}.cls-6{fill:#3a2d66;}.cls-7{fill:#c3c3c3;}.cls-8{fill:#8d8d8d;}.cls-9{fill:#112f5b;}.cls-10{fill:#071d38;}.cls-11{fill:#050b11;}.cls-12{opacity:0.64;}.cls-13{fill:#27164f;}.cls-14{font-size:317.27px;}.cls-14,.cls-15,.cls-16{fill:#fff;}.cls-14,.cls-15{font-family:RaileyPersonalUseRegular, Railey-PersonalUse;}.cls-15{font-size:169.17px;}.cls-17{stroke-miterlimit:10;stroke:url(#Degradado_sin_nombre_62-2);}</style><clipPath id="clip-path" transform="translate(2.1 0)"><rect class="cls-1" width="1722" height="617"/></clipPath><linearGradient id="Degradado_sin_nombre_62" x1="863.1" y1="616.5" x2="863.1" y2="0.5" gradientUnits="userSpaceOnUse"><stop offset="0" stop-color="#6f577c"/><stop offset="1" stop-color="#171651"/></linearGradient><linearGradient id="Degradado_sin_nombre_62-2" x1="864.5" y1="620.42" x2="864.5" y2="0.7" xlink:href="#Degradado_sin_nombre_62"/></defs><g id="Capa_2" data-name="Capa 2"><g id="Capa_2-2" data-name="Capa 2"><g class="cls-2"><rect class="cls-3" x="2.6" y="0.5" width="1721" height="616"/><path d="M1721,1V616H1V1H1721m1-1H0V617H1722V0Z" transform="translate(2.1 0)"/><g class="cls-4"><polygon class="cls-5" points="1707.47 176.45 1706.67 180.25 1710.04 182.19 1706.18 182.6 1705.38 186.41 1703.79 182.86 1699.92 183.27 1702.81 180.67 1701.22 177.12 1704.59 179.06 1707.47 176.45"/><polygon class="cls-5" points="1648.5 91.76 1649.18 98.28 1655.59 99.65 1649.61 102.31 1650.29 108.83 1645.9 103.95 1639.91 106.62 1643.19 100.94 1638.81 96.07 1645.22 97.44 1648.5 91.76"/><polygon class="cls-5" points="1567.58 73.97 1565.38 76.28 1566.89 79.08 1564.02 77.71 1561.82 80.02 1562.24 76.86 1559.37 75.48 1562.5 74.9 1562.92 71.74 1564.44 74.55 1567.58 73.97"/><polygon class="cls-5" points="1557.38 188.68 1555.61 191.64 1557.87 194.23 1554.52 193.46 1552.75 196.41 1552.44 192.99 1549.09 192.22 1552.25 190.87 1551.95 187.44 1554.21 190.03 1557.38 188.68"/><polygon class="cls-5" points="1505.8 157.04 1502.92 161.71 1506.48 165.89 1501.15 164.6 1498.27 169.28 1497.85 163.8 1492.52 162.51 1497.59 160.42 1497.17 154.95 1500.73 159.13 1505.8 157.04"/><polygon class="cls-5" points="1467.02 219.06 1472.35 222.67 1477.43 218.72 1475.64 224.9 1480.97 228.51 1474.54 228.72 1472.75 234.91 1470.56 228.85 1464.13 229.07 1469.21 225.11 1467.02 219.06"/><polygon class="cls-5" points="1444.05 232.46 1441.08 233.87 1441.5 237.12 1439.25 234.73 1436.29 236.13 1437.86 233.26 1435.61 230.87 1438.84 231.48 1440.41 228.6 1440.83 231.85 1444.05 232.46"/><polygon class="cls-5" points="1337.83 104.6 1346.84 103.69 1348.77 94.84 1352.41 103.14 1361.43 102.23 1354.67 108.26 1358.32 116.56 1350.49 111.99 1343.73 118.03 1345.65 109.17 1337.83 104.6"/><polygon class="cls-5" points="1280.97 150.13 1285.38 148.92 1285.59 144.37 1288.1 148.18 1292.5 146.97 1289.65 150.53 1292.15 154.35 1287.88 152.74 1285.03 156.3 1285.24 151.74 1280.97 150.13"/><polygon class="cls-5" points="1210.77 278.17 1214.38 279.05 1216.33 275.89 1216.61 279.59 1220.22 280.46 1216.79 281.88 1217.07 285.58 1214.66 282.75 1211.23 284.16 1213.18 281 1210.77 278.17"/><polygon class="cls-5" points="1171 166.86 1175.42 170.17 1179.93 166.99 1178.15 172.22 1182.57 175.53 1177.05 175.45 1175.27 180.68 1173.63 175.4 1168.11 175.32 1172.63 172.14 1171 166.86"/><polygon class="cls-5" points="1102.38 157.6 1098.88 160.72 1100.76 165.02 1096.71 162.65 1093.21 165.77 1094.21 161.19 1090.16 158.82 1094.83 158.35 1095.83 153.77 1097.71 158.07 1102.38 157.6"/><polygon class="cls-5" points="1060.18 227.49 1062.81 233.25 1069.1 232.54 1064.43 236.81 1067.06 242.58 1061.55 239.46 1056.88 243.74 1058.14 237.53 1052.63 234.41 1058.92 233.7 1060.18 227.49"/><polygon class="cls-5" points="981.13 114.32 979.09 116.58 980.61 119.21 977.83 117.98 975.8 120.24 976.12 117.21 973.34 115.98 976.31 115.34 976.63 112.32 978.15 114.95 981.13 114.32"/><polygon class="cls-5" points="955.37 180.8 953.29 185.41 957.04 188.81 952.01 188.26 949.93 192.87 948.91 187.92 943.88 187.37 948.27 184.86 947.24 179.91 950.98 183.31 955.37 180.8"/><polygon class="cls-5" points="924.01 173.01 927.96 179.02 934.91 177.12 930.41 182.74 934.36 188.76 927.63 186.21 923.13 191.83 923.46 184.64 916.73 182.1 923.67 180.2 924.01 173.01"/><polygon class="cls-5" points="902.46 130.18 901.93 134.11 905.5 135.82 901.6 136.54 901.08 140.46 899.19 136.98 895.29 137.69 898.03 134.82 896.15 131.33 899.72 133.05 902.46 130.18"/><polygon class="cls-5" points="872.98 108.05 869.44 115.81 875.72 121.58 867.25 120.6 863.71 128.36 862.01 120 853.54 119.03 860.97 114.83 859.27 106.48 865.56 112.24 872.98 108.05"/><polygon class="cls-5" points="802.94 301.32 807.33 301.72 809.07 297.67 810.04 301.96 814.43 302.37 810.64 304.62 811.62 308.92 808.3 306.01 804.52 308.27 806.26 304.22 802.94 301.32"/><polygon class="cls-5" points="721.17 284.88 728.49 285.11 730.97 278.23 733.01 285.26 740.32 285.5 734.26 289.61 736.3 296.64 730.52 292.14 724.46 296.25 726.95 289.37 721.17 284.88"/><polygon class="cls-5" points="696.8 222.53 702.86 228.59 710.49 224.69 706.61 232.32 712.67 238.38 704.21 237.04 700.33 244.68 698.98 236.22 690.52 234.89 698.15 230.99 696.8 222.53"/><polygon class="cls-5" points="690.1 127.49 687.49 128.64 687.77 131.48 685.87 129.35 683.25 130.5 684.7 128.04 682.79 125.91 685.58 126.51 687.02 124.04 687.31 126.89 690.1 127.49"/><polygon class="cls-5" points="630.26 157.33 632.93 159.97 636.27 158.25 634.58 161.6 637.25 164.25 633.53 163.68 631.85 167.03 631.24 163.32 627.53 162.76 630.87 161.03 630.26 157.33"/><polygon class="cls-5" points="606.86 192.09 613.45 193.03 616.38 187.05 617.52 193.61 624.11 194.54 618.23 197.66 619.38 204.22 614.6 199.58 608.72 202.7 611.64 196.72 606.86 192.09"/><polygon class="cls-5" points="569.07 115.96 571.96 119.21 575.94 117.48 573.74 121.22 576.62 124.48 572.37 123.54 570.17 127.29 569.75 122.96 565.51 122.02 569.49 120.28 569.07 115.96"/><polygon class="cls-5" points="547.72 194.23 545.84 196.96 547.85 199.6 544.67 198.65 542.79 201.38 542.71 198.06 539.53 197.11 542.66 196.01 542.58 192.69 544.6 195.33 547.72 194.23"/><polygon class="cls-5" points="490.36 192.94 498.22 194.75 502.37 187.83 503.08 195.86 510.94 197.67 503.52 200.83 504.23 208.87 498.93 202.78 491.5 205.94 495.65 199.02 490.36 192.94"/><polygon class="cls-5" points="416.13 120.06 421.93 122.61 426.14 117.88 425.51 124.18 431.31 126.73 425.12 128.08 424.49 134.38 421.3 128.91 415.11 130.26 419.32 125.53 416.13 120.06"/><polygon class="cls-5" points="353.44 309.54 351.47 314.12 355.22 317.4 350.26 316.95 348.29 321.53 347.19 316.67 342.23 316.21 346.51 313.66 345.41 308.81 349.15 312.09 353.44 309.54"/><polygon class="cls-5" points="301.18 244.82 308.14 249.23 314.49 243.97 312.44 251.96 319.4 256.37 311.18 256.89 309.13 264.88 306.09 257.21 297.87 257.74 304.21 252.48 301.18 244.82"/><polygon class="cls-5" points="287.41 331.52 286.49 337.6 291.99 340.35 285.92 341.36 285 347.44 282.17 341.98 276.11 342.98 280.43 338.6 277.6 333.14 283.09 335.9 287.41 331.52"/><polygon class="cls-5" points="227.41 146.4 228.69 149.74 232.26 149.55 229.48 151.8 230.76 155.13 227.76 153.19 224.99 155.44 225.91 151.99 222.91 150.04 226.48 149.85 227.41 146.4"/><polygon class="cls-5" points="156.12 235.99 157.52 239.69 161.48 239.5 158.39 241.98 159.79 245.68 156.48 243.51 153.39 245.99 154.43 242.17 151.12 240 155.08 239.81 156.12 235.99"/><polygon class="cls-5" points="113.1 154.25 120.53 156.35 124.83 149.94 125.12 157.66 132.55 159.77 125.3 162.43 125.59 170.15 120.82 164.07 113.57 166.73 117.87 160.32 113.1 154.25"/><polygon class="cls-5" points="47.42 245.08 55.33 249.26 61.76 243.02 60.23 251.84 68.15 256.02 59.28 257.29 57.76 266.11 53.81 258.08 44.95 259.35 51.37 253.11 47.42 245.08"/><polygon class="cls-5" points="58.19 317.74 61.55 322.87 67.46 321.27 63.62 326.04 66.97 331.17 61.24 328.99 57.4 333.76 57.7 327.64 51.98 325.46 57.89 323.86 58.19 317.74"/><polygon class="cls-5" points="52.28 346.1 54.55 352.21 61.06 351.95 55.94 355.99 58.2 362.1 52.78 358.48 47.67 362.53 49.43 356.25 44.01 352.63 50.52 352.37 52.28 346.1"/><polygon class="cls-5" points="1617.14 78.78 1616.38 82.88 1620.04 84.86 1615.91 85.41 1615.15 89.5 1613.36 85.74 1609.23 86.29 1612.25 83.42 1610.46 79.66 1614.12 81.65 1617.14 78.78"/><polygon class="cls-5" points="1600.59 1.45 1600.41 6.18 1604.85 7.81 1600.3 9.1 1600.12 13.82 1597.48 9.89 1592.93 11.19 1595.86 7.46 1593.22 3.54 1597.66 5.17 1600.59 1.45"/><polygon class="cls-5" points="1533.36 142.09 1535.35 145.16 1538.9 144.22 1536.58 147.07 1538.57 150.15 1535.15 148.82 1532.84 151.67 1533.04 148.01 1529.62 146.69 1533.16 145.75 1533.36 142.09"/><polygon class="cls-5" points="1406.64 117.81 1407.21 121.53 1410.91 122.14 1407.56 123.82 1408.12 127.54 1405.48 124.86 1402.12 126.55 1403.85 123.21 1401.21 120.54 1404.92 121.15 1406.64 117.81"/><polygon class="cls-5" points="1368.19 124.18 1369.62 131.42 1376.95 132.3 1370.51 135.9 1371.94 143.14 1366.52 138.12 1360.08 141.72 1363.18 135.02 1357.76 130 1365.09 130.88 1368.19 124.18"/><polygon class="cls-5" points="1301.85 20.65 1295.35 26.6 1298.99 34.63 1291.33 30.28 1284.82 36.22 1286.59 27.59 1278.92 23.24 1287.68 22.25 1289.45 13.62 1293.09 21.64 1301.85 20.65"/><polygon class="cls-5" points="1276.19 82.63 1278.02 87.31 1283.04 87 1279.16 90.19 1281 94.87 1276.76 92.17 1272.88 95.36 1274.14 90.5 1269.91 87.8 1274.92 87.49 1276.19 82.63"/><polygon class="cls-5" points="1259.61 124.31 1259.1 132.6 1266.83 135.65 1258.78 137.73 1258.28 146.02 1253.81 139.01 1245.77 141.09 1251.05 134.68 1246.59 127.68 1254.32 130.72 1259.61 124.31"/><polygon class="cls-5" points="1168.43 102.87 1176.41 103.25 1179.24 95.78 1181.34 103.49 1189.33 103.87 1182.64 108.25 1184.74 115.96 1178.51 110.96 1171.83 115.34 1174.66 107.87 1168.43 102.87"/><polygon class="cls-5" points="1150.97 27.74 1156.71 26.52 1157.33 20.67 1160.26 25.76 1166.01 24.54 1162.08 28.91 1165.02 33.99 1159.65 31.6 1155.72 35.97 1156.33 30.13 1150.97 27.74"/><polygon class="cls-5" points="1130.15 18.78 1131.3 25.52 1138.07 26.52 1132.01 29.69 1133.15 36.44 1128.26 31.65 1122.2 34.83 1125.24 28.7 1120.35 23.92 1127.11 24.91 1130.15 18.78"/><polygon class="cls-5" points="1056.55 143.38 1054.05 145.98 1055.74 149.16 1052.5 147.58 1049.99 150.17 1050.5 146.6 1047.26 145.02 1050.81 144.4 1051.31 140.82 1053 144.01 1056.55 143.38"/><polygon class="cls-5" points="993.13 122.39 1001.28 120.96 1002.44 112.75 1006.33 120.07 1014.49 118.64 1008.73 124.59 1012.61 131.91 1005.17 128.27 999.41 134.23 1000.57 126.03 993.13 122.39"/><polygon class="cls-5" points="945.78 61.62 944.56 64.19 946.62 66.14 943.8 65.77 942.58 68.33 942.06 65.54 939.24 65.17 941.74 63.82 941.22 61.02 943.28 62.98 945.78 61.62"/><polygon class="cls-5" points="799.51 30.15 804.75 35.28 811.26 31.88 808 38.46 813.24 43.59 805.98 42.52 802.72 49.1 801.49 41.86 794.23 40.79 800.73 37.39 799.51 30.15"/><polygon class="cls-5" points="786.53 139.05 785.76 146.18 792.3 149.12 785.28 150.58 784.51 157.71 780.94 151.49 773.92 152.96 778.74 147.64 775.18 141.42 781.72 144.36 786.53 139.05"/><polygon class="cls-5" points="768.87 11.75 762.83 15.62 764.65 22.55 759.1 18.01 753.06 21.88 755.67 15.2 750.13 10.66 757.28 11.07 759.89 4.39 761.71 11.33 768.87 11.75"/><polygon class="cls-5" points="729.33 43.97 724.89 51.04 730.25 57.45 722.15 55.41 717.71 62.48 717.15 54.15 709.05 52.12 716.8 49 716.23 40.67 721.59 47.08 729.33 43.97"/><polygon class="cls-5" points="681.57 85.38 687.45 85.51 689.4 79.96 691.08 85.6 696.97 85.73 692.13 89.08 693.82 94.72 689.14 91.15 684.3 94.5 686.25 88.95 681.57 85.38"/><polygon class="cls-5" points="622.27 28 621.33 31.84 624.69 33.92 620.75 34.21 619.8 38.05 618.31 34.39 614.37 34.68 617.39 32.13 615.9 28.47 619.25 30.55 622.27 28"/><polygon class="cls-5" points="527.28 81.18 526.19 83.92 528.46 85.8 525.52 85.61 524.42 88.36 523.7 85.5 520.75 85.31 523.25 83.73 522.52 80.87 524.79 82.75 527.28 81.18"/><polygon class="cls-5" points="489.38 119.32 496.8 120.23 499.96 113.46 501.38 120.8 508.8 121.71 502.26 125.33 503.68 132.67 498.22 127.57 491.68 131.19 494.84 124.42 489.38 119.32"/><polygon class="cls-5" points="435.89 6.58 439.97 14.02 448.31 12.44 442.49 18.62 446.57 26.07 438.89 22.44 433.07 28.62 434.15 20.2 426.48 16.57 434.82 15 435.89 6.58"/><polygon class="cls-5" points="366.98 20.25 369.28 21.78 371.45 20.06 370.71 22.72 373.01 24.25 370.25 24.37 369.5 27.04 368.54 24.44 365.77 24.56 367.94 22.84 366.98 20.25"/><polygon class="cls-5" points="323.21 99.24 322.89 104.35 327.65 106.24 322.69 107.51 322.36 112.62 319.62 108.3 314.66 109.57 317.93 105.62 315.19 101.3 319.95 103.19 323.21 99.24"/><polygon class="cls-5" points="242.01 151.54 247.86 150.72 248.89 144.91 251.48 150.22 257.33 149.41 253.07 153.5 255.66 158.82 250.44 156.04 246.19 160.13 247.22 154.32 242.01 151.54"/><polygon class="cls-5" points="194.04 50.63 201.11 52.08 204.68 45.81 205.48 52.98 212.55 54.44 205.97 57.42 206.77 64.59 201.91 59.26 195.34 62.23 198.91 55.96 194.04 50.63"/><polygon class="cls-5" points="158.89 67.69 165 71.36 170.38 66.67 168.78 73.62 174.9 77.3 167.79 77.92 166.19 84.87 163.4 78.31 156.29 78.93 161.68 74.25 158.89 67.69"/><polygon class="cls-5" points="113.96 81.48 119.06 84.48 123.49 80.55 122.21 86.33 127.31 89.33 121.43 89.9 120.15 95.68 117.79 90.25 111.9 90.83 116.33 86.9 113.96 81.48"/><polygon class="cls-5" points="108.77 146.15 109.11 149.48 112.38 150.19 109.31 151.54 109.64 154.88 107.41 152.38 104.34 153.72 106.04 150.83 103.81 148.32 107.08 149.04 108.77 146.15"/><polygon class="cls-5" points="39.34 112.7 42.66 114.05 44.97 111.31 44.72 114.89 48.04 116.23 44.56 117.09 44.3 120.67 42.41 117.63 38.93 118.49 41.24 115.75 39.34 112.7"/><polygon class="cls-5" points="1710.87 422.84 1715.15 426.55 1720.01 423.62 1717.8 428.85 1722.09 432.56 1716.44 432.07 1714.23 437.3 1712.95 431.77 1707.3 431.29 1712.15 428.36 1710.87 422.84"/><polygon class="cls-5" points="1657.12 375.35 1664.37 374.22 1665.54 366.98 1668.84 373.53 1676.09 372.4 1670.89 377.57 1674.2 384.12 1667.67 380.77 1662.47 385.94 1663.64 378.7 1657.12 375.35"/><polygon class="cls-5" points="1604.7 549.59 1606.98 553.77 1611.66 552.9 1608.39 556.36 1610.67 560.54 1606.36 558.49 1603.09 561.95 1603.7 557.23 1599.4 555.18 1604.09 554.31 1604.7 549.59"/><polygon class="cls-5" points="1587.85 538.62 1596.85 537.31 1598.39 528.34 1602.41 536.5 1611.41 535.19 1604.9 541.54 1608.92 549.7 1600.87 545.46 1594.36 551.81 1595.9 542.85 1587.85 538.62"/><polygon class="cls-5" points="1520.01 507.61 1528.55 508.19 1531.74 500.24 1533.83 508.55 1542.38 509.13 1535.12 513.68 1537.21 521.99 1530.64 516.5 1523.39 521.05 1526.58 513.1 1520.01 507.61"/><polygon class="cls-5" points="1449.4 431.31 1455.52 429.75 1455.93 423.45 1459.3 428.79 1465.41 427.23 1461.38 432.09 1464.75 437.43 1458.88 435.09 1454.85 439.94 1455.26 433.64 1449.4 431.31"/><polygon class="cls-5" points="1375.03 433.77 1376.18 437.13 1379.74 437.08 1376.9 439.22 1378.05 442.58 1375.14 440.54 1372.29 442.68 1373.34 439.27 1370.42 437.23 1373.98 437.17 1375.03 433.77"/><polygon class="cls-5" points="1297.64 425.87 1295.23 430.13 1298.54 433.74 1293.74 432.77 1291.33 437.03 1290.77 432.16 1285.97 431.19 1290.43 429.16 1289.87 424.29 1293.18 427.9 1297.64 425.87"/><polygon class="cls-5" points="1271.26 555.48 1269.67 559.23 1272.75 561.9 1268.69 561.54 1267.1 565.29 1266.19 561.32 1262.13 560.97 1265.62 558.87 1264.7 554.91 1267.78 557.58 1271.26 555.48"/><polygon class="cls-5" points="1215.19 432.44 1220.27 435.67 1224.91 431.85 1223.4 437.67 1228.47 440.9 1222.47 441.27 1220.96 447.09 1218.76 441.49 1212.75 441.86 1217.39 438.03 1215.19 432.44"/><polygon class="cls-5" points="1189.88 540.09 1188.26 547.74 1195.03 551.65 1187.25 552.46 1185.62 560.11 1182.44 552.96 1174.67 553.78 1180.48 548.55 1177.3 541.4 1184.07 545.32 1189.88 540.09"/><polygon class="cls-5" points="1122.17 387.57 1128.77 386.33 1129.62 379.66 1132.85 385.56 1139.45 384.31 1134.84 389.2 1138.07 395.09 1131.99 392.22 1127.39 397.11 1128.24 390.44 1122.17 387.57"/><polygon class="cls-5" points="1059.44 431.76 1060.97 434.09 1063.65 433.36 1061.91 435.53 1063.44 437.86 1060.83 436.87 1059.09 439.04 1059.23 436.26 1056.62 435.27 1059.31 434.54 1059.44 431.76"/><polygon class="cls-5" points="1008.03 431.23 1009.41 437.1 1015.42 437.6 1010.26 440.73 1011.64 446.59 1007.08 442.66 1001.92 445.79 1004.25 440.22 999.69 436.29 1005.7 436.79 1008.03 431.23"/><polygon class="cls-5" points="941.03 376.92 944.34 381.77 949.98 380.12 946.39 384.77 949.7 389.62 944.17 387.64 940.57 392.29 940.75 386.42 935.22 384.44 940.86 382.79 941.03 376.92"/><polygon class="cls-5" points="910.82 383.34 903.24 387.27 904.64 395.7 898.55 389.7 890.97 393.64 894.79 386 888.7 380 897.15 381.27 900.98 373.63 902.38 382.06 910.82 383.34"/><polygon class="cls-5" points="821.63 516.66 824.13 522.53 830.48 521.97 825.67 526.15 828.16 532.03 822.69 528.74 817.88 532.93 819.32 526.71 813.85 523.43 820.2 522.87 821.63 516.66"/><polygon class="cls-5" points="796.04 482.05 797.25 485.54 800.94 485.48 797.99 487.7 799.19 491.19 796.17 489.07 793.22 491.3 794.3 487.77 791.27 485.65 794.97 485.58 796.04 482.05"/><polygon class="cls-5" points="735.19 384.19 739.89 387.48 744.47 384.02 742.8 389.51 747.5 392.8 741.76 392.9 740.09 398.39 738.22 392.96 732.48 393.06 737.06 389.61 735.19 384.19"/><polygon class="cls-5" points="698.07 539.5 693.23 545.26 697.22 551.63 690.25 548.82 685.41 554.58 685.94 547.08 678.97 544.26 686.26 542.44 686.79 534.94 690.77 541.32 698.07 539.5"/><polygon class="cls-5" points="629.2 360.24 624.63 364.42 627.2 370.06 621.81 367 617.24 371.18 618.48 365.12 613.09 362.06 619.24 361.37 620.48 355.3 623.04 360.94 629.2 360.24"/><polygon class="cls-5" points="544.87 492.76 553.79 493.95 557.68 485.83 559.3 494.68 568.22 495.87 560.31 500.15 561.93 509 555.42 502.8 547.5 507.08 551.39 498.97 544.87 492.76"/><polygon class="cls-5" points="533.52 521.04 540.99 526.37 548.36 520.92 545.6 529.66 553.07 534.99 543.89 535.07 541.13 543.82 538.22 535.12 529.05 535.2 536.43 529.74 533.52 521.04"/><polygon class="cls-5" points="490.96 505.28 491.22 509.61 495.42 510.71 491.38 512.29 491.63 516.63 488.88 513.27 484.83 514.86 487.17 511.2 484.42 507.84 488.62 508.94 490.96 505.28"/><polygon class="cls-5" points="430.15 519.9 429.13 528.29 436.79 531.86 428.49 533.48 427.47 541.88 423.36 534.48 415.06 536.11 420.82 529.92 416.72 522.52 424.38 526.09 430.15 519.9"/><polygon class="cls-5" points="350.4 437.88 355.56 439.98 359.15 435.74 358.74 441.29 363.89 443.39 358.49 444.71 358.07 450.27 355.14 445.53 349.74 446.86 353.33 442.61 350.4 437.88"/><polygon class="cls-5" points="304.07 400.55 304.94 403.99 308.48 404.23 305.47 406.11 306.34 409.55 303.62 407.27 300.62 409.16 301.94 405.87 299.22 403.6 302.75 403.84 304.07 400.55"/><polygon class="cls-5" points="277.96 478.6 275.36 484.1 279.79 488.27 273.76 487.5 271.16 493 270.03 487.02 263.99 486.25 269.33 483.32 268.2 477.35 272.63 481.52 277.96 478.6"/><polygon class="cls-5" points="254.8 499.45 250.93 501.07 251.27 505.25 248.54 502.06 244.66 503.68 246.85 500.1 244.11 496.92 248.2 497.88 250.38 494.3 250.72 498.48 254.8 499.45"/><polygon class="cls-5" points="172.16 537.54 174.95 537.65 175.91 535.02 176.67 537.71 179.47 537.81 177.15 539.37 177.91 542.06 175.71 540.33 173.39 541.89 174.35 539.27 172.16 537.54"/><polygon class="cls-5" points="115.48 382 119.67 388.85 127.49 386.98 122.27 393.09 126.46 399.94 119.04 396.86 113.82 402.96 114.45 394.96 107.03 391.88 114.85 390.01 115.48 382"/><polygon class="cls-5" points="82.41 535.48 82.45 540.58 87.31 542.11 82.47 543.73 82.51 548.83 79.48 544.72 74.65 546.34 77.61 542.19 74.58 538.09 79.44 539.63 82.41 535.48"/><polygon class="cls-5" points="76.27 351.06 75.67 355.97 80.15 358.07 75.29 359.01 74.68 363.92 72.29 359.59 67.43 360.53 70.81 356.91 68.41 352.58 72.89 354.68 76.27 351.06"/><polygon class="cls-5" points="45.04 544.2 41.89 548.16 44.69 552.39 39.94 550.61 36.79 554.58 37.01 549.52 32.26 547.75 37.14 546.39 37.36 541.33 40.16 545.55 45.04 544.2"/><polygon class="cls-5" points="6.09 471.74 8.54 473.9 11.34 472.24 10.05 475.23 12.49 477.38 9.25 477.08 7.95 480.07 7.24 476.89 4 476.58 6.8 474.92 6.09 471.74"/></g><path class="cls-6" d="M1.39,427c17.26,0,17.26-7.37,34.53-7.37S53.18,427,70.44,427s17.26-7.37,34.53-7.37S122.23,427,139.49,427s17.27-7.37,34.53-7.37S191.28,427,208.54,427s17.27-7.37,34.53-7.37S260.33,427,277.6,427s17.26-7.37,34.52-7.37S329.38,427,346.65,427s17.26-7.37,34.52-7.37S398.44,427,415.7,427s17.26-7.37,34.53-7.37S467.49,427,484.75,427s17.26-7.37,34.53-7.37S536.54,427,553.8,427s17.27-7.37,34.53-7.37S605.59,427,622.86,427s17.26-7.37,34.52-7.37S674.65,427,691.91,427s17.26-7.37,34.53-7.37S743.7,427,761,427s17.26-7.37,34.52-7.37S812.76,427,830,427s17.27-7.37,34.53-7.37S881.81,427,899.08,427s17.26-7.37,34.52-7.37S950.86,427,968.13,427s17.26-7.37,34.52-7.37,17.26,7.37,34.53,7.37,17.26-7.37,34.52-7.37S1089,427,1106.23,427s17.26-7.37,34.52-7.37S1158,427,1175.28,427s17.26-7.37,34.53-7.37,17.26,7.37,34.53,7.37,17.26-7.37,34.52-7.37,17.27,7.37,34.53,7.37,17.27-7.37,34.53-7.37,17.26,7.37,34.53,7.37,17.26-7.37,34.53-7.37,17.26,7.37,34.53,7.37,17.26-7.37,34.53-7.37,17.26,7.37,34.53,7.37,17.26-7.37,34.52-7.37,17.27,7.37,34.54,7.37,17.26-7.37,34.53-7.37,17.26,7.37,34.53,7.37,17.27-7.37,34.53-7.37,17.27,7.37,34.54,7.37V618.34H0S-3.52,427,1.39,427Z" transform="translate(2.1 0)"/><path class="cls-7" d="M1690.69,3,1649,107.1,1535.66,64.3A417.77,417.77,0,0,1,1587.3,2.94" transform="translate(2.1 0)"/><path class="cls-8" d="M1706,2.89,1664.21,107.1,1550.89,64.3a417.26,417.26,0,0,1,51.68-61.39" transform="translate(2.1 0)"/><path class="cls-7" d="M1722,2.84l-.24,112.68-116-43.82s23.12-36.48,51.09-68.81Z" transform="translate(2.1 0)"/><path class="cls-8" d="M1723.23,3h-52.56c-27.94,32.3-51,68.72-51,68.72l102.62,38.75Z" transform="translate(2.1 0)"/><path class="cls-9" d="M1723.23,91.4,1634,57.46a38.54,38.54,0,0,0-45,13.7l-35-13.4A33.31,33.31,0,0,0,1511,76.9l-4,10.58c-141.56,15.79-208.9,68.48-222.16,178.28h-91.38c-36,0-70.88,29.87-65.46,65.46,4.25,27.89,25.2,80.84,35.28,107.19,13.23,34.59,29.45,65.46,65.46,65.46h393.78c35.76,0,68.44-4.46,97.68-12.52" transform="translate(2.1 0)"/><path class="cls-10" d="M1723.9,96,1642,64.63A38.55,38.55,0,0,0,1597,78.33l-35-13.4a33.31,33.31,0,0,0-42.89,19.14L1515,94.65c-141.55,15.79-208.89,68.48-222.15,178.28H1201.5c-36,0-70.88,29.87-65.46,65.46,4.25,27.89,25.2,80.84,35.27,107.18,13.23,34.6,29.46,65.47,65.47,65.47h393.78c33.15,0,63.66-3.83,91.23-10.81" transform="translate(2.1 0)"/><path class="cls-9" d="M1561.84,115.49A5.11,5.11,0,0,1,1558,107l32.41-37a5.1,5.1,0,0,1,7.67,6.71l-32.41,37.05A5.1,5.1,0,0,1,1561.84,115.49Z" transform="translate(2.1 0)"/><path class="cls-11" d="M1166.12,440.76c24.23,1.32,48.58,1.73,72.86,1.58s48.56-1.06,72.72-2.87c12.07-.94,24.12-2.05,36.1-3.56s23.89-3.31,35.68-5.58a349.26,349.26,0,0,0,34.73-8.56,170.49,170.49,0,0,0,32.31-13.2,8,8,0,0,1,7.78,14.07l-.3.15a185.43,185.43,0,0,1-35.76,13,363.2,363.2,0,0,1-36.52,7.47c-12.22,1.86-24.47,3.19-36.71,4.26s-24.5,1.68-36.75,2.15c-24.49.85-49,.76-73.37,0s-48.78-2.21-73.13-4.5a2.21,2.21,0,0,1,.32-4.4Z" transform="translate(2.1 0)"/><path class="cls-11" d="M1385.12,210.14c-3.44,3-6.79,6.36-10,9.75s-6.29,6.92-9.2,10.58a173.26,173.26,0,0,0-15.7,23.06q-3.39,6.07-6.12,12.42a110.43,110.43,0,0,0-4.63,12.91,92.4,92.4,0,0,0-2.79,13.25,45.15,45.15,0,0,0,.34,13.34h0a6.35,6.35,0,1,1-12.48,2.33,6.75,6.75,0,0,1,0-2.33c1-5.1,1.73-10.05,2.81-14.93a112.8,112.8,0,0,1,4.08-14.28,134.87,134.87,0,0,1,13-26.14,180.88,180.88,0,0,1,17.38-23,199.8,199.8,0,0,1,20.43-20.3,2.21,2.21,0,0,1,2.88,3.34Z" transform="translate(2.1 0)"/><path class="cls-11" d="M1330.8,297.76l1.13.43,1.27.45,2.6.87c1.76.57,3.54,1.1,5.33,1.62q5.38,1.53,10.9,2.79c7.34,1.68,14.8,3,22.3,3.95a240.3,240.3,0,0,0,45.44,1.5,178.29,178.29,0,0,0,44.62-8.54,199.58,199.58,0,0,0,21.36-8.33q5.22-2.4,10.29-5.1c3.35-1.81,6.74-3.74,9.84-5.78l.06,0a2.2,2.2,0,0,1,2.53,3.6c-3.25,2.44-6.5,4.56-9.87,6.66s-6.78,4-10.25,5.89a207.33,207.33,0,0,1-21.5,9.95,187.83,187.83,0,0,1-46.11,11.8,252,252,0,0,1-47.65,1.43c-8-.52-15.92-1.39-23.83-2.68q-5.94-1-11.86-2.24c-2-.44-3.94-.89-5.92-1.4-1-.25-2-.51-3-.79l-1.51-.43c-.53-.15-1-.29-1.63-.5a8,8,0,1,1,5-15.27l.32.11Z" transform="translate(2.1 0)"/><path class="cls-11" d="M1476.31,301s-48.5,0-83.78-4.41c-52.68-6.59-57.32-22.05-57.32-22.05l-5.64,31,60.8,10.45Z" transform="translate(2.1 0)"/><path class="cls-9" d="M1615.69,385.15a1.87,1.87,0,1,1-1.87-1.87A1.87,1.87,0,0,1,1615.69,385.15Z" transform="translate(2.1 0)"/><path class="cls-9" d="M1606.67,390.59a4,4,0,1,1-4-4A4,4,0,0,1,1606.67,390.59Z" transform="translate(2.1 0)"/><path class="cls-9" d="M1591.84,409.19a3.69,3.69,0,1,1-3.69-3.69A3.69,3.69,0,0,1,1591.84,409.19Z" transform="translate(2.1 0)"/><path class="cls-9" d="M1583.35,369.14a1.39,1.39,0,1,1-1.39-1.39A1.39,1.39,0,0,1,1583.35,369.14Z" transform="translate(2.1 0)"/><path class="cls-9" d="M1571.78,426.15a1.61,1.61,0,1,1-1.61-1.61A1.61,1.61,0,0,1,1571.78,426.15Z" transform="translate(2.1 0)"/><path class="cls-9" d="M1555.17,390.2a3,3,0,1,1-3-3A3,3,0,0,1,1555.17,390.2Z" transform="translate(2.1 0)"/><path class="cls-9" d="M1535.39,407.55a1.57,1.57,0,1,1-1.57-1.57A1.57,1.57,0,0,1,1535.39,407.55Z" transform="translate(2.1 0)"/><path class="cls-9" d="M1521.89,380.19a1.75,1.75,0,1,1-1.75-1.75A1.74,1.74,0,0,1,1521.89,380.19Z" transform="translate(2.1 0)"/><path class="cls-9" d="M1511.42,418.91a2.11,2.11,0,1,1-2.11-2.11A2.11,2.11,0,0,1,1511.42,418.91Z" transform="translate(2.1 0)"/><path class="cls-9" d="M1495.06,363.46a5.09,5.09,0,1,1-5.09-5.09A5.09,5.09,0,0,1,1495.06,363.46Z" transform="translate(2.1 0)"/><path class="cls-9" d="M1470.54,388.48a5.92,5.92,0,1,1-5.91-5.92A5.91,5.91,0,0,1,1470.54,388.48Z" transform="translate(2.1 0)"/><path class="cls-9" d="M1449,399a2.65,2.65,0,1,1-2.65-2.64A2.65,2.65,0,0,1,1449,399Z" transform="translate(2.1 0)"/><path class="cls-9" d="M1445.84,373a1.66,1.66,0,1,1-1.66-1.65A1.66,1.66,0,0,1,1445.84,373Z" transform="translate(2.1 0)"/><path class="cls-9" d="M1420.11,393.94a4.61,4.61,0,1,1-4.61-4.61A4.62,4.62,0,0,1,1420.11,393.94Z" transform="translate(2.1 0)"/><path class="cls-9" d="M1374.43,392.65a4.66,4.66,0,1,1-4.65-4.66A4.66,4.66,0,0,1,1374.43,392.65Z" transform="translate(2.1 0)"/><path class="cls-9" d="M1393.73,364.3a4.42,4.42,0,1,1-4.42-4.42A4.42,4.42,0,0,1,1393.73,364.3Z" transform="translate(2.1 0)"/><path class="cls-9" d="M1346.21,376a2.15,2.15,0,1,1-2.15-2.15A2.15,2.15,0,0,1,1346.21,376Z" transform="translate(2.1 0)"/><path class="cls-9" d="M1379.41,339.36a1.68,1.68,0,1,1-1.67-1.68A1.67,1.67,0,0,1,1379.41,339.36Z" transform="translate(2.1 0)"/><path class="cls-9" d="M1351,334.59a3.84,3.84,0,1,1-3.84-3.84A3.84,3.84,0,0,1,1351,334.59Z" transform="translate(2.1 0)"/><path class="cls-9" d="M1296.85,360.29a5.22,5.22,0,1,1-5.22-5.22A5.22,5.22,0,0,1,1296.85,360.29Z" transform="translate(2.1 0)"/><path class="cls-9" d="M1320.44,339.2a2.12,2.12,0,1,1-2.12-2.13A2.12,2.12,0,0,1,1320.44,339.2Z" transform="translate(2.1 0)"/><path class="cls-9" d="M1308.75,329a3.61,3.61,0,1,1-3.6-3.61A3.6,3.6,0,0,1,1308.75,329Z" transform="translate(2.1 0)"/><path class="cls-9" d="M1312.13,300.83a3.7,3.7,0,1,1-3.7-3.69A3.7,3.7,0,0,1,1312.13,300.83Z" transform="translate(2.1 0)"/><path class="cls-9" d="M1270.26,318.61a5.07,5.07,0,1,1-5.07-5.07A5.07,5.07,0,0,1,1270.26,318.61Z" transform="translate(2.1 0)"/><path class="cls-9" d="M1303,286.79a3.77,3.77,0,1,1-3.77-3.77A3.77,3.77,0,0,1,1303,286.79Z" transform="translate(2.1 0)"/><path class="cls-9" d="M1274.53,284.14a4.49,4.49,0,1,1-4.49-4.49A4.49,4.49,0,0,1,1274.53,284.14Z" transform="translate(2.1 0)"/><path class="cls-9" d="M1215.88,381.79a5.58,5.58,0,1,1-5.58-5.57A5.58,5.58,0,0,1,1215.88,381.79Z" transform="translate(2.1 0)"/><path class="cls-9" d="M1205.75,376a2.11,2.11,0,1,1-2.11-2.11A2.11,2.11,0,0,1,1205.75,376Z" transform="translate(2.1 0)"/><path class="cls-9" d="M1252.69,362a3,3,0,1,1-3-3A3,3,0,0,1,1252.69,362Z" transform="translate(2.1 0)"/><path class="cls-9" d="M1232,341.87a4.58,4.58,0,1,1-4.58-4.58A4.58,4.58,0,0,1,1232,341.87Z" transform="translate(2.1 0)"/><path class="cls-9" d="M1233.38,333.81a1.4,1.4,0,1,1-1.4-1.4A1.4,1.4,0,0,1,1233.38,333.81Z" transform="translate(2.1 0)"/><path class="cls-9" d="M1253.38,317a5.57,5.57,0,1,1-5.57-5.56A5.57,5.57,0,0,1,1253.38,317Z" transform="translate(2.1 0)"/><path class="cls-9" d="M1208.64,305.34a4.4,4.4,0,1,1-4.4-4.4A4.4,4.4,0,0,1,1208.64,305.34Z" transform="translate(2.1 0)"/><path class="cls-9" d="M1248.84,279.76a4.37,4.37,0,1,1-4.37-4.37A4.37,4.37,0,0,1,1248.84,279.76Z" transform="translate(2.1 0)"/><path class="cls-9" d="M1204.59,279.08a4,4,0,1,1-4-4A4,4,0,0,1,1204.59,279.08Z" transform="translate(2.1 0)"/><path class="cls-9" d="M1361.34,194a2,2,0,1,1-1.95-1.95A2,2,0,0,1,1361.34,194Z" transform="translate(2.1 0)"/><path class="cls-9" d="M1341.34,181.38a5.93,5.93,0,1,1-5.93-5.92A5.93,5.93,0,0,1,1341.34,181.38Z" transform="translate(2.1 0)"/><path class="cls-9" d="M1355.57,218.13a2.93,2.93,0,1,1-2.93-2.93A2.93,2.93,0,0,1,1355.57,218.13Z" transform="translate(2.1 0)"/><path class="cls-9" d="M1346,239a1.51,1.51,0,1,1-1.5-1.5A1.5,1.5,0,0,1,1346,239Z" transform="translate(2.1 0)"/><path class="cls-9" d="M1332.82,246.42a1.94,1.94,0,1,1-1.94-1.94A1.94,1.94,0,0,1,1332.82,246.42Z" transform="translate(2.1 0)"/><path class="cls-9" d="M1325.93,247.62a4.16,4.16,0,1,1-4.16-4.16A4.16,4.16,0,0,1,1325.93,247.62Z" transform="translate(2.1 0)"/><path class="cls-9" d="M1303.21,264a2.5,2.5,0,1,1-2.49-2.5A2.49,2.49,0,0,1,1303.21,264Z" transform="translate(2.1 0)"/><path class="cls-9" d="M1607.93,337.84a2.86,2.86,0,1,1-2.86-2.85A2.86,2.86,0,0,1,1607.93,337.84Z" transform="translate(2.1 0)"/><path class="cls-9" d="M1605.22,358.79a5.48,5.48,0,1,1-5.48-5.48A5.49,5.49,0,0,1,1605.22,358.79Z" transform="translate(2.1 0)"/><path class="cls-9" d="M1583.26,365.15a3.6,3.6,0,1,1-3.6-3.59A3.6,3.6,0,0,1,1583.26,365.15Z" transform="translate(2.1 0)"/><path class="cls-9" d="M1559.73,366.3a1.62,1.62,0,1,1-1.62-1.62A1.61,1.61,0,0,1,1559.73,366.3Z" transform="translate(2.1 0)"/><path class="cls-9" d="M1550.13,356.78a4.13,4.13,0,1,1-4.13-4.13A4.12,4.12,0,0,1,1550.13,356.78Z" transform="translate(2.1 0)"/><path class="cls-9" d="M1542,349.1a2.24,2.24,0,1,1-2.24-2.24A2.24,2.24,0,0,1,1542,349.1Z" transform="translate(2.1 0)"/><path class="cls-9" d="M1532.92,334.47a4.85,4.85,0,1,1-4.84-4.84A4.84,4.84,0,0,1,1532.92,334.47Z" transform="translate(2.1 0)"/><path class="cls-9" d="M1508.16,325.74a4.55,4.55,0,1,1-4.55-4.55A4.55,4.55,0,0,1,1508.16,325.74Z" transform="translate(2.1 0)"/><path class="cls-9" d="M1496,317.73a3,3,0,1,1-3-3A3,3,0,0,1,1496,317.73Z" transform="translate(2.1 0)"/><path class="cls-9" d="M1487,332.06a2.77,2.77,0,1,1-2.77-2.77A2.77,2.77,0,0,1,1487,332.06Z" transform="translate(2.1 0)"/><path class="cls-9" d="M1469.34,369.89a5.67,5.67,0,1,1-5.67-5.67A5.67,5.67,0,0,1,1469.34,369.89Z" transform="translate(2.1 0)"/><path class="cls-9" d="M1463.43,333.35a3.44,3.44,0,1,1-3.44-3.44A3.44,3.44,0,0,1,1463.43,333.35Z" transform="translate(2.1 0)"/><path class="cls-9" d="M1446.48,358.41a3.24,3.24,0,1,1-3.24-3.24A3.24,3.24,0,0,1,1446.48,358.41Z" transform="translate(2.1 0)"/><path class="cls-11" d="M1197.54,315.14c5.1,6.72-6.76,2.3-13.52,7.43s-5.86,17.9-11,11.18a15.38,15.38,0,0,1,24.49-18.61Z" transform="translate(2.1 0)"/><g class="cls-12"><path class="cls-9" d="M1163.8,334.76a18,18,0,0,1-5.28-7.16,20.89,20.89,0,0,1-1.49-9.2,22.14,22.14,0,0,1,2.64-9.2,22.94,22.94,0,0,1,15.09-11.47,22.44,22.44,0,0,1,9.58-.09,21,21,0,0,1,8.45,3.91,17.79,17.79,0,0,1,5.49,7,.58.58,0,0,1-.9.68A23.47,23.47,0,0,0,1183.5,304a20.1,20.1,0,0,0-20.1,15.28,23.34,23.34,0,0,0,1.31,14.77.59.59,0,0,1-.32.77A.57.57,0,0,1,1163.8,334.76Z" transform="translate(2.1 0)"/></g><path class="cls-9" d="M1279.19,270.41s-4,32,15.13,57.91c0,0-2.39-36.89-1.49-57.44Z" transform="translate(2.1 0)"/><path class="cls-9" d="M1404,292.77c-37-3.59-55-15.53-55-15.53,4.78-25.7,35-54.38,35-54.38s-24.42,35.26-19.27,50C1369.55,286.89,1404,292.77,1404,292.77Z" transform="translate(2.1 0)"/><path class="cls-13" d="M1720.91,618.2c-2.73-.26-5.76-.41-9.21-.41H75.9c-29.22,0-70.81-.18-75.13-1" transform="translate(2.1 0)"/><path class="cls-13" d="M3.54,481.84c4.35.41,6.62,1.66,13.92,1.66,29.21,0,29.21-10.6,58.42-10.6s29.21,10.6,58.42,10.6,29.21-10.6,58.42-10.6,29.21,10.6,58.42,10.6,29.21-10.6,58.42-10.6,29.21,10.6,58.42,10.6,29.21-10.6,58.43-10.6,29.21,10.6,58.42,10.6,29.21-10.6,58.42-10.6,29.21,10.6,58.42,10.6,29.21-10.6,58.42-10.6,29.21,10.6,58.42,10.6,29.21-10.6,58.42-10.6,29.21,10.6,58.42,10.6,29.21-10.6,58.42-10.6,29.21,10.6,58.42,10.6,29.21-10.6,58.42-10.6,29.21,10.6,58.42,10.6,29.21-10.6,58.42-10.6,29.21,10.6,58.42,10.6,29.21-10.6,58.42-10.6,29.22,10.6,58.43,10.6,29.21-10.6,58.42-10.6,29.21,10.6,58.43,10.6,29.21-10.6,58.42-10.6,29.21,10.6,58.42,10.6,29.22-10.6,58.43-10.6,29.21,10.6,58.43,10.6,29.21-10.6,58.43-10.6c3.41,0,7.63.39,10.34.65V616.76H4.73S6.05,481.84,3.54,481.84Z" transform="translate(2.1 0)"/><path class="cls-13" d="M4.73,616.76S3.34,507,3.54,481.84c4.35.41,6.62,1.66,13.92,1.66" transform="translate(2.1 0)"/><text class="cls-14" transform="translate(189.2 360.82)">Nita</text><text class="cls-15" transform="translate(421.09 487.57)">Ordoñez</text><path class="cls-16" d="M729.38,381.35c1.81-6.27,7.58-8.52,12.57-9a33.66,33.66,0,0,1,14.2,1.85l1.41.46,1.26.42c.84.33,1.65.44,2.48.69s1.63.3,2.45.47a19.1,19.1,0,0,0,2.36.16,12.23,12.23,0,0,0,4.36-.67,9.88,9.88,0,0,0,1.93-.95,9.1,9.1,0,0,0,.87-.62,4.49,4.49,0,0,0,.39-.33l.18-.15s.12-.13.1,0a3.05,3.05,0,0,1,5.54,2.56l-.27.63c-.08.19-.15.33-.23.5s-.33.6-.5.9a12.1,12.1,0,0,1-1.18,1.63,15.37,15.37,0,0,1-2.95,2.69,18,18,0,0,1-7.21,2.89,26.29,26.29,0,0,1-3.73.42,36,36,0,0,1-3.61-.14c-1.16-.16-2.38-.25-3.49-.52l-3.22-.73a29,29,0,0,0-9.88-.87c-3,.48-5.38,1.34-8.91,1.32h-2.25a2.81,2.81,0,0,1-2.79-2.82A3.17,3.17,0,0,1,729.38,381.35Z" transform="translate(2.1 0)"/><rect class="cls-17" x="0.5" y="1.2" width="1728" height="618.73"/></g></g></g></svg>