<svg xmlns="http://www.w3.org/2000/svg" xmlns:xlink="http://www.w3.org/1999/xlink" viewBox="0 0 1723.07 616"><defs><style>.cls-1{fill:none;}.cls-2{clip-path:url(#clip-path);}.cls-3{fill:url(#Degradado_sin_nombre_18);}.cls-4{opacity:0.74;}.cls-5{fill:#fffcbc;}.cls-6{fill:#408860;}.cls-7{fill:#33561f;}.cls-8{fill:#fff;}</style><clipPath id="clip-path" transform="translate(-0.42 -0.67)"><polygon class="cls-1" points="1722 617 0 617 0 0 1723.49 0.67 1722 617"/></clipPath><linearGradient id="Degradado_sin_nombre_18" x1="862.57" y1="616" x2="862.57" gradientUnits="userSpaceOnUse"><stop offset="0" stop-color="#d7acff"/><stop offset="1" stop-color="#174a8a"/></linearGradient></defs><g id="Capa_2" data-name="Capa 2"><g id="Capa_2-2" data-name="Capa 2"><g class="cls-2"><rect class="cls-3" x="2.07" width="1721" height="616"/><g class="cls-4"><polygon class="cls-5" points="1704.94 175.78 1704.14 179.58 1707.51 181.52 1703.65 181.93 1702.85 185.74 1701.26 182.19 1697.39 182.6 1700.28 180 1698.69 176.45 1702.06 178.39 1704.94 175.78"/><polygon class="cls-5" points="1645.97 91.09 1646.65 97.61 1653.06 98.98 1647.08 101.64 1647.76 108.16 1643.38 103.28 1637.39 105.95 1640.67 100.27 1636.28 95.4 1642.69 96.77 1645.97 91.09"/><polygon class="cls-5" points="1565.05 73.3 1562.85 75.61 1564.37 78.41 1561.49 77.04 1559.29 79.35 1559.71 76.19 1556.84 74.81 1559.97 74.23 1560.39 71.07 1561.91 73.88 1565.05 73.3"/><polygon class="cls-5" points="1554.85 188.01 1553.08 190.97 1555.34 193.56 1551.99 192.79 1550.22 195.75 1549.91 192.32 1546.56 191.55 1549.72 190.2 1549.42 186.77 1551.68 189.36 1554.85 188.01"/><polygon class="cls-5" points="1503.27 156.37 1500.39 161.04 1503.95 165.22 1498.62 163.93 1495.74 168.6 1495.32 163.13 1489.99 161.84 1495.06 159.75 1494.64 154.28 1498.2 158.46 1503.27 156.37"/><polygon class="cls-5" points="1464.49 218.39 1469.82 222 1474.9 218.05 1473.11 224.23 1478.44 227.84 1472.01 228.05 1470.22 234.24 1468.03 228.18 1461.6 228.4 1466.68 224.44 1464.49 218.39"/><polygon class="cls-5" points="1441.52 231.79 1438.56 233.19 1438.97 236.45 1436.72 234.06 1433.76 235.46 1435.33 232.59 1433.09 230.2 1436.31 230.81 1437.88 227.93 1438.3 231.19 1441.52 231.79"/><polygon class="cls-5" points="1335.3 103.93 1344.31 103.02 1346.24 94.17 1349.89 102.47 1358.9 101.56 1352.14 107.59 1355.79 115.89 1347.96 111.32 1341.2 117.36 1343.12 108.5 1335.3 103.93"/><polygon class="cls-5" points="1278.45 149.46 1282.85 148.25 1283.06 143.69 1285.57 147.51 1289.97 146.3 1287.12 149.86 1289.63 153.68 1285.36 152.07 1282.5 155.63 1282.72 151.07 1278.45 149.46"/><polygon class="cls-5" points="1208.24 277.5 1211.85 278.38 1213.8 275.22 1214.08 278.92 1217.69 279.8 1214.26 281.21 1214.54 284.91 1212.13 282.08 1208.7 283.49 1210.65 280.33 1208.24 277.5"/><polygon class="cls-5" points="1168.47 166.19 1172.89 169.5 1177.4 166.32 1175.62 171.55 1180.04 174.86 1174.52 174.78 1172.74 180.01 1171.11 174.73 1165.58 174.65 1170.1 171.47 1168.47 166.19"/><polygon class="cls-5" points="1099.86 156.94 1096.35 160.06 1098.23 164.35 1094.18 161.98 1090.68 165.1 1091.68 160.52 1087.63 158.15 1092.3 157.69 1093.3 153.1 1095.19 157.4 1099.86 156.94"/><polygon class="cls-5" points="1057.66 226.82 1060.28 232.58 1066.57 231.87 1061.9 236.15 1064.53 241.91 1059.02 238.79 1054.35 243.07 1055.61 236.86 1050.1 233.74 1056.39 233.03 1057.66 226.82"/><polygon class="cls-5" points="978.6 113.65 976.56 115.91 978.08 118.54 975.3 117.31 973.27 119.57 973.59 116.54 970.81 115.31 973.78 114.67 974.1 111.65 975.62 114.28 978.6 113.65"/><polygon class="cls-5" points="952.84 180.13 950.77 184.74 954.51 188.14 949.48 187.59 947.4 192.2 946.38 187.25 941.35 186.7 945.74 184.19 944.71 179.24 948.45 182.64 952.84 180.13"/><polygon class="cls-5" points="921.48 172.34 925.43 178.35 932.38 176.45 927.88 182.07 931.83 188.09 925.1 185.54 920.6 191.16 920.93 183.97 914.2 181.43 921.14 179.53 921.48 172.34"/><polygon class="cls-5" points="899.93 129.51 899.4 133.44 902.97 135.15 899.07 135.87 898.55 139.79 896.66 136.31 892.77 137.02 895.5 134.15 893.62 130.66 897.19 132.38 899.93 129.51"/><polygon class="cls-5" points="870.45 107.38 866.91 115.14 873.19 120.91 864.72 119.93 861.18 127.69 859.49 119.33 851.01 118.36 858.44 114.17 856.75 105.81 863.03 111.57 870.45 107.38"/><polygon class="cls-5" points="800.41 300.65 804.8 301.05 806.54 297 807.51 301.3 811.9 301.7 808.12 303.95 809.09 308.25 805.77 305.35 801.99 307.6 803.73 303.55 800.41 300.65"/><polygon class="cls-5" points="718.64 284.21 725.96 284.44 728.44 277.56 730.48 284.59 737.79 284.83 731.74 288.94 733.77 295.97 727.99 291.47 721.93 295.58 724.42 288.7 718.64 284.21"/><polygon class="cls-5" points="694.27 221.87 700.33 227.91 707.96 224.02 704.08 231.65 710.15 237.71 701.68 236.37 697.8 244.01 696.45 235.55 687.99 234.22 695.62 230.32 694.27 221.87"/><polygon class="cls-5" points="687.57 126.82 684.96 127.97 685.24 130.81 683.34 128.68 680.73 129.83 682.17 127.37 680.26 125.23 683.05 125.84 684.5 123.37 684.78 126.22 687.57 126.82"/><polygon class="cls-5" points="627.73 156.66 630.4 159.3 633.74 157.58 632.05 160.93 634.72 163.58 631 163.01 629.32 166.36 628.71 162.66 625 162.09 628.34 160.37 627.73 156.66"/><polygon class="cls-5" points="604.33 191.42 610.92 192.36 613.85 186.38 614.99 192.94 621.58 193.87 615.7 196.99 616.85 203.54 612.07 198.91 606.19 202.03 609.11 196.05 604.33 191.42"/><polygon class="cls-5" points="566.54 115.29 569.43 118.54 573.41 116.81 571.21 120.55 574.09 123.81 569.85 122.87 567.64 126.61 567.22 122.29 562.98 121.35 566.96 119.61 566.54 115.29"/><polygon class="cls-5" points="545.2 193.56 543.31 196.29 545.33 198.93 542.15 197.98 540.26 200.71 540.18 197.39 537 196.44 540.13 195.34 540.05 192.02 542.07 194.66 545.2 193.56"/><polygon class="cls-5" points="487.83 192.27 495.69 194.08 499.84 187.16 500.55 195.19 508.41 197 500.99 200.16 501.7 208.2 496.4 202.11 488.98 205.27 493.13 198.35 487.83 192.27"/><polygon class="cls-5" points="413.6 119.39 419.4 121.94 423.61 117.21 422.98 123.51 428.78 126.06 422.59 127.41 421.96 133.71 418.77 128.24 412.58 129.59 416.79 124.86 413.6 119.39"/><polygon class="cls-5" points="298.65 244.15 305.61 248.56 311.96 243.3 309.91 251.29 316.87 255.7 308.65 256.22 306.6 264.21 303.56 256.54 295.34 257.07 301.69 251.81 298.65 244.15"/><polygon class="cls-5" points="284.88 330.85 283.96 336.93 289.46 339.68 283.39 340.69 282.47 346.76 279.64 341.31 273.58 342.31 277.9 337.93 275.07 332.48 280.56 335.23 284.88 330.85"/><polygon class="cls-5" points="224.88 145.73 226.16 149.07 229.73 148.88 226.95 151.13 228.23 154.46 225.24 152.52 222.46 154.77 223.38 151.32 220.39 149.37 223.95 149.18 224.88 145.73"/><polygon class="cls-5" points="153.59 235.32 154.99 239.02 158.95 238.83 155.86 241.31 157.27 245.01 153.95 242.84 150.87 245.32 151.91 241.5 148.59 239.33 152.55 239.14 153.59 235.32"/><polygon class="cls-5" points="110.57 153.57 118 155.68 122.3 149.27 122.59 156.99 130.02 159.1 122.77 161.76 123.06 169.47 118.29 163.4 111.04 166.06 115.34 159.65 110.57 153.57"/><polygon class="cls-5" points="44.89 244.41 52.8 248.59 59.23 242.35 57.7 251.17 65.62 255.35 56.76 256.62 55.23 265.44 51.28 257.41 42.42 258.68 48.84 252.44 44.89 244.41"/><polygon class="cls-5" points="55.66 317.07 59.02 322.2 64.93 320.6 61.09 325.37 64.44 330.5 58.71 328.32 54.87 333.09 55.17 326.97 49.45 324.79 55.36 323.19 55.66 317.07"/><polygon class="cls-5" points="49.75 345.43 52.02 351.54 58.53 351.28 53.41 355.32 55.68 361.43 50.25 357.81 45.14 361.86 46.9 355.58 41.48 351.96 47.99 351.7 49.75 345.43"/><polygon class="cls-5" points="1614.61 78.11 1613.85 82.21 1617.51 84.19 1613.38 84.74 1612.62 88.83 1610.83 85.07 1606.7 85.62 1609.72 82.75 1607.93 78.99 1611.59 80.98 1614.61 78.11"/><polygon class="cls-5" points="1530.84 141.42 1532.83 144.49 1536.37 143.55 1534.05 146.4 1536.04 149.48 1532.62 148.15 1530.31 151 1530.51 147.34 1527.09 146.02 1530.63 145.07 1530.84 141.42"/><polygon class="cls-5" points="1404.11 117.14 1404.68 120.86 1408.38 121.47 1405.03 123.15 1405.59 126.87 1402.95 124.19 1399.59 125.88 1401.32 122.54 1398.68 119.87 1402.39 120.48 1404.11 117.14"/><polygon class="cls-5" points="1365.66 123.51 1367.09 130.75 1374.42 131.63 1367.98 135.22 1369.41 142.47 1363.99 137.45 1357.55 141.05 1360.65 134.35 1355.23 129.33 1362.56 130.21 1365.66 123.51"/><polygon class="cls-5" points="1299.32 19.98 1292.82 25.93 1296.46 33.95 1288.8 29.61 1282.29 35.55 1284.06 26.92 1276.39 22.57 1285.15 21.58 1286.92 12.95 1290.56 20.97 1299.32 19.98"/><polygon class="cls-5" points="1273.66 81.96 1275.49 86.64 1280.51 86.33 1276.63 89.52 1278.47 94.2 1274.23 91.5 1270.35 94.69 1271.62 89.83 1267.38 87.13 1272.4 86.82 1273.66 81.96"/><polygon class="cls-5" points="1257.08 123.64 1256.57 131.93 1264.3 134.98 1256.26 137.06 1255.75 145.35 1251.28 138.34 1243.24 140.43 1248.53 134.01 1244.06 127.01 1251.79 130.05 1257.08 123.64"/><polygon class="cls-5" points="1165.9 102.2 1173.88 102.58 1176.71 95.11 1178.82 102.82 1186.8 103.2 1180.11 107.58 1182.21 115.29 1175.98 110.29 1169.3 114.67 1172.13 107.2 1165.9 102.2"/><polygon class="cls-5" points="1148.44 27.07 1154.18 25.85 1154.8 20 1157.73 25.09 1163.48 23.87 1159.55 28.23 1162.49 33.32 1157.12 30.93 1153.19 35.3 1153.81 29.46 1148.44 27.07"/><polygon class="cls-5" points="1127.62 18.11 1128.77 24.85 1135.54 25.85 1129.48 29.02 1130.62 35.77 1125.73 30.98 1119.67 34.16 1122.71 28.03 1117.82 23.25 1124.58 24.24 1127.62 18.11"/><polygon class="cls-5" points="1054.02 142.71 1051.52 145.31 1053.21 148.49 1049.97 146.91 1047.46 149.5 1047.97 145.93 1044.73 144.35 1048.28 143.72 1048.78 140.16 1050.47 143.34 1054.02 142.71"/><polygon class="cls-5" points="990.6 121.72 998.76 120.29 999.91 112.08 1003.8 119.4 1011.96 117.97 1006.2 123.92 1010.08 131.24 1002.64 127.6 996.88 133.56 998.04 125.36 990.6 121.72"/><polygon class="cls-5" points="943.25 60.95 942.03 63.51 944.09 65.47 941.27 65.1 940.05 67.66 939.53 64.87 936.72 64.5 939.21 63.15 938.69 60.35 940.75 62.31 943.25 60.95"/><polygon class="cls-5" points="796.98 29.48 802.22 34.62 808.73 31.21 805.47 37.79 810.71 42.92 803.45 41.85 800.19 48.43 798.96 41.19 791.7 40.12 798.2 36.72 796.98 29.48"/><polygon class="cls-5" points="784 138.38 783.23 145.51 789.77 148.45 782.75 149.91 781.98 157.04 778.41 150.82 771.39 152.28 776.21 146.97 772.65 140.75 779.19 143.69 784 138.38"/><polygon class="cls-5" points="766.34 11.08 760.3 14.95 762.12 21.89 756.57 17.34 750.53 21.21 753.14 14.53 747.6 9.99 754.76 10.4 757.36 3.72 759.18 10.66 766.34 11.08"/><polygon class="cls-5" points="726.8 43.3 722.36 50.37 727.72 56.78 719.62 54.74 715.18 61.81 714.62 53.48 706.52 51.45 714.27 48.33 713.7 40.01 719.06 46.41 726.8 43.3"/><polygon class="cls-5" points="679.04 84.71 684.92 84.84 686.87 79.29 688.55 84.93 694.44 85.06 689.6 88.41 691.29 94.05 686.61 90.48 681.77 93.83 683.72 88.28 679.04 84.71"/><polygon class="cls-5" points="619.74 27.33 618.8 31.17 622.16 33.25 618.22 33.54 617.27 37.38 615.78 33.72 611.84 34.01 614.86 31.46 613.37 27.8 616.73 29.88 619.74 27.33"/><polygon class="cls-5" points="524.75 80.51 523.66 83.25 525.93 85.13 522.99 84.94 521.9 87.69 521.17 84.83 518.22 84.64 520.72 83.06 519.99 80.2 522.26 82.08 524.75 80.51"/><polygon class="cls-5" points="486.85 118.65 494.27 119.56 497.43 112.79 498.85 120.13 506.27 121.04 499.73 124.66 501.15 132 495.69 126.9 489.15 130.52 492.31 123.75 486.85 118.65"/><polygon class="cls-5" points="433.37 5.91 437.44 13.35 445.78 11.77 439.96 17.95 444.04 25.4 436.37 21.77 430.55 27.95 431.62 19.53 423.95 15.9 432.29 14.33 433.37 5.91"/><polygon class="cls-5" points="364.45 19.58 366.75 21.11 368.92 19.39 368.18 22.05 370.49 23.59 367.72 23.7 366.98 26.37 366.01 23.77 363.25 23.89 365.41 22.17 364.45 19.58"/><polygon class="cls-5" points="320.68 98.57 320.36 103.68 325.12 105.57 320.16 106.84 319.83 111.95 317.09 107.62 312.13 108.9 315.4 104.95 312.66 100.63 317.42 102.52 320.68 98.57"/><polygon class="cls-5" points="239.48 150.87 245.33 150.06 246.36 144.24 248.95 149.55 254.8 148.74 250.54 152.83 253.13 158.15 247.91 155.37 243.66 159.47 244.69 153.65 239.48 150.87"/><polygon class="cls-5" points="191.51 49.95 198.58 51.41 202.16 45.14 202.95 52.31 210.02 53.77 203.45 56.75 204.25 63.92 199.38 58.59 192.81 61.56 196.38 55.29 191.51 49.95"/><polygon class="cls-5" points="156.36 67.02 162.47 70.69 167.85 66 166.25 72.95 172.37 76.63 165.26 77.25 163.66 84.2 160.87 77.64 153.77 78.26 159.15 73.58 156.36 67.02"/><polygon class="cls-5" points="111.43 80.81 116.53 83.81 120.96 79.88 119.69 85.66 124.79 88.66 118.9 89.23 117.62 95.01 115.26 89.58 109.37 90.16 113.8 86.23 111.43 80.81"/><polygon class="cls-5" points="106.24 145.47 106.58 148.81 109.85 149.52 106.78 150.87 107.11 154.21 104.89 151.7 101.81 153.05 103.51 150.16 101.28 147.66 104.55 148.37 106.24 145.47"/><polygon class="cls-5" points="36.81 112.03 40.13 113.38 42.44 110.64 42.19 114.22 45.51 115.56 42.03 116.42 41.77 120 39.88 116.96 36.4 117.82 38.71 115.08 36.81 112.03"/><polygon class="cls-5" points="1708.34 422.17 1712.63 425.88 1717.48 422.95 1715.27 428.17 1719.56 431.89 1713.91 431.4 1711.71 436.63 1710.42 431.1 1704.77 430.62 1709.62 427.69 1708.34 422.17"/><polygon class="cls-5" points="1654.59 374.68 1661.84 373.55 1663.01 366.31 1666.32 372.86 1673.56 371.73 1668.36 376.9 1671.67 383.45 1665.15 380.1 1659.94 385.27 1661.11 378.03 1654.59 374.68"/><polygon class="cls-5" points="1602.17 548.92 1604.45 553.1 1609.13 552.23 1605.86 555.68 1608.14 559.87 1603.84 557.82 1600.56 561.28 1601.18 556.56 1596.87 554.51 1601.56 553.64 1602.17 548.92"/><polygon class="cls-5" points="1585.32 537.95 1594.32 536.64 1595.86 527.67 1599.88 535.83 1608.88 534.52 1602.37 540.87 1606.39 549.03 1598.34 544.79 1591.83 551.14 1593.37 542.18 1585.32 537.95"/><polygon class="cls-5" points="1517.48 506.94 1526.02 507.52 1529.21 499.57 1531.3 507.88 1539.85 508.45 1532.59 513.01 1534.68 521.32 1528.11 515.83 1520.86 520.38 1524.05 512.43 1517.48 506.94"/><polygon class="cls-5" points="1446.87 430.64 1452.99 429.08 1453.4 422.78 1456.77 428.12 1462.88 426.56 1458.85 431.42 1462.22 436.76 1456.36 434.42 1452.32 439.27 1452.73 432.97 1446.87 430.64"/><polygon class="cls-5" points="1372.5 433.1 1373.65 436.46 1377.21 436.41 1374.37 438.55 1375.52 441.92 1372.61 439.87 1369.76 442.01 1370.81 438.6 1367.89 436.56 1371.45 436.5 1372.5 433.1"/><polygon class="cls-5" points="1295.11 425.19 1292.7 429.46 1296.01 433.07 1291.21 432.1 1288.8 436.36 1288.24 431.49 1283.44 430.52 1287.9 428.49 1287.34 423.62 1290.65 427.23 1295.11 425.19"/><polygon class="cls-5" points="1268.73 554.81 1267.14 558.56 1270.22 561.23 1266.16 560.87 1264.57 564.62 1263.66 560.65 1259.6 560.3 1263.09 558.2 1262.17 554.24 1265.25 556.91 1268.73 554.81"/><polygon class="cls-5" points="1212.66 431.76 1217.74 435 1222.38 431.18 1220.87 437 1225.94 440.23 1219.94 440.6 1218.43 446.42 1216.23 440.82 1210.22 441.19 1214.87 437.36 1212.66 431.76"/><polygon class="cls-5" points="1187.36 539.42 1185.73 547.07 1192.5 550.98 1184.72 551.79 1183.09 559.44 1179.91 552.29 1172.14 553.11 1177.95 547.88 1174.77 540.74 1181.54 544.65 1187.36 539.42"/><polygon class="cls-5" points="1119.64 386.9 1126.24 385.65 1127.09 378.99 1130.32 384.88 1136.92 383.64 1132.31 388.53 1135.54 394.42 1129.46 391.55 1124.86 396.44 1125.71 389.77 1119.64 386.9"/><polygon class="cls-5" points="1056.92 431.09 1058.44 433.42 1061.13 432.69 1059.38 434.86 1060.91 437.19 1058.31 436.2 1056.56 438.37 1056.7 435.59 1054.09 434.6 1056.78 433.87 1056.92 431.09"/><polygon class="cls-5" points="1005.5 430.56 1006.88 436.43 1012.89 436.93 1007.73 440.05 1009.11 445.92 1004.55 441.99 999.39 445.11 1001.72 439.55 997.16 435.62 1003.17 436.12 1005.5 430.56"/><polygon class="cls-5" points="938.5 376.25 941.81 381.1 947.45 379.45 943.86 384.1 947.17 388.95 941.64 386.97 938.04 391.62 938.22 385.75 932.69 383.77 938.33 382.12 938.5 376.25"/><polygon class="cls-5" points="908.29 382.67 900.71 386.6 902.11 395.03 896.02 389.03 888.44 392.97 892.26 385.33 886.17 379.33 894.63 380.6 898.45 372.96 899.85 381.39 908.29 382.67"/><polygon class="cls-5" points="819.1 515.99 821.6 521.86 827.95 521.3 823.14 525.49 825.63 531.36 820.16 528.07 815.35 532.26 816.79 526.04 811.32 522.76 817.67 522.2 819.1 515.99"/><polygon class="cls-5" points="793.52 481.38 794.72 484.87 798.41 484.81 795.46 487.03 796.66 490.52 793.64 488.4 790.69 490.63 791.77 487.1 788.74 484.98 792.44 484.91 793.52 481.38"/><polygon class="cls-5" points="695.54 538.83 690.71 544.59 694.69 550.97 687.72 548.15 682.88 553.91 683.41 546.4 676.44 543.59 683.73 541.77 684.26 534.27 688.24 540.64 695.54 538.83"/><polygon class="cls-5" points="542.34 492.09 551.26 493.28 555.15 485.16 556.77 494.01 565.69 495.2 557.78 499.48 559.4 508.33 552.89 502.13 544.97 506.41 548.86 498.3 542.34 492.09"/><polygon class="cls-5" points="530.99 520.37 538.46 525.7 545.83 520.25 543.07 528.99 550.54 534.32 541.36 534.4 538.6 543.15 535.69 534.45 526.52 534.52 533.9 529.07 530.99 520.37"/><polygon class="cls-5" points="488.43 504.61 488.69 508.94 492.89 510.04 488.85 511.62 489.1 515.96 486.35 512.6 482.3 514.18 484.64 510.53 481.89 507.17 486.09 508.27 488.43 504.61"/><polygon class="cls-5" points="427.62 519.23 426.6 527.62 434.26 531.19 425.96 532.81 424.94 541.21 420.83 533.81 412.53 535.44 418.3 529.25 414.19 521.85 421.86 525.42 427.62 519.23"/><polygon class="cls-5" points="301.55 399.88 302.41 403.32 305.95 403.56 302.94 405.44 303.81 408.88 301.09 406.61 298.09 408.49 299.41 405.2 296.69 402.93 300.23 403.17 301.55 399.88"/><polygon class="cls-5" points="275.43 477.93 272.83 483.43 277.26 487.6 271.23 486.83 268.63 492.32 267.5 486.35 261.46 485.57 266.8 482.65 265.67 476.68 270.1 480.85 275.43 477.93"/><polygon class="cls-5" points="252.27 498.78 248.4 500.39 248.74 504.58 246.01 501.39 242.14 503.01 244.32 499.43 241.58 496.24 245.67 497.21 247.85 493.63 248.19 497.81 252.27 498.78"/><polygon class="cls-5" points="169.63 536.88 172.42 536.98 173.38 534.35 174.14 537.04 176.94 537.14 174.62 538.7 175.38 541.39 173.18 539.66 170.87 541.22 171.82 538.6 169.63 536.88"/><polygon class="cls-5" points="112.95 381.33 117.15 388.18 124.96 386.31 119.74 392.42 123.93 399.27 116.51 396.19 111.29 402.3 111.92 394.29 104.5 391.21 112.32 389.34 112.95 381.33"/><polygon class="cls-5" points="79.88 534.81 79.92 539.9 84.78 541.44 79.94 543.06 79.98 548.15 76.95 544.05 72.12 545.67 75.08 541.52 72.05 537.42 76.91 538.96 79.88 534.81"/><polygon class="cls-5" points="73.74 350.39 73.14 355.3 77.62 357.4 72.76 358.34 72.16 363.25 69.76 358.92 64.9 359.86 68.28 356.24 65.88 351.92 70.37 354.01 73.74 350.39"/><polygon class="cls-5" points="42.51 543.53 39.36 547.49 42.16 551.72 37.41 549.94 34.26 553.91 34.48 548.85 29.73 547.08 34.61 545.72 34.83 540.66 37.63 544.88 42.51 543.53"/></g><path class="cls-6" d="M1721.65,427c-17.27,0-11.16-7.37-28.43-7.37S1676,427,1658.69,427s-17.27-7.37-34.53-7.37-17.27,7.37-34.53,7.37-17.27-7.37-34.54-7.37-17.26,7.37-34.52,7.37-17.27-7.37-34.53-7.37-17.27,7.37-34.53,7.37-17.27-7.37-34.53-7.37-17.27,7.37-34.53,7.37-17.27-7.37-34.53-7.37-17.26,7.37-34.53,7.37-17.26-7.37-34.53-7.37S1261.6,427,1244.34,427s-17.27-7.37-34.53-7.37-17.27,7.37-34.53,7.37-17.26-7.37-34.53-7.37-17.26,7.37-34.52,7.37-17.26-7.37-34.53-7.37-17.26,7.37-34.52,7.37-17.27-7.37-34.53-7.37S985.39,427,968.13,427s-17.27-7.37-34.53-7.37S916.34,427,899.08,427s-17.27-7.37-34.53-7.37S847.29,427,830,427s-17.26-7.37-34.53-7.37S778.23,427,761,427s-17.27-7.37-34.53-7.37S709.17,427,691.91,427s-17.26-7.37-34.53-7.37S640.12,427,622.86,427s-17.27-7.37-34.53-7.37S571.07,427,553.8,427s-17.26-7.37-34.52-7.37S502,427,484.75,427s-17.26-7.37-34.52-7.37S433,427,415.7,427s-17.26-7.37-34.53-7.37S363.91,427,346.65,427s-17.27-7.37-34.53-7.37S294.86,427,277.6,427s-17.27-7.37-34.53-7.37S225.81,427,208.54,427s-17.26-7.37-34.52-7.37S156.76,427,139.49,427s-17.26-7.37-34.52-7.37S87.7,427,70.44,427s-17.26-7.37-34.52-7.37S17.69,426,.42,426V616.66h1721Z" transform="translate(-0.42 -0.67)"/><path class="cls-7" d="M1721.38,472.9c-29.21,0-38.9,10.6-68.11,10.6s-29.22-10.6-58.43-10.6-29.21,10.6-58.43,10.6-29.21-10.6-58.42-10.6-29.21,10.6-58.42,10.6-29.22-10.6-58.43-10.6-29.21,10.6-58.42,10.6-29.21-10.6-58.43-10.6-29.21,10.6-58.42,10.6-29.21-10.6-58.42-10.6-29.21,10.6-58.42,10.6-29.21-10.6-58.42-10.6-29.21,10.6-58.42,10.6S923,472.9,893.77,472.9s-29.21,10.6-58.42,10.6-29.21-10.6-58.42-10.6-29.21,10.6-58.42,10.6-29.21-10.6-58.42-10.6-29.21,10.6-58.42,10.6-29.21-10.6-58.42-10.6S514,483.5,484.83,483.5s-29.21-10.6-58.42-10.6S397.19,483.5,368,483.5s-29.21-10.6-58.42-10.6-29.21,10.6-58.42,10.6-29.21-10.6-58.42-10.6-29.21,10.6-58.42,10.6-29.21-10.6-58.42-10.6S30.77,483.5,1.56,483.5l-1,133H1721.65Z" transform="translate(-0.42 -0.67)"/><path class="cls-8" d="M1112.86,420.71q7.94,11.75,8.09,27.92t-7.77,27.92a50.12,50.12,0,0,1-25.7,20.78,63.57,63.57,0,0,1-34.27,2.38q-10.79-1.9-29-10.79t-27.44-11.1a67.24,67.24,0,0,0-13.33-1.91,62.58,62.58,0,0,0-8.88,0h-1.59l-2.85.32.32-.32A58.49,58.49,0,0,0,953.27,481a10.86,10.86,0,0,1-3.8,1.9.88.88,0,0,0-.32.64,10.42,10.42,0,0,1-8.73,1.27,11.88,11.88,0,0,1-7.45-5.4,12.17,12.17,0,0,1-3.81-6.34,61.7,61.7,0,0,1-2.06-14.28,45.13,45.13,0,0,1,1.9-14q2.06-7,4.13-12.53a49.09,49.09,0,0,1,7.29-12.37q5.24-6.82,8.41-10.95a120.45,120.45,0,0,1,10-11q6.81-6.81,9.83-9.67T979,378.83q1-.63,7.14-6.35t7.46-7q1.26-1.26,6.66-6.34t7.14-7q1.74-1.9,6.18-6.51a75,75,0,0,0,6.51-7.45q2.06-2.87,5.23-7a85.77,85.77,0,0,0,5.56-8.09q2.37-4,4.6-8.09a96,96,0,0,0,7-18.09q1.26-4.44,2.22-8.88a34.23,34.23,0,0,1,.95-4.44l.32-2.22a119.49,119.49,0,0,0,.31-19.68c0-.2-.11-1.05-.31-2.53a24.76,24.76,0,0,0-1-4.13,19.43,19.43,0,0,0-1-3.17v-.32l-1-2.85q-7-14.28-23.16-21.26-23.16-10.47-39.34-5.08a43.87,43.87,0,0,0-19.83,12.69,42.08,42.08,0,0,0-10.63,20.63,22.29,22.29,0,0,0,0,10.62c.84,4.13,2.86,6.94,6,8.41a9.83,9.83,0,0,0,6.19.64c2.42-.42,4-1.59,4.6-3.49,1.05-3.6,3.49-5.13,7.29-4.6s5.71,2.59,5.71,6.18q-.31,9.21-7,13.8a20.27,20.27,0,0,1-15.07,3.34,22.44,22.44,0,0,1-13.8-7.3,28.7,28.7,0,0,1-7-17.61A45.35,45.35,0,0,1,940,246.37a68.82,68.82,0,0,1,9.52-17q16.49-21.57,44.41-28.55t51.72,5.71q23.79,12.69,31.41,38.71t1.27,54.25q-9.84,45.06-58.38,90.11-2.85,2.53-12.21,10.94t-15.23,14.28q-5.88,5.87-11.58,11.58A153.78,153.78,0,0,0,968.5,441a98.31,98.31,0,0,1,15.87-.63,109.52,109.52,0,0,1,34.58,7.3,156.08,156.08,0,0,1,15.39,6.82q10,4.92,15.07,7.14a41.49,41.49,0,0,0,23.48,3.33,33.73,33.73,0,0,0,20.93-11.27,24.39,24.39,0,0,0,5.72-10.94,17.25,17.25,0,0,0-1.91-11.9c-2.11-3.81-4.87-5.87-8.25-6.19s-6.45,1.11-9.2,4.29q-4.12,4.44-9.52,1.27t-3.8-8.89a19.16,19.16,0,0,1,8.25-10.78,25,25,0,0,1,13.64-3.81Q1103.35,406.44,1112.86,420.71Z" transform="translate(-0.42 -0.67)"/><path class="cls-8" d="M1425.69,368.68a6.43,6.43,0,0,1,4.76,3.33,8.23,8.23,0,0,1,1.27,6.18c-.43,4.45-3.28,7-8.57,7.62q-37.76,4.76-58.06,10.15a300.43,300.43,0,0,1-14.27,43.78q-11.11,27.3-23.16,46.8a95,95,0,0,1-30.15,30.94A52.58,52.58,0,0,1,1275,526a44.41,44.41,0,0,1-23.8-3.49,41.67,41.67,0,0,1-15.39-13.8,35,35,0,0,1-6.5-18.88q-.94-17.44,18.72-40.29a242.46,242.46,0,0,1,82.17-64.09q7.62-32,5.4-59.65-2.86-34.57-22.21-61.86-18.09-25.38-51.72-37.44a129.52,129.52,0,0,0-47.59-7.94q1.59,14.61,1.9,59.65,0,7,.16,29.19t.16,34.27v63.45q-.32,16.5,0,31.41,0,22.53-1.9,31.09a11,11,0,0,1-6.51,7.46,12.22,12.22,0,0,1-10-.16,11.36,11.36,0,0,1-6.66-7.3q-2.22-8.24-3.18-32-.63-14.91-1-30.46-.94-28.86-1.27-64.72-.32-14,.32-64.73.31-37.11,2.22-54.25a63.6,63.6,0,0,0-14.59,6.35,58.7,58.7,0,0,0-14,11.58q-6,6.83-3.18,13.48a8.33,8.33,0,0,1-1.11,8.09c-1.8,2.65-4,4-6.5,4s-4.65-1.38-6.35-4.13a30.42,30.42,0,0,1-2.85-12.53,26.14,26.14,0,0,1,2.38-11.26,38.54,38.54,0,0,1,6.82-9.84,72.49,72.49,0,0,1,9.52-8.57,84.78,84.78,0,0,1,11.42-7.13q6.35-3.33,11.58-5.71t10.63-4.29a128.92,128.92,0,0,1,43-7.14,153.67,153.67,0,0,1,43,6.51,120.27,120.27,0,0,1,41.09,20.62,127.65,127.65,0,0,1,30.93,34.27q22.85,36.48,22.21,86.61a196,196,0,0,1-2.22,28.87Q1399,364.55,1425.69,368.68Zm-132,102.47q16.17-21.88,28.23-57.74a162.16,162.16,0,0,0-34.9,24.75,151.86,151.86,0,0,0-22.21,24.43c-2.53,3.59-4.07,5.81-4.6,6.66s-1.32,2.17-2.37,4a24.72,24.72,0,0,0-2.23,4.6c-.42,1.27-.84,2.64-1.27,4.12a7.9,7.9,0,0,0-.15,4.13,12.67,12.67,0,0,0,1.42,3.49,14.18,14.18,0,0,0,8.25,2.22,26.34,26.34,0,0,0,7.94-.95Q1282.28,486.69,1293.71,471.15Z" transform="translate(-0.42 -0.67)"/><path class="cls-8" d="M493.62,376.88a4.4,4.4,0,0,1,3.21,2.25,5.55,5.55,0,0,1,.85,4.17c-.28,3-2.21,4.71-5.77,5.14q-25.47,3.21-39.16,6.84a204.24,204.24,0,0,1-9.63,29.53,214.45,214.45,0,0,1-15.62,31.57,64,64,0,0,1-20.33,20.86A35.49,35.49,0,0,1,392,483a30,30,0,0,1-16.05-2.36,28.07,28.07,0,0,1-10.38-9.31,23.68,23.68,0,0,1-4.39-12.73q-.63-11.76,12.63-27.17a163.42,163.42,0,0,1,55.42-43.23q5.13-21.6,3.64-40.22a82.58,82.58,0,0,0-15-41.73Q405.68,289.16,383,281a87.23,87.23,0,0,0-32.1-5.35q1.08,9.84,1.29,40.23,0,4.71.1,19.68t.11,23.11v42.8q-.21,11.13,0,21.18,0,15.19-1.28,21a7.44,7.44,0,0,1-4.39,5,8.25,8.25,0,0,1-6.74-.1,7.71,7.71,0,0,1-4.49-4.93q-1.5-5.55-2.14-21.61-.44-10-.64-20.54-.65-19.47-.86-43.65-.21-9.42.21-43.65.21-25,1.5-36.59a42.61,42.61,0,0,0-9.84,4.28,39.7,39.7,0,0,0-9.42,7.81c-2.71,3.07-3.42,6.09-2.14,9.09a5.6,5.6,0,0,1-.75,5.46,5.24,5.24,0,0,1-4.38,2.67c-1.71,0-3.14-.92-4.28-2.78a20.38,20.38,0,0,1-1.93-8.45,17.69,17.69,0,0,1,1.61-7.6,25.84,25.84,0,0,1,4.6-6.63,47.91,47.91,0,0,1,6.42-5.78,56.28,56.28,0,0,1,7.7-4.81c2.85-1.5,5.46-2.79,7.81-3.86s4.74-2,7.17-2.88a86.79,86.79,0,0,1,29-4.82,103.66,103.66,0,0,1,29,4.39,81.17,81.17,0,0,1,27.71,13.91,86.05,86.05,0,0,1,20.86,23.11q15.4,24.6,15,58.41a131.88,131.88,0,0,1-1.5,19.47A98.65,98.65,0,0,1,493.62,376.88ZM404.6,446q10.92-14.78,19-38.95a109.22,109.22,0,0,0-23.54,16.69,102.35,102.35,0,0,0-15,16.48c-1.71,2.42-2.75,3.92-3.1,4.49s-.9,1.46-1.61,2.68a16.86,16.86,0,0,0-1.49,3.1c-.29.86-.58,1.78-.86,2.78a5.31,5.31,0,0,0-.11,2.78,8.81,8.81,0,0,0,1,2.36,9.52,9.52,0,0,0,5.56,1.5,17.53,17.53,0,0,0,5.35-.65Q396.91,456.49,404.6,446Z" transform="translate(-0.42 -0.67)"/><path class="cls-8" d="M525.28,363.19c2-1.85,4-2,6.1-.43s2.53,3.57,1.39,6a59.6,59.6,0,0,1-5.45,9.2,49.57,49.57,0,0,1-7.17,7.92,34.2,34.2,0,0,1-8.45,5.67,18.9,18.9,0,0,1-9.63,1.61,21.81,21.81,0,0,1-10.38-3.86,24.83,24.83,0,0,1-9.2-10.8,31.92,31.92,0,0,1-3-14.45q.21-4.69,1.5-15.62,1.29-11.12,2.78-15.62a7.38,7.38,0,0,1,4.82-4.81,7.24,7.24,0,0,1,6.52.75,6.61,6.61,0,0,1,3,6q.42,6-1.5,24.18-1.07,11.55,2.78,16.9a7.5,7.5,0,0,0,5.14,3,9.58,9.58,0,0,0,6-1.93,46.11,46.11,0,0,0,5.56-4.28q2.35-2.13,5.35-5.45A42.74,42.74,0,0,1,525.28,363.19Zm-24.6-49.43A7.5,7.5,0,0,1,493.4,318q-5.13,0-7.17-4.28a9.32,9.32,0,0,1,0-8.45q2-4.19,7.17-4.18c3.43,0,5.85,1.39,7.28,4.18A8.91,8.91,0,0,1,500.68,313.76Z" transform="translate(-0.42 -0.67)"/><path class="cls-8" d="M584.34,358.91c2.43-.71,4.1.07,5,2.35a4.25,4.25,0,0,1-1.6,5.57q-1.72,1.07-10.06,4.7c-1.43.57-3.35,1.47-5.78,2.68s-4,2-4.71,2.24q-1.5.65-5,2.25l-5.46,2.46q9,21.61.85,34.24a21.1,21.1,0,0,1-9.09,8.24,14.92,14.92,0,0,1-11.45.75,18.22,18.22,0,0,1-9.31-6.64,21.35,21.35,0,0,1-4.38-10.7q-1.71-14.32,12.2-26.53a2.12,2.12,0,0,1-.43-.86q-3.43-6.63-4.6-9.41c-.79-1.85-1.82-4.6-3.11-8.24a52.18,52.18,0,0,1-2.56-9.95q-2.58-16.47,7.49-26.32,4.27-4.28,11.55-4.92a19.55,19.55,0,0,1,12.41,2.57,18.82,18.82,0,0,1,7.28,7.81,17.72,17.72,0,0,1,1.92,10.38,13,13,0,0,1-5.67,9.3q-4.82,3.33-10.38.11-3.21-2.36-1.81-5.88t5.45-2.68q2.56.65,2.36-2.35a9,9,0,0,0-3-6.21,1.7,1.7,0,0,0-.64-.21q-4.94-2.57-7.49,3.85a14.43,14.43,0,0,0-1,4.81,26.88,26.88,0,0,0,.21,4.93,35.37,35.37,0,0,0,1.28,5.35c.65,2.07,1.18,3.67,1.61,4.81s1.07,2.71,1.92,4.71a3.23,3.23,0,0,1,.43,1.28c.71,1.71,1.78,4.07,3.21,7.06a114,114,0,0,1,14.55-5.77Q583.92,358.9,584.34,358.91Zm-39.58,45.36q.42-3.42-3.43-11.55a1,1,0,0,0-.1-.43.86.86,0,0,1-.11-.43q-6.21,7.06-4.71,13.27,1.07,4.49,4.39,4C543,408.73,544.33,407.13,544.76,404.27Z" transform="translate(-0.42 -0.67)"/><path class="cls-8" d="M645.54,358.69c1.42-1.85,3.28-2.1,5.56-.74s3,3.1,2.14,5.24a49.71,49.71,0,0,1-14.34,19.36,45.83,45.83,0,0,1-21.39,10.17q-12.19,1.92-19.69-.64a32.26,32.26,0,0,1-17.33-15.41,45.38,45.38,0,0,1-4.6-16.69,42.17,42.17,0,0,1,2.35-17.76,27.29,27.29,0,0,1,10.17-13.7q10.7-7.49,21.39-4.7,11.13,3,10.92,16.47a29.19,29.19,0,0,1-6.1,18.51,26,26,0,0,1-16.16,9.74,11.88,11.88,0,0,0,7.81,6.1,38.48,38.48,0,0,0,12.09.53q7.92-.85,12.2-3.85Q641.68,363.4,645.54,358.69Zm-39.8-21a14.84,14.84,0,0,0-8.78,9.1,26,26,0,0,0-1.28,14q9.2-3,13.27-10.69a15.65,15.65,0,0,0,2.14-9.85c-.15-1.85-.64-3-1.5-3.31S607.45,336.87,605.74,337.72Z" transform="translate(-0.42 -0.67)"/><path class="cls-8" d="M727.28,356.77q1.92-2.36,5.13-.54c2.14,1.22,2.85,2.82,2.14,4.82q-2.56,6.42-3.74,9t-4,7.59a36.93,36.93,0,0,1-6,8.24,26.07,26.07,0,0,1-7.28,5.14q-9.63,4.49-18.62-.11t-10.69-15.09a48,48,0,0,1-.65-5.24,37,37,0,0,1-.1-4.81c.07-1.29.14-3.07.21-5.35s.11-3.93.11-4.93a58.48,58.48,0,0,0,.1-9.52,22.64,22.64,0,0,0-2.24-9.31,8.05,8.05,0,0,0-4.17-3.85,7.21,7.21,0,0,0-5,.11,12.93,12.93,0,0,0-4.93,3.53,24,24,0,0,0-7.27,11.77c.14,3.42.28,5.78.43,7.06.14,2,.43,5.17.85,9.52s.75,8.24,1,11.66a89.46,89.46,0,0,1,.1,9.63,7.6,7.6,0,0,1-3.53,6.42,8,8,0,0,1-7.06,1,6.93,6.93,0,0,1-4.81-5.25q-2.57-9.41-3.43-32.09-.86-20.76,1.93-31.67c.57-2.85,2.49-4.28,5.78-4.28s5.27,1.43,6,4.28q.42,2.57,1.07,6A31.79,31.79,0,0,1,669.07,323q9.63-3.85,17.76,1.07a26.94,26.94,0,0,1,11.56,14.76q2.57,7.5,2.57,21.62c0,.28-.08,1.42-.22,3.42s-.21,3.67-.21,5a15.49,15.49,0,0,0,.64,4.28,5.28,5.28,0,0,0,1.93,3.1q4.27,3.21,12.62-4.92a57,57,0,0,0,3.85-4.28c1.29-1.57,2.71-3.42,4.28-5.56S726.56,357.77,727.28,356.77Z" transform="translate(-0.42 -0.67)"/><path class="cls-8" d="M801.74,335.8q3.42-2.78,6.42.11t.21,6.31q-6.86,7.92-21.61,12.19a44,44,0,0,1-11.34,25.68,31.52,31.52,0,0,1-19.58,10.27,34.72,34.72,0,0,1-22.25-4,27.77,27.77,0,0,1-13.81-17q-3.21-10,1.4-22.14a44.67,44.67,0,0,1,14-19.58,19.16,19.16,0,0,1,11.56-8.88,29.94,29.94,0,0,1,15.62-.75A28.78,28.78,0,0,1,778,326.92a32.18,32.18,0,0,1,8.13,16.37l.21.21A45.91,45.91,0,0,0,801.74,335.8Zm-52.85,37.66q9.2,1.28,15.4-7.28a24.1,24.1,0,0,0,3.64-7.7,38.84,38.84,0,0,1-22-3.85,24.31,24.31,0,0,1-7.92-6.21,38.66,38.66,0,0,0-2.35,8.78,24.4,24.4,0,0,0,0,4.7,5.29,5.29,0,0,0,.43,2.36,15.59,15.59,0,0,0,5.13,6.1A17.44,17.44,0,0,0,748.89,373.46Zm6.41-40.66c-3.85-.42-6.34.43-7.48,2.57-.43,1,0,2.14,1.28,3.42q3.21,3.65,13.48,6.21a27.5,27.5,0,0,0,6.21.64Q766.65,333.66,755.3,332.8Z" transform="translate(-0.42 -0.67)"/><path class="cls-8" d="M861.22,358.91c2.43-.71,4.1.07,5,2.35a4.25,4.25,0,0,1-1.6,5.57q-1.73,1.07-10.06,4.7c-1.43.57-3.35,1.47-5.78,2.68s-4,2-4.7,2.24q-1.5.65-5,2.25l-5.46,2.46q9,21.61.86,34.24a21.18,21.18,0,0,1-9.1,8.24,14.92,14.92,0,0,1-11.45.75,18.16,18.16,0,0,1-9.3-6.64,21.28,21.28,0,0,1-4.39-10.7q-1.71-14.32,12.2-26.53a2.12,2.12,0,0,1-.43-.86q-3.42-6.63-4.6-9.41t-3.1-8.24a52.27,52.27,0,0,1-2.57-9.95q-2.57-16.47,7.49-26.32,4.28-4.28,11.55-4.92a19.55,19.55,0,0,1,12.41,2.57,18.75,18.75,0,0,1,7.28,7.81,17.72,17.72,0,0,1,1.92,10.38,13,13,0,0,1-5.67,9.3q-4.82,3.33-10.37.11-3.21-2.36-1.82-5.88t5.45-2.68q2.57.65,2.36-2.35a9,9,0,0,0-3-6.21,1.7,1.7,0,0,0-.64-.21q-4.92-2.57-7.49,3.85a14.43,14.43,0,0,0-1,4.81,26.88,26.88,0,0,0,.21,4.93,36.63,36.63,0,0,0,1.28,5.35c.65,2.07,1.18,3.67,1.61,4.81s1.07,2.71,1.93,4.71a3.34,3.34,0,0,1,.42,1.28c.72,1.71,1.79,4.07,3.21,7.06a114,114,0,0,1,14.55-5.77Q860.8,358.9,861.22,358.91Zm-39.58,45.36q.42-3.42-3.43-11.55a1,1,0,0,0-.1-.43.86.86,0,0,1-.11-.43q-6.21,7.06-4.71,13.27c.71,3,2.18,4.31,4.39,4S821.21,407.13,821.64,404.27Z" transform="translate(-0.42 -0.67)"/><path class="cls-8" d="M642,304.87c1.82-6.27,7.59-8.52,12.58-9a33.59,33.59,0,0,1,14.19,1.85l1.42.46,1.25.42c.84.33,1.66.44,2.49.69s1.63.3,2.45.47a18.94,18.94,0,0,0,2.35.16,12.29,12.29,0,0,0,4.37-.67,10.17,10.17,0,0,0,1.93-.95,9.1,9.1,0,0,0,.87-.62c.13-.11.28-.22.39-.33l.18-.15s.12-.13.1,0a3,3,0,0,1,5.53,2.56l-.26.63c-.08.19-.15.33-.23.49-.16.33-.33.61-.51.91a11.29,11.29,0,0,1-1.18,1.63,15.65,15.65,0,0,1-2.94,2.69,18,18,0,0,1-7.21,2.89,26.45,26.45,0,0,1-3.73.42c-1.2,0-2.44,0-3.62-.14s-2.38-.25-3.48-.52l-3.22-.73a29,29,0,0,0-9.88-.87c-3,.48-5.39,1.34-8.91,1.32h-2.25a2.8,2.8,0,0,1-2.79-2.82A2.74,2.74,0,0,1,642,304.87Z" transform="translate(-0.42 -0.67)"/></g></g></g></svg>