<svg xmlns="http://www.w3.org/2000/svg" xmlns:xlink="http://www.w3.org/1999/xlink" viewBox="0 0 1723.07 616"><defs><style>.cls-1{fill:none;}.cls-2{clip-path:url(#clip-path);}.cls-3{fill:url(#Degradado_sin_nombre_18);}.cls-4{opacity:0.74;}.cls-5{fill:#fffcbc;}.cls-6{fill:#408860;}.cls-7{fill:#33561f;}.cls-8{font-size:317.27px;}.cls-10,.cls-8,.cls-9{fill:#fff;}.cls-8,.cls-9{font-family:RaileyPersonalUseRegular, Railey-PersonalUse;}.cls-9{font-size:213.98px;}</style><clipPath id="clip-path" transform="translate(-0.42 -0.67)"><polygon class="cls-1" points="1722 617 0 617 0 0 1723.49 0.67 1722 617"/></clipPath><linearGradient id="Degradado_sin_nombre_18" x1="862.57" y1="616" x2="862.57" gradientUnits="userSpaceOnUse"><stop offset="0" stop-color="#d7acff"/><stop offset="1" stop-color="#174a8a"/></linearGradient></defs><g id="Capa_2" data-name="Capa 2"><g id="Capa_2-2" data-name="Capa 2"><g class="cls-2"><rect class="cls-3" x="2.07" width="1721" height="616"/><g class="cls-4"><polygon class="cls-5" points="1704.94 175.78 1704.14 179.58 1707.51 181.52 1703.65 181.93 1702.85 185.74 1701.26 182.19 1697.39 182.6 1700.28 180 1698.69 176.45 1702.06 178.39 1704.94 175.78"/><polygon class="cls-5" points="1645.97 91.09 1646.65 97.61 1653.06 98.98 1647.08 101.64 1647.76 108.16 1643.38 103.28 1637.39 105.95 1640.67 100.27 1636.28 95.4 1642.69 96.77 1645.97 91.09"/><polygon class="cls-5" points="1565.05 73.3 1562.85 75.61 1564.37 78.41 1561.49 77.04 1559.29 79.35 1559.71 76.19 1556.84 74.81 1559.97 74.23 1560.39 71.07 1561.91 73.88 1565.05 73.3"/><polygon class="cls-5" points="1554.85 188.01 1553.08 190.97 1555.34 193.56 1551.99 192.79 1550.22 195.75 1549.91 192.32 1546.56 191.55 1549.72 190.2 1549.42 186.77 1551.68 189.36 1554.85 188.01"/><polygon class="cls-5" points="1503.27 156.37 1500.39 161.04 1503.95 165.22 1498.62 163.93 1495.74 168.6 1495.32 163.13 1489.99 161.84 1495.06 159.75 1494.64 154.28 1498.2 158.46 1503.27 156.37"/><polygon class="cls-5" points="1464.49 218.39 1469.82 222 1474.9 218.05 1473.11 224.23 1478.44 227.84 1472.01 228.05 1470.22 234.24 1468.03 228.18 1461.6 228.4 1466.68 224.44 1464.49 218.39"/><polygon class="cls-5" points="1441.52 231.79 1438.56 233.19 1438.97 236.45 1436.72 234.06 1433.76 235.46 1435.33 232.59 1433.09 230.2 1436.31 230.81 1437.88 227.93 1438.3 231.19 1441.52 231.79"/><polygon class="cls-5" points="1335.3 103.93 1344.31 103.02 1346.24 94.17 1349.89 102.47 1358.9 101.56 1352.14 107.59 1355.79 115.89 1347.96 111.32 1341.2 117.36 1343.12 108.5 1335.3 103.93"/><polygon class="cls-5" points="1278.45 149.46 1282.85 148.25 1283.06 143.69 1285.57 147.51 1289.97 146.3 1287.12 149.86 1289.63 153.68 1285.36 152.07 1282.5 155.63 1282.72 151.07 1278.45 149.46"/><polygon class="cls-5" points="1208.24 277.5 1211.85 278.38 1213.8 275.22 1214.08 278.92 1217.69 279.8 1214.26 281.21 1214.54 284.91 1212.13 282.08 1208.7 283.49 1210.65 280.33 1208.24 277.5"/><polygon class="cls-5" points="1168.47 166.19 1172.89 169.5 1177.4 166.32 1175.62 171.55 1180.04 174.86 1174.52 174.78 1172.74 180.01 1171.11 174.73 1165.58 174.65 1170.1 171.47 1168.47 166.19"/><polygon class="cls-5" points="1099.86 156.94 1096.35 160.06 1098.23 164.35 1094.18 161.98 1090.68 165.1 1091.68 160.52 1087.63 158.15 1092.3 157.69 1093.3 153.1 1095.19 157.4 1099.86 156.94"/><polygon class="cls-5" points="1057.66 226.82 1060.28 232.58 1066.57 231.87 1061.9 236.15 1064.53 241.91 1059.02 238.79 1054.35 243.07 1055.61 236.86 1050.1 233.74 1056.39 233.03 1057.66 226.82"/><polygon class="cls-5" points="978.6 113.65 976.56 115.91 978.08 118.54 975.3 117.31 973.27 119.57 973.59 116.54 970.81 115.31 973.78 114.67 974.1 111.65 975.62 114.28 978.6 113.65"/><polygon class="cls-5" points="952.84 180.13 950.77 184.74 954.51 188.14 949.48 187.59 947.4 192.2 946.38 187.25 941.35 186.7 945.74 184.19 944.71 179.24 948.45 182.64 952.84 180.13"/><polygon class="cls-5" points="921.48 172.34 925.43 178.35 932.38 176.45 927.88 182.07 931.83 188.09 925.1 185.54 920.6 191.16 920.93 183.97 914.2 181.43 921.14 179.53 921.48 172.34"/><polygon class="cls-5" points="899.93 129.51 899.4 133.44 902.97 135.15 899.07 135.87 898.55 139.79 896.66 136.31 892.77 137.02 895.5 134.15 893.62 130.66 897.19 132.38 899.93 129.51"/><polygon class="cls-5" points="870.45 107.38 866.91 115.14 873.19 120.91 864.72 119.93 861.18 127.69 859.49 119.33 851.01 118.36 858.44 114.17 856.75 105.81 863.03 111.57 870.45 107.38"/><polygon class="cls-5" points="800.41 300.65 804.8 301.05 806.54 297 807.51 301.3 811.9 301.7 808.12 303.95 809.09 308.25 805.77 305.35 801.99 307.6 803.73 303.55 800.41 300.65"/><polygon class="cls-5" points="718.64 284.21 725.96 284.44 728.44 277.56 730.48 284.59 737.79 284.83 731.74 288.94 733.77 295.97 727.99 291.47 721.93 295.58 724.42 288.7 718.64 284.21"/><polygon class="cls-5" points="694.27 221.87 700.33 227.91 707.96 224.02 704.08 231.65 710.15 237.71 701.68 236.37 697.8 244.01 696.45 235.55 687.99 234.22 695.62 230.32 694.27 221.87"/><polygon class="cls-5" points="687.57 126.82 684.96 127.97 685.24 130.81 683.34 128.68 680.73 129.83 682.17 127.37 680.26 125.23 683.05 125.84 684.5 123.37 684.78 126.22 687.57 126.82"/><polygon class="cls-5" points="627.73 156.66 630.4 159.3 633.74 157.58 632.05 160.93 634.72 163.58 631 163.01 629.32 166.36 628.71 162.66 625 162.09 628.34 160.37 627.73 156.66"/><polygon class="cls-5" points="604.33 191.42 610.92 192.36 613.85 186.38 614.99 192.94 621.58 193.87 615.7 196.99 616.85 203.54 612.07 198.91 606.19 202.03 609.11 196.05 604.33 191.42"/><polygon class="cls-5" points="566.54 115.29 569.43 118.54 573.41 116.81 571.21 120.55 574.09 123.81 569.85 122.87 567.64 126.61 567.22 122.29 562.98 121.35 566.96 119.61 566.54 115.29"/><polygon class="cls-5" points="545.2 193.56 543.31 196.29 545.33 198.93 542.15 197.98 540.26 200.71 540.18 197.39 537 196.44 540.13 195.34 540.05 192.02 542.07 194.66 545.2 193.56"/><polygon class="cls-5" points="487.83 192.27 495.69 194.08 499.84 187.16 500.55 195.19 508.41 197 500.99 200.16 501.7 208.2 496.4 202.11 488.98 205.27 493.13 198.35 487.83 192.27"/><polygon class="cls-5" points="413.6 119.39 419.4 121.94 423.61 117.21 422.98 123.51 428.78 126.06 422.59 127.41 421.96 133.71 418.77 128.24 412.58 129.59 416.79 124.86 413.6 119.39"/><polygon class="cls-5" points="298.65 244.15 305.61 248.56 311.96 243.3 309.91 251.29 316.87 255.7 308.65 256.22 306.6 264.21 303.56 256.54 295.34 257.07 301.69 251.81 298.65 244.15"/><polygon class="cls-5" points="284.88 330.85 283.96 336.93 289.46 339.68 283.39 340.69 282.47 346.76 279.64 341.31 273.58 342.31 277.9 337.93 275.07 332.48 280.56 335.23 284.88 330.85"/><polygon class="cls-5" points="224.88 145.73 226.16 149.07 229.73 148.88 226.95 151.13 228.23 154.46 225.24 152.52 222.46 154.77 223.38 151.32 220.39 149.37 223.95 149.18 224.88 145.73"/><polygon class="cls-5" points="153.59 235.32 154.99 239.02 158.95 238.83 155.86 241.31 157.27 245.01 153.95 242.84 150.87 245.32 151.91 241.5 148.59 239.33 152.55 239.14 153.59 235.32"/><polygon class="cls-5" points="110.57 153.57 118 155.68 122.3 149.27 122.59 156.99 130.02 159.1 122.77 161.76 123.06 169.47 118.29 163.4 111.04 166.06 115.34 159.65 110.57 153.57"/><polygon class="cls-5" points="44.89 244.41 52.8 248.59 59.23 242.35 57.7 251.17 65.62 255.35 56.76 256.62 55.23 265.44 51.28 257.41 42.42 258.68 48.84 252.44 44.89 244.41"/><polygon class="cls-5" points="55.66 317.07 59.02 322.2 64.93 320.6 61.09 325.37 64.44 330.5 58.71 328.32 54.87 333.09 55.17 326.97 49.45 324.79 55.36 323.19 55.66 317.07"/><polygon class="cls-5" points="49.75 345.43 52.02 351.54 58.53 351.28 53.41 355.32 55.68 361.43 50.25 357.81 45.14 361.86 46.9 355.58 41.48 351.96 47.99 351.7 49.75 345.43"/><polygon class="cls-5" points="1614.61 78.11 1613.85 82.21 1617.51 84.19 1613.38 84.74 1612.62 88.83 1610.83 85.07 1606.7 85.62 1609.72 82.75 1607.93 78.99 1611.59 80.98 1614.61 78.11"/><polygon class="cls-5" points="1530.84 141.42 1532.83 144.49 1536.37 143.55 1534.05 146.4 1536.04 149.48 1532.62 148.15 1530.31 151 1530.51 147.34 1527.09 146.02 1530.63 145.07 1530.84 141.42"/><polygon class="cls-5" points="1404.11 117.14 1404.68 120.86 1408.38 121.47 1405.03 123.15 1405.59 126.87 1402.95 124.19 1399.59 125.88 1401.32 122.54 1398.68 119.87 1402.39 120.48 1404.11 117.14"/><polygon class="cls-5" points="1365.66 123.51 1367.09 130.75 1374.42 131.63 1367.98 135.22 1369.41 142.47 1363.99 137.45 1357.55 141.05 1360.65 134.35 1355.23 129.33 1362.56 130.21 1365.66 123.51"/><polygon class="cls-5" points="1299.32 19.98 1292.82 25.93 1296.46 33.95 1288.8 29.61 1282.29 35.55 1284.06 26.92 1276.39 22.57 1285.15 21.58 1286.92 12.95 1290.56 20.97 1299.32 19.98"/><polygon class="cls-5" points="1273.66 81.96 1275.49 86.64 1280.51 86.33 1276.63 89.52 1278.47 94.2 1274.23 91.5 1270.35 94.69 1271.62 89.83 1267.38 87.13 1272.4 86.82 1273.66 81.96"/><polygon class="cls-5" points="1257.08 123.64 1256.57 131.93 1264.3 134.98 1256.26 137.06 1255.75 145.35 1251.28 138.34 1243.24 140.43 1248.53 134.01 1244.06 127.01 1251.79 130.05 1257.08 123.64"/><polygon class="cls-5" points="1165.9 102.2 1173.88 102.58 1176.71 95.11 1178.82 102.82 1186.8 103.2 1180.11 107.58 1182.21 115.29 1175.98 110.29 1169.3 114.67 1172.13 107.2 1165.9 102.2"/><polygon class="cls-5" points="1148.44 27.07 1154.18 25.85 1154.8 20 1157.73 25.09 1163.48 23.87 1159.55 28.23 1162.49 33.32 1157.12 30.93 1153.19 35.3 1153.81 29.46 1148.44 27.07"/><polygon class="cls-5" points="1127.62 18.11 1128.77 24.85 1135.54 25.85 1129.48 29.02 1130.62 35.77 1125.73 30.98 1119.67 34.16 1122.71 28.03 1117.82 23.25 1124.58 24.24 1127.62 18.11"/><polygon class="cls-5" points="1054.02 142.71 1051.52 145.31 1053.21 148.49 1049.97 146.91 1047.46 149.5 1047.97 145.93 1044.73 144.35 1048.28 143.72 1048.78 140.16 1050.47 143.34 1054.02 142.71"/><polygon class="cls-5" points="990.6 121.72 998.76 120.29 999.91 112.08 1003.8 119.4 1011.96 117.97 1006.2 123.92 1010.08 131.24 1002.64 127.6 996.88 133.56 998.04 125.36 990.6 121.72"/><polygon class="cls-5" points="943.25 60.95 942.03 63.51 944.09 65.47 941.27 65.1 940.05 67.66 939.53 64.87 936.72 64.5 939.21 63.15 938.69 60.35 940.75 62.31 943.25 60.95"/><polygon class="cls-5" points="796.98 29.48 802.22 34.62 808.73 31.21 805.47 37.79 810.71 42.92 803.45 41.85 800.19 48.43 798.96 41.19 791.7 40.12 798.2 36.72 796.98 29.48"/><polygon class="cls-5" points="784 138.38 783.23 145.51 789.77 148.45 782.75 149.91 781.98 157.04 778.41 150.82 771.39 152.28 776.21 146.97 772.65 140.75 779.19 143.69 784 138.38"/><polygon class="cls-5" points="766.34 11.08 760.3 14.95 762.12 21.89 756.57 17.34 750.53 21.21 753.14 14.53 747.6 9.99 754.76 10.4 757.36 3.72 759.18 10.66 766.34 11.08"/><polygon class="cls-5" points="726.8 43.3 722.36 50.37 727.72 56.78 719.62 54.74 715.18 61.81 714.62 53.48 706.52 51.45 714.27 48.33 713.7 40.01 719.06 46.41 726.8 43.3"/><polygon class="cls-5" points="679.04 84.71 684.92 84.84 686.87 79.29 688.55 84.93 694.44 85.06 689.6 88.41 691.29 94.05 686.61 90.48 681.77 93.83 683.72 88.28 679.04 84.71"/><polygon class="cls-5" points="619.74 27.33 618.8 31.17 622.16 33.25 618.22 33.54 617.27 37.38 615.78 33.72 611.84 34.01 614.86 31.46 613.37 27.8 616.73 29.88 619.74 27.33"/><polygon class="cls-5" points="524.75 80.51 523.66 83.25 525.93 85.13 522.99 84.94 521.9 87.69 521.17 84.83 518.22 84.64 520.72 83.06 519.99 80.2 522.26 82.08 524.75 80.51"/><polygon class="cls-5" points="486.85 118.65 494.27 119.56 497.43 112.79 498.85 120.13 506.27 121.04 499.73 124.66 501.15 132 495.69 126.9 489.15 130.52 492.31 123.75 486.85 118.65"/><polygon class="cls-5" points="433.37 5.91 437.44 13.35 445.78 11.77 439.96 17.95 444.04 25.4 436.37 21.77 430.55 27.95 431.62 19.53 423.95 15.9 432.29 14.33 433.37 5.91"/><polygon class="cls-5" points="364.45 19.58 366.75 21.11 368.92 19.39 368.18 22.05 370.49 23.59 367.72 23.7 366.98 26.37 366.01 23.77 363.25 23.89 365.41 22.17 364.45 19.58"/><polygon class="cls-5" points="320.68 98.57 320.36 103.68 325.12 105.57 320.16 106.84 319.83 111.95 317.09 107.62 312.13 108.9 315.4 104.95 312.66 100.63 317.42 102.52 320.68 98.57"/><polygon class="cls-5" points="239.48 150.87 245.33 150.06 246.36 144.24 248.95 149.55 254.8 148.74 250.54 152.83 253.13 158.15 247.91 155.37 243.66 159.47 244.69 153.65 239.48 150.87"/><polygon class="cls-5" points="191.51 49.95 198.58 51.41 202.16 45.14 202.95 52.31 210.02 53.77 203.45 56.75 204.25 63.92 199.38 58.59 192.81 61.56 196.38 55.29 191.51 49.95"/><polygon class="cls-5" points="156.36 67.02 162.47 70.69 167.85 66 166.25 72.95 172.37 76.63 165.26 77.25 163.66 84.2 160.87 77.64 153.77 78.26 159.15 73.58 156.36 67.02"/><polygon class="cls-5" points="111.43 80.81 116.53 83.81 120.96 79.88 119.69 85.66 124.79 88.66 118.9 89.23 117.62 95.01 115.26 89.58 109.37 90.16 113.8 86.23 111.43 80.81"/><polygon class="cls-5" points="106.24 145.47 106.58 148.81 109.85 149.52 106.78 150.87 107.11 154.21 104.89 151.7 101.81 153.05 103.51 150.16 101.28 147.66 104.55 148.37 106.24 145.47"/><polygon class="cls-5" points="36.81 112.03 40.13 113.38 42.44 110.64 42.19 114.22 45.51 115.56 42.03 116.42 41.77 120 39.88 116.96 36.4 117.82 38.71 115.08 36.81 112.03"/><polygon class="cls-5" points="1708.34 422.17 1712.63 425.88 1717.48 422.95 1715.27 428.17 1719.56 431.89 1713.91 431.4 1711.71 436.63 1710.42 431.1 1704.77 430.62 1709.62 427.69 1708.34 422.17"/><polygon class="cls-5" points="1654.59 374.68 1661.84 373.55 1663.01 366.31 1666.32 372.86 1673.56 371.73 1668.36 376.9 1671.67 383.45 1665.15 380.1 1659.94 385.27 1661.11 378.03 1654.59 374.68"/><polygon class="cls-5" points="1602.17 548.92 1604.45 553.1 1609.13 552.23 1605.86 555.68 1608.14 559.87 1603.84 557.82 1600.56 561.28 1601.18 556.56 1596.87 554.51 1601.56 553.64 1602.17 548.92"/><polygon class="cls-5" points="1585.32 537.95 1594.32 536.64 1595.86 527.67 1599.88 535.83 1608.88 534.52 1602.37 540.87 1606.39 549.03 1598.34 544.79 1591.83 551.14 1593.37 542.18 1585.32 537.95"/><polygon class="cls-5" points="1517.48 506.94 1526.02 507.52 1529.21 499.57 1531.3 507.88 1539.85 508.45 1532.59 513.01 1534.68 521.32 1528.11 515.83 1520.86 520.38 1524.05 512.43 1517.48 506.94"/><polygon class="cls-5" points="1446.87 430.64 1452.99 429.08 1453.4 422.78 1456.77 428.12 1462.88 426.56 1458.85 431.42 1462.22 436.76 1456.36 434.42 1452.32 439.27 1452.73 432.97 1446.87 430.64"/><polygon class="cls-5" points="1372.5 433.1 1373.65 436.46 1377.21 436.41 1374.37 438.55 1375.52 441.92 1372.61 439.87 1369.76 442.01 1370.81 438.6 1367.89 436.56 1371.45 436.5 1372.5 433.1"/><polygon class="cls-5" points="1295.11 425.19 1292.7 429.46 1296.01 433.07 1291.21 432.1 1288.8 436.36 1288.24 431.49 1283.44 430.52 1287.9 428.49 1287.34 423.62 1290.65 427.23 1295.11 425.19"/><polygon class="cls-5" points="1268.73 554.81 1267.14 558.56 1270.22 561.23 1266.16 560.87 1264.57 564.62 1263.66 560.65 1259.6 560.3 1263.09 558.2 1262.17 554.24 1265.25 556.91 1268.73 554.81"/><polygon class="cls-5" points="1212.66 431.76 1217.74 435 1222.38 431.18 1220.87 437 1225.94 440.23 1219.94 440.6 1218.43 446.42 1216.23 440.82 1210.22 441.19 1214.87 437.36 1212.66 431.76"/><polygon class="cls-5" points="1187.36 539.42 1185.73 547.07 1192.5 550.98 1184.72 551.79 1183.09 559.44 1179.91 552.29 1172.14 553.11 1177.95 547.88 1174.77 540.74 1181.54 544.65 1187.36 539.42"/><polygon class="cls-5" points="1119.64 386.9 1126.24 385.65 1127.09 378.99 1130.32 384.88 1136.92 383.64 1132.31 388.53 1135.54 394.42 1129.46 391.55 1124.86 396.44 1125.71 389.77 1119.64 386.9"/><polygon class="cls-5" points="1056.92 431.09 1058.44 433.42 1061.13 432.69 1059.38 434.86 1060.91 437.19 1058.31 436.2 1056.56 438.37 1056.7 435.59 1054.09 434.6 1056.78 433.87 1056.92 431.09"/><polygon class="cls-5" points="1005.5 430.56 1006.88 436.43 1012.89 436.93 1007.73 440.05 1009.11 445.92 1004.55 441.99 999.39 445.11 1001.72 439.55 997.16 435.62 1003.17 436.12 1005.5 430.56"/><polygon class="cls-5" points="938.5 376.25 941.81 381.1 947.45 379.45 943.86 384.1 947.17 388.95 941.64 386.97 938.04 391.62 938.22 385.75 932.69 383.77 938.33 382.12 938.5 376.25"/><polygon class="cls-5" points="908.29 382.67 900.71 386.6 902.11 395.03 896.02 389.03 888.44 392.97 892.26 385.33 886.17 379.33 894.63 380.6 898.45 372.96 899.85 381.39 908.29 382.67"/><polygon class="cls-5" points="819.1 515.99 821.6 521.86 827.95 521.3 823.14 525.49 825.63 531.36 820.16 528.07 815.35 532.26 816.79 526.04 811.32 522.76 817.67 522.2 819.1 515.99"/><polygon class="cls-5" points="793.52 481.38 794.72 484.87 798.41 484.81 795.46 487.03 796.66 490.52 793.64 488.4 790.69 490.63 791.77 487.1 788.74 484.98 792.44 484.91 793.52 481.38"/><polygon class="cls-5" points="695.54 538.83 690.71 544.59 694.69 550.97 687.72 548.15 682.88 553.91 683.41 546.4 676.44 543.59 683.73 541.77 684.26 534.27 688.24 540.64 695.54 538.83"/><polygon class="cls-5" points="542.34 492.09 551.26 493.28 555.15 485.16 556.77 494.01 565.69 495.2 557.78 499.48 559.4 508.33 552.89 502.13 544.97 506.41 548.86 498.3 542.34 492.09"/><polygon class="cls-5" points="530.99 520.37 538.46 525.7 545.83 520.25 543.07 528.99 550.54 534.32 541.36 534.4 538.6 543.15 535.69 534.45 526.52 534.52 533.9 529.07 530.99 520.37"/><polygon class="cls-5" points="488.43 504.61 488.69 508.94 492.89 510.04 488.85 511.62 489.1 515.96 486.35 512.6 482.3 514.18 484.64 510.53 481.89 507.17 486.09 508.27 488.43 504.61"/><polygon class="cls-5" points="427.62 519.23 426.6 527.62 434.26 531.19 425.96 532.81 424.94 541.21 420.83 533.81 412.53 535.44 418.3 529.25 414.19 521.85 421.86 525.42 427.62 519.23"/><polygon class="cls-5" points="301.55 399.88 302.41 403.32 305.95 403.56 302.94 405.44 303.81 408.88 301.09 406.61 298.09 408.49 299.41 405.2 296.69 402.93 300.23 403.17 301.55 399.88"/><polygon class="cls-5" points="275.43 477.93 272.83 483.43 277.26 487.6 271.23 486.83 268.63 492.32 267.5 486.35 261.46 485.57 266.8 482.65 265.67 476.68 270.1 480.85 275.43 477.93"/><polygon class="cls-5" points="252.27 498.78 248.4 500.39 248.74 504.58 246.01 501.39 242.14 503.01 244.32 499.43 241.58 496.24 245.67 497.21 247.85 493.63 248.19 497.81 252.27 498.78"/><polygon class="cls-5" points="169.63 536.88 172.42 536.98 173.38 534.35 174.14 537.04 176.94 537.14 174.62 538.7 175.38 541.39 173.18 539.66 170.87 541.22 171.82 538.6 169.63 536.88"/><polygon class="cls-5" points="112.95 381.33 117.15 388.18 124.96 386.31 119.74 392.42 123.93 399.27 116.51 396.19 111.29 402.3 111.92 394.29 104.5 391.21 112.32 389.34 112.95 381.33"/><polygon class="cls-5" points="79.88 534.81 79.92 539.9 84.78 541.44 79.94 543.06 79.98 548.15 76.95 544.05 72.12 545.67 75.08 541.52 72.05 537.42 76.91 538.96 79.88 534.81"/><polygon class="cls-5" points="73.74 350.39 73.14 355.3 77.62 357.4 72.76 358.34 72.16 363.25 69.76 358.92 64.9 359.86 68.28 356.24 65.88 351.92 70.37 354.01 73.74 350.39"/><polygon class="cls-5" points="42.51 543.53 39.36 547.49 42.16 551.72 37.41 549.94 34.26 553.91 34.48 548.85 29.73 547.08 34.61 545.72 34.83 540.66 37.63 544.88 42.51 543.53"/></g><path class="cls-6" d="M1721.65,427c-17.27,0-11.16-7.37-28.43-7.37S1676,427,1658.69,427s-17.27-7.37-34.53-7.37-17.27,7.37-34.53,7.37-17.27-7.37-34.54-7.37-17.26,7.37-34.52,7.37-17.27-7.37-34.53-7.37-17.27,7.37-34.53,7.37-17.27-7.37-34.53-7.37-17.27,7.37-34.53,7.37-17.27-7.37-34.53-7.37-17.26,7.37-34.53,7.37-17.26-7.37-34.53-7.37S1261.6,427,1244.34,427s-17.27-7.37-34.53-7.37-17.27,7.37-34.53,7.37-17.26-7.37-34.53-7.37-17.26,7.37-34.52,7.37-17.26-7.37-34.53-7.37-17.26,7.37-34.52,7.37-17.27-7.37-34.53-7.37S985.39,427,968.13,427s-17.27-7.37-34.53-7.37S916.34,427,899.08,427s-17.27-7.37-34.53-7.37S847.29,427,830,427s-17.26-7.37-34.53-7.37S778.23,427,761,427s-17.27-7.37-34.53-7.37S709.17,427,691.91,427s-17.26-7.37-34.53-7.37S640.12,427,622.86,427s-17.27-7.37-34.53-7.37S571.07,427,553.8,427s-17.26-7.37-34.52-7.37S502,427,484.75,427s-17.26-7.37-34.52-7.37S433,427,415.7,427s-17.26-7.37-34.53-7.37S363.91,427,346.65,427s-17.27-7.37-34.53-7.37S294.86,427,277.6,427s-17.27-7.37-34.53-7.37S225.81,427,208.54,427s-17.26-7.37-34.52-7.37S156.76,427,139.49,427s-17.26-7.37-34.52-7.37S87.7,427,70.44,427s-17.26-7.37-34.52-7.37S17.69,426,.42,426V616.66h1721Z" transform="translate(-0.42 -0.67)"/><path class="cls-7" d="M1721.38,472.9c-29.21,0-38.9,10.6-68.11,10.6s-29.22-10.6-58.43-10.6-29.21,10.6-58.43,10.6-29.21-10.6-58.42-10.6-29.21,10.6-58.42,10.6-29.22-10.6-58.43-10.6-29.21,10.6-58.42,10.6-29.21-10.6-58.43-10.6-29.21,10.6-58.42,10.6-29.21-10.6-58.42-10.6-29.21,10.6-58.42,10.6-29.21-10.6-58.42-10.6-29.21,10.6-58.42,10.6S923,472.9,893.77,472.9s-29.21,10.6-58.42,10.6-29.21-10.6-58.42-10.6-29.21,10.6-58.42,10.6-29.21-10.6-58.42-10.6-29.21,10.6-58.42,10.6-29.21-10.6-58.42-10.6S514,483.5,484.83,483.5s-29.21-10.6-58.42-10.6S397.19,483.5,368,483.5s-29.21-10.6-58.42-10.6-29.21,10.6-58.42,10.6-29.21-10.6-58.42-10.6-29.21,10.6-58.42,10.6-29.21-10.6-58.42-10.6S30.77,483.5,1.56,483.5l-1,133H1721.65Z" transform="translate(-0.42 -0.67)"/><text class="cls-8" transform="translate(910.97 464.14)">2D</text><text class="cls-9" transform="translate(289.7 441.05)">Diseños</text><path class="cls-10" d="M642,304.87c1.82-6.27,7.59-8.52,12.58-9a33.59,33.59,0,0,1,14.19,1.85l1.42.46,1.25.42c.84.33,1.66.44,2.49.69s1.63.3,2.45.47a18.94,18.94,0,0,0,2.35.16,12.29,12.29,0,0,0,4.37-.67,10.17,10.17,0,0,0,1.93-.95,9.1,9.1,0,0,0,.87-.62c.13-.11.28-.22.39-.33l.18-.15s.12-.13.1,0a3,3,0,0,1,5.53,2.56l-.26.63c-.08.19-.15.33-.23.49-.16.33-.33.61-.51.91a11.29,11.29,0,0,1-1.18,1.63,15.65,15.65,0,0,1-2.94,2.69,18,18,0,0,1-7.21,2.89,26.45,26.45,0,0,1-3.73.42c-1.2,0-2.44,0-3.62-.14s-2.38-.25-3.48-.52l-3.22-.73a29,29,0,0,0-9.88-.87c-3,.48-5.39,1.34-8.91,1.32h-2.25a2.8,2.8,0,0,1-2.79-2.82A2.74,2.74,0,0,1,642,304.87Z" transform="translate(-0.42 -0.67)"/></g></g></g></svg>