<svg xmlns="http://www.w3.org/2000/svg" viewBox="0 0 33 33.18"><defs><style>.cls-1{fill:#fff;}</style></defs><g id="Capa_2" data-name="Capa 2"><g id="Capa_2-2" data-name="Capa 2"><path class="cls-1" d="M31.34,1.39l.9.87.2.2a1.67,1.67,0,0,1,.21.52A10.78,10.78,0,0,1,33,6.23v21a6.57,6.57,0,0,1-.35,2.49,6,6,0,0,1-3.13,3.08,13.53,13.53,0,0,1-4.3.36c-6.68,0-13.36,0-20,0a5.41,5.41,0,0,1-1.92-.21c-.25-.07-.51-.11-.76-.19a1.63,1.63,0,0,1-1-1A4.76,4.76,0,0,1,0,29.42c.1-8.75.12-17.5,0-26.26a3.81,3.81,0,0,1,3.08-3A4.43,4.43,0,0,1,4.7,0c7.36,0,14.71,0,22.06,0A6.94,6.94,0,0,1,31.34,1.39ZM13.05,11.8c.22,1-.53.79-1.08.84s-1.29-.28-1.5.27a5.42,5.42,0,0,0-.08,2.91c.15.83,1,.25,1.51.52.77.05,1.08.38,1.07,1.22-.06,3,0,6,0,9a4.62,4.62,0,0,0,.18,2.33l0-.06a9.13,9.13,0,0,0,3.86.07l.33-.33a1.79,1.79,0,0,0,.14-1c0-3.22,0-6.45,0-9.68,0-1,.33-1.45,1.38-1.41a6.74,6.74,0,0,0,2.37-.09c1.05-.92.8-2.29.67-3.32-.11-.84-1.45-.23-2.24-.35a11.07,11.07,0,0,0-1.63,0,.64.64,0,0,1-.69-.42A3,3,0,0,1,19.7,8.14C22.06,8,22.06,8,22.05,5.56c0-.29,0-.59,0-.89,0-.58-.28-.73-.8-.83-4-.79-6.61.51-8.1,4.14A10,10,0,0,0,13.05,11.8Zm4.52,15.34c0-2.82,0-5.64,0-8.46,0-2.08,0-2.07,2-2.1.53,0,1.1.2,1.56-.25-1,0-2,0-3-.06-.7,0-.95.24-.95.95,0,3.77.05,7.54.06,11.31C17.75,28.14,17.57,27.61,17.57,27.14ZM12.81,18c-.05,3.13,0,6.26,0,9.38,0,.52-.22,1.11.34,1.52,0-3.83-.07-7.67,0-11.49,0-1-.36-1.23-1.22-1A1.43,1.43,0,0,1,12.81,18Zm.2-10a.25.25,0,0,0-.12,0,9,9,0,0,0,.16,3.86L13.14,8A.33.33,0,0,0,13,7.91Zm4,21-3.86-.07A4.89,4.89,0,0,0,17,28.86Z"/></g></g></svg>