<svg xmlns="http://www.w3.org/2000/svg" viewBox="0 0 241.5 241.5"><defs><style>.cls-1{fill:#001e36;}.cls-2{fill:#31a7fe;}.cls-3{fill:#000016;}.cls-4{fill:#000e22;}</style></defs><g id="Capa_2" data-name="Capa 2"><g id="Capa_2-2" data-name="Capa 2"><circle class="cls-1" cx="120.75" cy="120.75" r="120.75"/><path class="cls-2" d="M56,64.68c13.81.31,27.58-1.55,41.43-.09,15.28,1.6,27.86,11.34,31.53,25.14,4,15.06-.89,30.13-12.56,38.35-9,6.38-19.45,7.5-30.12,7.47-8.91,0-8.91,0-8.91,8.86,0,6.74-.08,13.48,0,20.22,0,2.86-.9,4.19-3.89,3.88-5.91-.62-12,1.19-17.8-1-.66-1.31-.4-2.71-.4-4.08q0-47.13,0-94.25C55.32,67.65,54.77,66,56,64.68Z"/><path class="cls-2" d="M140.76,145.87c9.79,4.75,18.91,7.65,28.89,6.33,2.83-.38,5.8-.74,6.6-4,.89-3.66-2-5.25-4.64-6.61-6.12-3.17-12.83-5-18.76-8.71-8.67-5.34-13.09-12.78-11.72-23,1.33-9.91,7.45-16.17,16.69-19.25,10.87-3.62,21.83-2.53,32.72.19a4,4,0,0,1,3.35,4.49c-.17,4-.19,8,0,11.94s-1.5,4-4.39,2.7a44.59,44.59,0,0,0-20.21-3.71c-3,.11-6.62.17-7.55,4s2.27,5.45,5,6.87c6.74,3.48,14.16,5.48,20.58,9.71,11,7.21,14,21,6.61,31.71-5.21,7.6-13.08,10.6-21.71,11.61a63.87,63.87,0,0,1-27.15-2.71c-3.43-1.09-4.61-2.87-4.4-6.39C141,156.32,140.76,151.48,140.76,145.87Z"/><path class="cls-3" d="M56,64.68,55.81,154c0,4.5-.07,9-.1,13.5-1.39-1.44-.92-3.25-.92-4.92q0-46.29,0-92.58C54.8,68.16,54.16,66.11,56,64.68Z"/><path class="cls-1" d="M77.77,84.43c8.4-1.93,16.74-1.83,24.34,2.49,5.48,3.12,7.07,8.69,6.59,14.79a14.14,14.14,0,0,1-9.6,12.92,56.43,56.43,0,0,1-7,1.76c-3.41-.68-6.86-.38-10.27-.25-3,.12-3.72-1.1-3.74-3.91C78,103,78.62,93.69,77.77,84.43Z"/><path class="cls-4" d="M77.77,84.43c2,6.74.4,13.63.89,20.43,0,.68,0,1.38,0,2.06.07,9.7-1,8.55,8.47,8.65,1.68,0,3.47-.44,5,.82-14.61,1.45-14.64,1.45-14.6-13C77.52,97.1,77.68,90.77,77.77,84.43Z"/></g></g></svg>