<svg xmlns="http://www.w3.org/2000/svg" viewBox="0 0 241.5 241.5"><defs><style>.cls-1{fill:#300;}.cls-2{fill:#fe9900;}</style></defs><g id="Capa_2" data-name="Capa 2"><g id="Capa_2-2" data-name="Capa 2"><circle class="cls-1" cx="120.75" cy="120.75" r="120.75"/><path class="cls-2" d="M99,65.78c4,0,8,0,12,0a1.48,1.48,0,0,1,1.63,1.1q17.31,48.94,34.66,97.85a6,6,0,0,1,.25.92.82.82,0,0,1-.81,1.06,9.24,9.24,0,0,1-1,.06H126.93c-1.5,0-1.76-.2-2.26-1.67-2.44-7.08-4.89-14.15-7.29-21.24a1.23,1.23,0,0,0-1.41-1q-16.73,0-33.44,0c-.87,0-1.26.21-1.53,1.08-2.21,7-4.48,13.95-6.73,20.93-.54,1.67-.84,1.89-2.61,1.89H55.18c-.41,0-.82,0-1.24-.07-.59-.06-.81-.44-.81-1a4.13,4.13,0,0,1,.31-1.39q15.18-43.69,30.38-87.4a29.19,29.19,0,0,0,1.77-9.83c0-1.07.22-1.29,1.29-1.29Z"/><path class="cls-2" d="M179.48,128.9v36.29c0,1.8-.23,2-2,2H159.91c-1.48,0-1.89-.4-1.89-1.85V92.19c0-1.33.29-1.62,1.63-1.62h18.1c1.42,0,1.73.31,1.73,1.75Z"/><path class="cls-2" d="M157,70.45a11.6,11.6,0,0,1,12-11.94c7,0,11.76,4.67,11.92,11.56s-4.74,12.33-11.43,12.5C162.45,82.74,157,78.05,157,70.45Z"/><path class="cls-1" d="M99,83.52c.53,1.89,1.06,3.79,1.6,5.68,3,10.5,6.41,20.89,9.75,31.29.25.79.46,1.59.73,2.37.17.49,0,.65-.45.6a2.41,2.41,0,0,0-.38,0c-7.44,0-14.88,0-22.32,0-.85,0-1-.12-.7-1C91,110.56,94.92,98.67,98.12,86.56c.26-1,.47-2,.7-3Z"/></g></g></svg>