<svg xmlns="http://www.w3.org/2000/svg" viewBox="0 0 569 569"><defs><style>.cls-1{fill:#98bd9e;}.cls-2{fill:#23170a;}.cls-3{fill:#1e2528;}.cls-4{fill:#1d2e32;}.cls-5{fill:#322f1e;}.cls-6{fill:#1f1f15;}.cls-7{fill:#433d2b;}.cls-8{fill:#626750;}.cls-9{fill:#403325;}.cls-10{fill:#5b5b48;}.cls-11{fill:#293a4e;}.cls-12{fill:#1d2328;}.cls-13{fill:#574e3a;}.cls-14{fill:#171b12;}.cls-15{fill:#7c8371;}.cls-16{fill:#413e29;}.cls-17{fill:#5f6452;}.cls-18{fill:#50656a;}.cls-19{fill:#544e3a;}.cls-20{fill:#767d6c;}.cls-21{fill:#8a9382;}.cls-22{fill:#7c8573;}.cls-23{fill:#7c8673;}.cls-24{fill:#3e5461;}.cls-25{fill:#171710;}.cls-26{fill:#576b7b;}.cls-27{fill:#72879c;}.cls-28{fill:#6f7664;}.cls-29{fill:#425866;}.cls-30{fill:#919c88;}.cls-31{fill:#6e7260;}.cls-32{fill:#758d9f;}.cls-33{fill:#70889b;}.cls-34{fill:#505e68;}.cls-35{fill:#4d4f3d;}.cls-36{fill:#404330;}.cls-37{fill:#344039;}.cls-38{fill:#506266;}.cls-39{fill:#9dafb2;}.cls-40{fill:#4d4e38;}.cls-41{fill:#373621;}.cls-42{fill:#2d2f19;}.cls-43{fill:#595a40;}.cls-44{fill:#152932;}.cls-45{fill:#5d5d47;}.cls-46{fill:#5d7152;}.cls-47{fill:#5b5b43;}.cls-48{fill:#353a23;}.cls-49{fill:#506a49;}.cls-50{fill:#3d432d;}.cls-51{fill:#4f513b;}.cls-52{fill:#4c513d;}.cls-53{fill:#363920;}.cls-54{fill:#72745b;}.cls-55{fill:#676853;}.cls-56{fill:#34361e;}.cls-57{fill:#729375;}.cls-58{fill:#656447;}.cls-59{fill:#88917f;}.cls-60{fill:#36371e;}.cls-61{fill:#44442b;}.cls-62{fill:#5a5d49;}.cls-63{fill:#7d8f94;}.cls-64{fill:#494b35;}.cls-65{fill:#2a3b3f;}.cls-66{fill:#5b6e7d;}.cls-67{fill:#506571;}.cls-68{fill:#becdd2;}.cls-69{fill:#5a6249;}.cls-70{fill:#3f452e;}.cls-71{fill:#5b5d46;}.cls-72{fill:#759377;}.cls-73{fill:#4b6341;}.cls-74{fill:#6d9175;}.cls-75{fill:#3e4229;}.cls-76{fill:none;}</style></defs><g id="Capa_2" data-name="Capa 2"><g id="Capa_2-2" data-name="Capa 2"><rect class="cls-1" width="569" height="569"/><path class="cls-2" d="M384.65,434.53c-7.24-7.27-12.91-15.82-19.24-23.81-9.63-12.15-19.22-24.31-29-36.3-8.09-9.89-15.82-20.08-23.71-30.13-9.37-11.94-18.69-23.93-28.13-35.81-6.19-7.79-12.58-15.43-18.85-23.16-.24-.31-.14-.89-.19-1.34a1.77,1.77,0,0,1-.51-1.7c1.39-3,9.54-4.25,11.67-1.74,1.09,1.28,1.66,2.94,3,4.09s2.87,1.79,4.12,3.31A55.13,55.13,0,0,0,279,279c-1.91-2.87-1.12-4.76,2.23-5.19a9.6,9.6,0,0,0,7.85-5.5,10.67,10.67,0,0,1,3.9-3.88,7.5,7.5,0,0,1,7.51-.3c2.22,1,2.06,3.21,1.78,5.25-.24,1.76.64,3.31.87,5a3.83,3.83,0,0,1-1.85,3.94c-1.47,1-2.63.36-3.69-1.06-.63,1.18.27,2.13,0,3.06-1,3.31-1.32,5.71,3.62,6.07,3.15.23,3.33,3.87,3.32,6.89,4.43-4.06,11.83-3.27,15,1.2,6.68,9.5,14.37,18.25,21.18,27.65,4.79,6.61,10.06,12.77,15.26,19,6.66,5.48,12.84,11.2,16.89,19.15,4.34,8.53,8.94,17.15,15.82,23.93,4.86,4.79,9.26,10.1,14.59,14.36,3.25,2.6,2.46,8,5.71,9.3,4.14,1.68,5.85,4.58,7.6,8,.63,1.22,1.68,2.21,2,3.6,1.58,3.81.8,6.5-3,8.86a27.15,27.15,0,0,0-8.19,7.34c-1.13,1.65-2.89,1.91-4.72,2.42a24.21,24.21,0,0,0-9.06,5.25c-1.52,1.31-3,2.81-5.26,1.34l0,0C387.2,441.29,386.53,437.69,384.65,434.53Z"/><path class="cls-3" d="M388.36,444.68c4.7-.47,6.73-5.47,11.08-6.58.49-.12.83-1.23,1.24-1.23,8.1-.06,10.29-8.84,16.83-11.3,3.33-1.26-1.44-4,.44-5.84,1.49.07,3-.06,4.16,1.25.46,4.15-1.91,7.53-3.17,11.25a4.81,4.81,0,0,0,2.39-1.43c4.06-3.13,8.74-2.16,10.68,2.62,1.07,2.62,2.82,4.17,4.91,5.82,3.08,2.42,6.63,4.73,6.46,9.46a1.8,1.8,0,0,0,.84,1.56c7.74,5.45,12.46,13.61,18.54,20.55,3.15,3.59,8,4.95,11.21,8.71,2.48,2.93,4.57,6.17,7.18,9,.59.63,1.15,1.6.27,2.45a1.89,1.89,0,0,1-2.56.13c-3.09-2.89-7.17-4.1-10.66-6.31-2.21-1.39-.44-4.16-2.43-5.54a2.75,2.75,0,0,0,.47,3.55c4.25,3,6.08,8.08,9.92,11.4,3.63,3.14,5.13,8.2,9.83,10.48,1.23.6-.26,1.92-1,2.47-2.12,1.53-3.65,3-2.77,6.1.74,2.6-2.35,3.29-3.52,5.6,3.16-4.43,7.83-6.1,11.64-8.92,3.28-2.43,9.34,1.19,10.12,5.73.27,1.58.48,3,1.63,4.15,5.3,5.32,11.05,10.32,12.79,18.14-.49,4.86-4.66,6.88-7.88,9.17-4.95,3.51-9,8.61-15.39,9.87-4.48.88-9,1.58-13.44,2.62-1.33.31-1.53-.58-2-1.08-7.58-7.51-15-15.14-22.7-22.57-4.63-4.48-7.84-10-11.44-15.17a2.87,2.87,0,0,1-.75-2.52c2-6-2.75-9.44-5.61-13.19-13.76-18.05-27.87-35.83-41.87-53.71C392,449.11,390.15,446.91,388.36,444.68Z"/><path class="cls-4" d="M371,168.7c2.28,9.57,1,12.2-7.23,18.59-4.7,3.65-8.83,8-13.23,12.06-1.09,1-1.8,2.58-3.65,2.46-1.61-.52-2-1.94-2.06-3.3-.65-11.11-5.83-19.84-14.16-26.83-4-3.39-5.91-8.18-8.44-12.48a35.57,35.57,0,0,0-5.86-8.14,4.53,4.53,0,0,1-.88-1.07c-4.21-7.92-10.7-14.17-15.77-21.47a17.14,17.14,0,0,1-1.81-3.7c-.68-1.73-1.22-3.67-2.68-4.79-8.64-6.63-12-17.16-18.66-25.25-4.6-5.57-8.68-11.63-13.38-17.13-2.93-3.43-7.06-5.37-11.55-6.33-2.5-.53-4.76-1.3-4.63-4.52.6-1.14,1.35-2,2.83-1.63,3.43.13,5.75,2.68,8.58,4.08a5.34,5.34,0,0,0,5.51.1,51.7,51.7,0,0,0,9.22-5.92A65.68,65.68,0,0,1,283,57.09c2.57-1.47,4.52-4.15,7.85-4.58.61-.08-.14.12.46,0a2.83,2.83,0,0,1,1.7.91c5.51,6.29,9.91,13.51,16.1,19.25,2.2,2,1.73,6,5,7.36,5.09,10.1,11.76,19.16,19,27.74,6.78,8,11.05,17.73,17.92,25.64.35.51.69,1,1.06,1.53,1.32,1.8,2.14,4,3.83,5.51,2.79,3.9,6.22,7.3,9.07,11.19,2.65,3.62,4.06,7.57,6.28,11.21C372.65,165,372.57,166.82,371,168.7Z"/><path class="cls-5" d="M146.26,350.28c-3.78,1.34-7.81,3-11.49,3.28-7.36.54-15.31,0-20.63-6.3-6.84-8.17-14.27-15.8-21.23-23.87-8-9.33-16.28-18.52-24.49-27.69C60.65,287,53,278.18,44.84,269.81,39.21,264,34.52,258,34.18,249.27c-.19-4.76,1.88-8.88,2.29-13.39,1.17-2.06,2.41-1.7,3.39.06,1.15,2.07,2.41,2.81,4.23.83,1.61-1.75,3.17-1.46,4.85-.14,2.22,1.75,4.36,1.55,6.81.12,3.79-2.24,5.17-1.42,5.67,3,.09.81.07,1.59,1.08,1.69a2.21,2.21,0,0,0,2.22-1.32c1-1.75,2.11-4.14,4.43-2.11,1.92,1.7,1.41,3.91-.13,6.17-1.85,2.72-5,5.11-3.45,9.26a1.66,1.66,0,0,1-1.26,2.16c-3.6.69-1.27,2.91-.83,4.11s1.1-.57,1.94-.61c1.66-.08,3,.14,4.08,1.53a25,25,0,0,1,3,5.12,7.7,7.7,0,0,0,4.69,2.7,27.38,27.38,0,0,1,9.63,3c4.29,2.49,6.76.73,9.09-2.66.8-1.17,1.43-3.26,3.36-2.21s1.27,2.87.35,4.42c-.69,1.15-.35,2.39-.42,3.6a10.92,10.92,0,0,0,.14,1.8c2.21,8.78,3.14,9.54,12.37,9.69,1.58,0,3,.11,4.13,1.38.77,1.94-.59,4,.74,6.1.9,1.44.16,2-4,4.31,3.64,1.31,5.53,4.22,7.36,7.21,1.62,2.66,3.73,3.33,5.86.72,2-2.4,3.84-2,5.93-.43a18.36,18.36,0,0,0,5.08,3.09c3.06,1,4.67,3.25,5.84,6a6,6,0,0,1,1.59,2.8A11.41,11.41,0,0,1,144,320c-.1,1-.92,2.86.27,2.62s2.9,2,3.67-1c.63-2.45,2.42-.47,3.68.05,4.64,1.94,4.64,1.95,1.55,5.58a2.83,2.83,0,0,0-.71,1.65c-.3,3.36-1.89,3-3.93,1.37-.81-.65-1.6-1.81-2.75-1.15-1.38.8-.76,2.18-.41,3.32.52,1.7,1.09,3.54-1.06,4.32-2.43.9-3-1.28-3.91-2.89a8.58,8.58,0,0,1-.84-5.3c.43-3.87.2-7.75-3.63-10.15-2.69-1.7.58-2.61.5-4a18.74,18.74,0,0,0-4.84,2.78c-1.33.91-3.47,1.6-2.58,3.75.76,1.86,1.14,4.39,3.84,4.7s3.57,1.65,2.24,4c-1.17,2.09-2.75,3.53-5.14,1.47-1.87-1.61-4.14-1.71-6.39-2,1.84,4.29,6.29,6.72,7.73,11.67,1.93-1.34,3.64-3.42,5.74-1.52,1.55,1.4,1.8,3.53,1.73,5.56-.06,1.54-.8,2.46-2.62,1.79C139.6,347.8,144.07,345.78,146.26,350.28Z"/><path class="cls-6" d="M355.15,342.13c-3.64-4.26-7.86-8.16-10.76-12.87-3.18-5.17-7.55-9.33-10.81-14.43-3.95-6.18-9.7-11.25-13.28-17.59-2.93-5.19-7-5.22-11.55-5.53-3.4-.23-2.56,3.33-4.43,4.76-1.64-1.43-.71-3.37-.91-5-.38-3.08-.87-5.68-5.09-3.93-1.78.74-3.52-2-2.67-4.57.64-1.89,1.91-3.49-.22-5.34-.74-.64.05-1.69,1-2.15s1.73-.86,2.21.48c.37,1,.15,2.92,2.16,1.65,1.23-.79,2.06-2,1.29-3.53a8.08,8.08,0,0,1-.78-6.11c.74-2.9-3.84-4.95-7.13-3.08-1.66.95-3.57,2.36-4.22,4-1.65,4.17-4.3,6-8.75,5.91-2.52,0-3.32,1.37-1.42,3.56A24,24,0,0,1,285,289.92c-2.82-2.94-7.58-3.61-8.86-8.34a2.49,2.49,0,0,0-4.06-1.45c-2.12,1.45-5.81.18-6.61,3.85-.52-.3-1.11-.93-1.54-.84-8,1.79-12.87-2.49-17-8.43-.29-4.38,2.57-7,5.7-9,4-2.57,7-6.5,11.37-8.57,1.14-.54,1.54-1.87,1.89-3.07.42-1.38,1.19-3,2.49-3.12,4.2-.36,5.72-3.7,7.76-6.44a6.21,6.21,0,0,1,4.87-2.88c4.67-.36,5.92-5,8.61-7.75s6-3.64,9-1.66c1.84,2.19,3.82,4.28,5.49,6.59a7.62,7.62,0,0,1,1.14,7.45c-1.61,4.77.16,8.87,3.65,12.38a27.2,27.2,0,0,1,2.83,4,10.44,10.44,0,0,0,2.12,5c.73.79,1.52,1.9,1,2.9-2.74,5.71,1.79,8.9,4.43,12.57a23.54,23.54,0,0,1,3.73,7.82c1.25,4.78,4.16,8.05,7.51,11.62,7.16,7.63,13.44,16.11,19.78,24.47,2.57,3.38,5.23,6.79,6.34,11.09C357.19,340,358,341.64,355.15,342.13Z"/><path class="cls-7" d="M141.66,315.33c-1.73-6.5-8.75-6.55-12.73-10.33-1-1-1.53.7-2.13,1.57-2,2.86-5.61,3.24-7.09.4-2.2-4.2-5-7.48-10.65-9.42,2.63-.91,4.1-1.34,5.49-1.95.75-.33,2.27-1.26,1.34-1.79-3.78-2.17-.45-4.13-.13-6.16l.52-.38c3.07,1.32,6.28-.6,9.41.43,1.73.56,4.17.45,4.77,2.21.66,2-1.61,3-2.9,4.3-.73.71-1.92.91-2.39,2.28a10.57,10.57,0,0,0,5.17-3.84c2.44-3.06,3.39-1.33,4.59.78a9.77,9.77,0,0,1,1,4c.16,1.61-.17,4.13,1.76,4.25a6.77,6.77,0,0,0,5.67-2.36c2.07-2.54,1.65-5.43,1.44-8.33-.23-3.27,1.1-4.93,4.51-4.51-1.78-4.43-1.65-4.8,2.63-6.52a14.79,14.79,0,0,0,2.7-1.73c1.66-.37,2.5-1.68,3.33-3a2.29,2.29,0,0,1,1.65-.8c1.88,1.74,3.05,3.11,2.06,6.38-.73,2.43.6,5.9,1.44,8.8.15.51.07-.65.47-.65,2.74-.06,4.77-4.24,8-1.38.38,2.53.74,5.07,1.25,7.59-.23,2.52.64,6.16,0,7.34-3,5.37,1.8,6.31,3.95,8.78.5.57,1.39,1.12,1.33,1.8-.52,5.36,2.94,5.85,6.92,5.9a3.33,3.33,0,0,1,3,1.74c.36,1.69-1.63,2-2,3.23-7.38,5.74-15.13,11.08-22,17.38-4,3.65-9.05,4.33-13.32,7-1.13.69-2.48,2.75-4.54,2-2.43-2.19-5.66-1.66-8.5-2.47-1.65-.46-3.3-.59-3.94-2.71,1.62-1.17,2.39,1.86,3.91.69.74-1.55-.54-2.87-.68-4.36-.09-1-.35-1.81-1.52-2a2,2,0,0,0-2.44,1.59c-.76,3.53-2.41,1.11-2.73.17-1.73-5.09-7-7.82-8.43-13.22,3.18.71,6.35-.17,9.37,2.67,2.08,1.95,2.71-1.79,4.39-4.14-6.22,2.13-6.62-2.78-8.51-5.55-.8-1.17.22-2.81,1.45-3.51a36.81,36.81,0,0,0,7.1-4.78c1.5-1.4,2.31.21,2.74,1.16,1.28,2.82-1.89,1.93-2.78,3,3.22.83,6.31,7.19,4.95,11.58-.89,2.86,1.21,4.5,1.48,6.8a1.31,1.31,0,0,0,1.82.91,1.45,1.45,0,0,0,.9-2.2c-.21-.41-.57-.73-.78-1.14-1-2-.73-4.27.86-5.26s3.51.09,4.45,2.09c.22.48.84.78,1.84,1.66,0-2.88-1.24-6.2,3.09-5.79.57.06,1-.66.84-1.36a1.07,1.07,0,0,0-1.4-.86c-2.31,1.05-3.23-1-4.56-2.06-1.44.9-.23,1.54.08,2.23.53,1.15-.3,1.66-1,2.22-1.14-3-3.76-.15-5.11-1.23-2-1.57-.33-3.64,0-5.5.1-.6.29-1.18.43-1.78.81-1.26,2.35,0,3.49-1.12-1.58-1.35-2.77-2.93-2.2-5.13a3.92,3.92,0,0,1,2.14-2.85c1.45-.61,1.76.77,2.46,1.48,2.39,2.45,6.24,2.16,8.7,4.63.5.51,1.72-.4,2.25-1.19,1-1.48.52-2.92-.26-4.33s-2.32-1.51-3.19-2.58c-1.56-1.9-1.07-3,1.63-3.28-3.4-2.86-7.27-.76-9.11.69-2.44,1.92-6.23,4.4-5,9C145.08,314.74,143,314.77,141.66,315.33Z"/><path class="cls-8" d="M139.77,151.12c.68.47,1.38,1.07,1.87-.2,2.43-1.72,4.66-2.39,5.88,1.29.56,1.7,1.72,2.14,3.13,1.33,1.74-1,3.89-.64,5.52-1.88,3.09-2.82,6.55-4.54,11.18-3.19-2.95-4.8-2.44-6.52,2.31-8.91,2.45-1.23,4.35-3.31,7.1-4.12,1.23-.36,1.83-1.2,1.29-3.3-.46-1.78,2.75-3.44,4.71-4.77,2.6.49,4.85,1.51,7-1.9,1.31-2.13,4.92-2.76,6.84-5a2.72,2.72,0,0,1,1.19-.46c3.51.56,6.73.88,7.65-4,.44-2.37,3.16-2,5-2.77-.13-1.53-3-2.54-.88-4.26a4.41,4.41,0,0,1,5.18-.5,7.91,7.91,0,0,0,4.22,1.45c1,.42,1.45,1.52,2.28,2.11,3.34,2.38,3.25,4.71,0,7.1-2.85.25-4.47,1.6-4.35,4.68a1.57,1.57,0,0,1-1.72,1.74c-3.48-.24-4.41,3.19-6.56,4.75-2.86,2.09,1.61,3.87,1.4,6-.2,1.94-4,3.21-1.08,5.81a5.14,5.14,0,0,1,1.51,2.27c-1.45,5.28,3,8.81,4,13.41.38,1.83,1.62,3.58,2.29,5.45.26.72.46,1.55-.17,2.14s-1.4.18-2.1-.14a11,11,0,0,1-6.07-9.91,3.05,3.05,0,0,0-1.64-3,8.79,8.79,0,0,1-3.14-3.84c-2.2-4.09-3.45-4.2-6.42-.43a6.07,6.07,0,0,1-2.89,2.17,3.35,3.35,0,0,1-1.3,0,5,5,0,0,0-5,.52c-3.21,2.16-8-.76-8.44-5-.92,4.53-2.91,1.2-4.15.8-2.5,1.77,0,6.07-4.19,6.73,1.8,2.58,5.7,2.93,6.78,5.92a42.8,42.8,0,0,0,3.41,7.86c1.38-2.05.37-3.74-.06-5.48-.47-1.92-.31-3.89,1.68-4.78,2.26-1,4.3-.09,5.57,1.92a12.61,12.61,0,0,1,1.67,6.61c.05,2-.73,4.74,3.1,4.75,1.48,0,1.87,1.81,1.38,3,4.12-.51,4.35-6.42,8.92-6.95,4.37,2.32,6.15,7,9.15,10.49,1.74,2,3.36,4.26,5.1,6.35.16,2.25,1.25,3.53,3.64,3.48A2.74,2.74,0,0,1,223.3,189a26.78,26.78,0,0,0-5.94,6.44c-.77,1.15-.89,3.36-3.08,2.59-2-.69-4.49-1.37-4.61-3.89-.14-2.76-1.18-3.55-3.71-3a2.13,2.13,0,0,1-2.12-.65c-2-2.4-4-3.58-7-1.48-1.4,1-1.73-1.25-2.74-1.59-.39-.13-.88.74-1.54.78a43.11,43.11,0,0,1-6.3-1.42c-.37-.32-.52.89-.3.32.07-.17.18-.09.45,0a5,5,0,0,1,1.62,1.55c.67.89,2.32,1.45,1.45,2.92a2.53,2.53,0,0,1-2.9.84c-3.64-1-7.21,1.09-10.82.11-1.87-2-4.86-3.06-5-6.39,0-.62.06-1.47.49-1.73,4.29-2.57,2-5.21.38-8.1-.81-1.44-1.58-.79-2.63-1-3.59-.69-6-3.14-7.27-6.76-1.07-3.15-1.94-6.58-6.58-6.2-1.38.12-1.77,1-2.44,1.74a2.29,2.29,0,0,1-3.16-1.05c-1.87-3.89-5-5.31-9.11-5.18-.44,0-.8-.39-1.06-.79C139.07,155.07,138.73,153.05,139.77,151.12Z"/><path class="cls-9" d="M355.15,342.13c2.07-3.92-.41-7-2.31-9.8a158.14,158.14,0,0,0-15.39-19.21c-2.71-2.91-4.82-6.56-7.19-9.88-1.34-1.87-3.79-1.64-4.95-3.85a33.21,33.21,0,0,1-2.94-7.25c-1.6-6.2-5.61-11-9.51-15.83-.82-1-1.71-2.15-.47-3.2,2.7-2.27,1.91-4.11-.37-6-1.7-1.4-1.17-3-.26-4.53,5.69,5.81,9.88,12.78,14.85,19.15,7.94,10.17,15.61,20.55,23.43,30.82,7.16,9.41,14.45,18.71,21.41,28.29Q381,354,391.22,366.65c8.31,10.3,15.9,21.14,24,31.59,2.95,3.81,5.49,8,9.34,11a6.37,6.37,0,0,1,2.05,4.89c.45,2.78-1.08,4.54-3.11,6a3.29,3.29,0,0,1-1.86.46,2.67,2.67,0,0,1-3.69-.94c-1.72-2.33-3.57-4.59-4.5-7.4a5.33,5.33,0,0,0-.5-1.28c-1.74-2.55-8,.7-6.95-6.17.52-3.53-4.63-5.65-6.71-8.82a6.32,6.32,0,0,0-3.67-2.64c-.57-.16-1.16-.23-1.74-.34,1.2-6.09-5.53-5.74-7.73-9.31-2.33-3.78-5.63-7.39-7.72-11.11-3.53-6.29-8.1-12.11-10.41-19.07a4,4,0,0,0-2.44-2.53c-2.57-1.13-5-2.36-5.56-5.51C359.54,342.81,355.91,344.5,355.15,342.13Z"/><path class="cls-10" d="M395.63,120.51c6,6.37,5.13,13.67,2.85,21.15-2.14-.25-1.59-1.74-1.46-3.3a8.37,8.37,0,0,0-2.8,3.37c-.25.56-.59,1.56-.9,1.53-5.63-.7-7,6.42-12.1,6.57a3.55,3.55,0,0,0-2.52,1c-3.16,3.44-6.67,3.88-10.72,1.63-1.12-.62-3.86-.47-3.38-1.45,1.15-2.36-1.43-4.69.53-6.83.54-.59,2.7-.68,1.28-2.36-1.1-1.3-1.62-3.51-4.12-2.86-3.06.79-5.43-.43-7.22-2.8-1.3-1.73-1.5-3.4,1.07-4.27,2-.56,2.79,1.57,4.55,2.23,1.09-2.09,1-4.78,3.59-6.1,1.27-.66,1.09-2.31.51-3.76-1.81-4.52-1.76-4.54,3.29-4.39-1.63-1.1-3.38-1.28-4.63,0s.18,2.54.68,3.76c.43,1.05.84,2.17-.48,2.77s-2.68.61-3-1c-.63-3.22-3.43-3-5.54-4-2.39-1.17-7.38-.54-4.88-5.9.16-.34-4.37-5-4.86-5.14-1.46-.4-2.77-1.38-2.75-2.77.06-4.13-2.46-6.4-5.4-8.53a3.53,3.53,0,0,1-1-1.53,2.43,2.43,0,0,1,.14-1.94,1.73,1.73,0,0,1,1.18-.48c2.27.79,4.86.31,6.88,2.1a1.41,1.41,0,0,0-.1-1.25c-.75-1.43-3.54-2.71-1.45-4.42,1.93-1.59,4.36-.7,6,1.35.21.25,0,.64.29.86a2.53,2.53,0,0,1,.53-1.69,2.3,2.3,0,0,1,1.12-.59c3.69-.57,6.29,1.89,9.27,3.3,1.1.53,2.41,1.14,3.51.5,1.53-.88.3-2.21,0-3.21-1.1-3.41,2.68-4.1,3.41-6.46,2.11-1.2,4.8.39,5.84,3.48a46.93,46.93,0,0,0,10.76,17.34c2.71,2.9,8.34,5.6,5.86,11.75-.17.41,1.38,3.08,3.54,2.27A3.29,3.29,0,0,1,395.63,120.51Z"/><path class="cls-11" d="M421.64,420.67c.27-.32.53-.65.79-1,5.84,3,6.85,2.72,10.33-3,6.89,7.2,12.08,15.74,18.34,23.43,6.09,7.48,11.94,15.15,17.82,22.79,5,6.46,9.82,13,14.72,19.51,1.67,1.73,2.53,4.16,4.92,5.31,1.65.79,1.06,2.34.62,3.64-.59,1.73-1,3.56-2.45,5.08,1,1.07,3,.63,3.65,2.23.28.69-.12,1.53.51,2.13,1-1.07,2.76-.23,3.82-1.81,1.15-1.73,1.84-4.25,4.57-4.47,4,6.62,8.2,13.13,11.89,19.93a34,34,0,0,0,3.18,4.84c5,6.23,2.63,12.37.49,18.63-1.07-.05-2.49,0-2.46-1.43.17-7.16-6.54-9.53-9.74-14.32-1.35-2-4.51-3-3.22-6.81.67-2-2.79-3.29-4.51-4.65-1.29-1-4-1.15-4.64.22-1.47,3.12-4.68,4.16-7,5.27-2.5,1.22-3.37,3.26-5.1,5-1.4-2.16-.58-3.39,1.14-4.55s2.79-2.71,1.32-5,.58-3.21,2.08-4.26c1-.69,1.95-1.41,1.9-1.37-.29-4.58-7.81-2.68-6.3-9.08.39-1.67-1.88-.35-2.43-1-4.09-5.07-8.1-10.2-12.09-15.34a1.59,1.59,0,0,1,.17-2.44c.71-.51,1.65-1.38,2.45-.58s2.66,2.2,2,3.33c-1.68,2.75.57,2.92,1.93,3.82,3.34,2.2,7.75,2.51,10.27,6.28-4.3-6.66-8.51-13-15.56-17a21,21,0,0,1-9-10.2,7.47,7.47,0,0,0-3.11-3.85c-4.4-2-5.09-8.11-10.33-9.1-.43-.08-1.13-1-1-1.32,2-6.38-3.67-7.61-6.93-10.34-1.59-1.33-3.12-2.48-3.24-4.71-.07-1.34-.94-2-1.87-2.83-3.69-3.52-6.35-1.43-9,1.24-1,1-2,2.37-3.4.91-1.24-1.28.27-2.12.94-3.05C420.17,427.73,420.66,424.11,421.64,420.67Z"/><path class="cls-12" d="M186.11,324c-.36-1.57,1.1-2.09,1.77-3.07,1.91-3.6,5.69-5.47,8-8.77s3.21-6.44,1-9.8c-1.43-2.22-.74-4.47-1.09-6.68a16.11,16.11,0,0,0-5.16-7.25,7,7,0,0,1-.95-.85c-4.94-3.12-6.84-8.78-10.69-12.83-10.51-11.07-18.18-24.47-28.86-35.38A36.1,36.1,0,0,1,143.9,231a13,13,0,0,0-5.34-5c-2.15-1.19-3.18-3-4.25-5.17-2.68-5.37-7-9.61-10.72-14.25-5.06-6.33-10.35-12.51-15.65-18.66a5.58,5.58,0,0,1-1-.84c-5-5.94-7.62-6.94-12.74-4.85-1.81,1.2-3.59,2.48-5.9,2.54a1.78,1.78,0,0,1-1.12-.62c.87-4.39,3.35-8.13,5-12.21.4-1,.89-2,2.32-1.46a5.78,5.78,0,0,1,4.3,2.37c1.07,3.75,4,4.35,7.29,4.21a4.44,4.44,0,0,1,1.13.62c3.38,1.77,5.28,4.75,7.47,7.79a122.63,122.63,0,0,0,11,13.36,118.82,118.82,0,0,1,8.77,10.69c8.7,11.51,18.58,22.11,26.83,33.88,4.34,6.19,10.89,10.49,13.94,17.65.79,1.88,2.77,3.26,4.61,4.43,1.32.84,2.92,1.76,3.25,3.17,1.44,6.13,7.07,8.91,10.54,13.38s6.71,9.09,11,12.91c2.52,2.23,3.76,1.36,5.7-.37,7.56-6.76,15.1-13.57,23.21-19.7,1.76-1.33,3.55-2.51,5.92-1.7a5.9,5.9,0,0,1,3,2.5c-2.3,3.08.1,5.69,1,8.33.67,2,.9,3.29-.83,4.81-7.86,6.94-15.9,13.71-23.35,21.07-8.51,8.42-19.6,10.08-30.32,12.92A24.83,24.83,0,0,0,186.11,324Z"/><path class="cls-13" d="M242.49,275.64a2.77,2.77,0,0,1-2.8-1.85c-2.45-2.36-5.1-4.58-5.84-8.17a5.18,5.18,0,0,1,1.67-1.84c2.2-1.4,4.42-2.76,6.58-4.2,2-.19,1.73-2.28,2.77-3.29,1.94-1.88,3.53-2.11,4.94,1,2.24-2.84,1.33-8.38,6.82-8.24a3.78,3.78,0,0,1,3-1c2.56-.05,4.33-.88,4.48-3.88.17-3.34,4.19-4,5.12-6.81a7.48,7.48,0,0,1,.67-1.08c1.27-1.4,2.51-2.79.22-4.38a3.54,3.54,0,0,1-1.16-1.38c-.05-1.81.81-3.47.88-5.26.37-1,1-2.47,1.9-2.43,4.13.17,7.45-2.95,11.54-2.67,3.17.22,5.92,1,4.87,5.31,4-1.76,4.69-3.89,2.27-7.26-1.15-1.6-3.28-3-2.67-5.53a4.3,4.3,0,0,1,4.17-1.53c2.33.17,4.05,2.85,6.73,1.63,5.49,1.61,7.52-2.72,10.21-5.93,2.92-3.49,7.59-5.09,9.83-9.43.68-1.32,2.7-1.72,3.37.66.25.86.07,2,1.43,1.87a2.16,2.16,0,0,0,2-2.16c.31-2.57.72-5.14.79-7.77-1.25-.47-1.49.73-2.11,1.2-1.31,1-2.63,2.74-4.28,1-1.38-1.43-1.52-4.12-.1-5,2.58-1.63.55-2.53,0-3.74,2.34-2.23,4.78-4.07,7.29-.34,1.51,2.23,3.64,0,5.25,1,1.73,2.52-.53,6.55,3.27,8.4.76.37.08,1.73-.47,2.42-1.85,2.33-2.42,5.16-3.26,7.89a100.58,100.58,0,0,1-18.71,15.92,8.43,8.43,0,0,0-3.28,3.1c-4.21,2.95-9.9,4.27-11.24,10.33-5.78-1.3-8.62,2.64-11.45,6.49-1.85,2.5-3.53,4.54-7.33,4.19-2.25-.21-3.55,2.56-4.52,4.64s-2.16,4-5.05,3.7a2.92,2.92,0,0,0-3.24,2.62c.06,3.62-2.92,4.17-4.88,5.92-5.3,4.74-12.54,7.54-15.19,14.95C245.06,272.94,244.2,276.34,242.49,275.64Z"/><path class="cls-14" d="M331.13,202.64c-.12-3.83,2.25-6.68,3.86-9.82-4.89-1.52-2.37-5.61-3-8.62-.65-1.72-2.15-2.42-3.62-3.28-3.9-2.29-5.56-5.66-4.07-9.64.72-1.92.1-2.81-.75-4-4.57-6.54-8.94-13.27-16.87-16.4a3.17,3.17,0,0,1-2-4.16c1.25-3.42,1.14-6-3.05-7-1.2-.29-1.42-1.48-1.49-2.6a5.52,5.52,0,0,0-2.14-3.91,48.9,48.9,0,0,1-8.24-11.48c-1.53-2.11-2.88-4.34-5.83-4.86a3.25,3.25,0,0,1-2.33-2.65c-1.27-5.24-4.57-9.35-7.7-13.47-3.37-4.43-9.11-6.7-10.24-13.38-.49-2.87-4.16-5.51-6.61-8-3.27-3.37-6.73-3.15-13,.4-3,1.56-5.45,4-8.29,5.81-2.43,1.56-2.52,1.5-4.57-.26,4.15-5.18,8.4-10.29,12.39-15.58A18.54,18.54,0,0,1,247,66.8c1.37,4.3,5.8,2.92,8.64,4.5,4.31,2.41,8.74,4.33,10.84,9.32,1.09,2.59,4.49,3,5.89,5.58a107.42,107.42,0,0,0,15.39,21.42,2.15,2.15,0,0,1,.46,1.62c.11,3.05,1.84,5.09,4.27,6.78s4.62,3.46,5.59,6.47c1.87,5.86,6.77,9.8,9.87,14.9,1.48,2.43,2.33,5.6,6.11,5.89.67.05,1.33,1.6,1,2.82A3,3,0,0,0,316,149c5.31,5,8.14,11.4,11.46,17.67,1.84,3.47,5.6,5.94,8.58,8.78,5.63,5.38,8.37,12,9.3,19.66.27,2.22.25,4.62,1.54,6.66-5.18,4.36-11.31,7-17.5,9.52-.71-3.5,2.37-4.23,4.33-5.53,2.51-1.67,6.26-2.36,6.64-5.78.48-4.33.68-8.9-2.09-12.82a17.46,17.46,0,0,1-1.56-3.23C340.45,195.39,338.87,200.69,331.13,202.64Z"/><path class="cls-15" d="M395.63,120.51c-3.47,1.37-3.47,1.37-8.76-2.91,3.34-.57,3.06-3.07,1.43-4.29-3.52-2.63-4.83-7.15-8.71-9.35a6,6,0,0,1-3.12-5.08,5.65,5.65,0,0,0-2.8-4c-1.26-.84-2.8-2.29-2.2-3.69,1.49-3.49-2.77-3.75-3-6.12l-.4,1.27c-1.16.75-2.09.34-2.92-.56a1.87,1.87,0,0,1-.39-1.65c1.11-2.53-.77-1.15-1.54-1.21-1.86-.5-2.48-2.22-3.52-3.54-1.62-5.74-6.4-9.34-9.71-13.92-1.68-2.32-1.74-5.62-4.53-7.18C341,54.72,338.24,50,336,44.91c-2.75-6.25-9.15-8.3-14.34-4-6.12,5.07-12.95,9.15-19.29,13.91a9.28,9.28,0,0,1-4.69,1.76c-2.14-.16-3.76-1.38-5.34-2.67l-1-1c-.79-2.8-5.15-1.05-5.55-4.35,6-2.09,11.08-5.88,16.21-9.53,4.55-3.24,8.93-6.8,13.79-9.51,7-3.9,20.44.26,24.82,8,9.45,16.72,20.71,32.21,31.47,48C380,97.19,387.81,108.87,395.63,120.51Z"/><path class="cls-16" d="M71.43,266.38c-.92-1.25-1-2.85-2.24-4.11-1-1-1.33-2.57-3.31-2.39-2.48.23-.57,2.7-2.16,3.6-2.14-1.86-2.12-5-3-7.23-1.09-2.9,2.85-.28,4.11-2.19-2.84-4.52.36-7.78,3.54-10.77,1.49-1.39.4-2.79.81-4.12.06-.23-.83-1.07-1.29-1.07-1.59,0-1.93,1.24-2,2.54-.25,3.4-2.77,2.2-4.45,2-2-.3-2.18-1.78-1.15-3.39.49-.76,1.3-1.63-.05-2.2-1-.44-2.29-1.19-3.37.08-2.94,3.46-6,2.88-9,.16-1.46-1.35-2.08-1-3.16.45-2.08,2.85-4.31,2.69-5.44-.52-.66-1.85-1.16-2.29-2.78-1.3,1.11-4,1.07-8.37,3.57-12,1.25-.34,2-3.44,3.5-1.36,3.43,4.74,7.08,4.13,11.18,1.32a8.6,8.6,0,0,1,3.64.44c1.51.49,3.94,0,4,2.27s-2.59,1.61-3.62,2.54c2.81,1.65,5.75,2.93,9.43,2.33,3.86-.62,3.63,2.71,3.92,5.29.2.52.9-.3.34,0-.16.08-.18-.07-.27-.37-.87-2.66,1-4.31,2.25-6.2.74-1.13,1.75-.95,2.83-.39.7.36.55,1.3,1.42,1.56,5.63,1.71,5.62,1.73,1.66,6.51-2.52,3-2,6.65,1.46,8.63a5.8,5.8,0,0,1,2.34,2.74c1.35,2.88.7,4-2.48,3.62-2.71-.34-3.43.6-2.94,3C80.18,263.05,79.14,264.56,71.43,266.38Z"/><path class="cls-17" d="M88.07,184.48l5.47-2.94c2.24.36,3.68,2,5.38,3.28,5.12,4,5.2,5-.06,8.59-3.42,2.33-3.86,6.13-5.1,9.47-.8,2.14-1.51,4-3.77,4.77-4.72-.12-7.42,2.19-10.14,6.14-2.23,3.24-4.75,4.56.48,6.88,1.4.62,0,2.37-1,3.43-1.22,1.47-3.49,1.5-4,4.42-.25,1.6-4,.34-6-1-3.35-2.31-6.48-5.14-11-4.69-2.75-1.65-5.14-3.81-5.64-7-.24-1.55-.91-.79-1.48-1-1.07-.34-2.51-.35-2.15-2.14,1.29-1.5,2.21-3.49,4.57-3.64s4.36,1.15,6.48,1.84c1.68.55,3,1.84,1.26,4a10.75,10.75,0,0,1,9.51-.82c-2.81-.69-3.79-2-2.81-4.94,1.52-4.62,1.85-9.86,8.25-10.62.56-.06-.07.22.42-.15,3.84-2.88,3.84-2.88,5.47,1.41,5.59-2.49,5.14-8.47,7.36-12.86C90,186.36,88,185.79,88.07,184.48Z"/><path class="cls-18" d="M285.85,48.57c1.63,1.76,3.59,1.81,5.76.91,0,1.28-1.3,2.31-.21,3.44-1.36,1.91-5,.79-5.35,2.5-1,5.24-6.19,3.16-8.7,5.8-2.9,3.06-6.65,5.33-10.11,7.83-7.23,5.24-12.14-.2-17.42-3.88,2.61-4.47,7.38-6.57,11.17-9.66,3.07-2.51,6.89-4.45,9.62-7.25,4.15-4.26,7.95-4,12.39-1.15A30.59,30.59,0,0,0,285.85,48.57Z"/><path class="cls-19" d="M356.07,132.46c-1.92.93-.89,2.62-.24,3.23,1.36,1.28,2.83,3.27,5,2.52,3-1,5.32-1.79,5.78,2.66.15,1.45,1.95-.59,2.16-.26,1,3.3-7.2,3.64-1.14,7.51-.31,1.44-2.79.66-2.69,2.91,2.29.09,4.69-.11,6.56,1.69.43.43,1.93.59,2.11.32,3.24-4.91,11.41-2.73,13.43-9.35.16-.52,1-1.34,1.22-1.25,6.39,2.46,5.35-6,10-6.3.82,1.6-2,3.79.18,5.52.66,5-2.66,7.63-6,10.36-5.79,4.67-11.46,9.49-17.14,14.29A9.93,9.93,0,0,1,371,168.7c1.37-3.49-1.85-5.83-2.21-8.7-.68-5.35-7.42-7.1-6.92-12.82-3.63-.7-4.59-4.18-6.72-6.44a8,8,0,0,0-3.71-5.47l-1-1c-.49-.93-.61-1.7.74-2,.44-.09,1,.73,1,.3-.05-1.16-.92-2.77.79-3S355.71,130.77,356.07,132.46Z"/><path class="cls-20" d="M88.07,184.48c1.07.6,2.15,1.17,3.2,1.79.51.31,1.33,1,.8,1.37-4.54,2.8-2.8,9.27-7.35,12.27-1.11.74-2,1.49-3.23,1.44-2.48-.11-.43-1.77-.8-2.64s.11-2.07-1-2.27c-1.89-.32-1.33.89-1.14,2,.26,1.51-1.48,1.19-1.89,1.2-5.91.08-5.81,4.92-6.74,8.69-.16.66.19,1.64-.56,2.22-2.13,1.66-.24,2.32.78,2.05,3-.8,2,1.82,3,3.22-4.59-3.25-9.21-.4-14.06-.07.77-1.6,3.1-1,2.48-2.76-.29-.79-1.81-1.82-2.49-1.65-2.5.63-3.48-1.58-5.21-2.31a234.91,234.91,0,0,1,23.89-16.82c3.5-2.22,7.38-4.23,9.56-8.1Z"/><path class="cls-21" d="M197.13,120.42a6.55,6.55,0,0,1-4.07,4.27c-1.35.49-4.58.54-2.56,3.71-2.5.9-5,1.78-7.26-.53-2.37-.8-3.65,1.86-5.86,1.94-.47,0-1.13,2.38-2.53,1.38s-1-2.44,0-3.68c2.91-4.15,8-5.52,11.77-8.51,4.43-3.47,9.09-7,13.92-10.12,2.5-1.62,5.18-2.65,7.72-4.06,5-2.4,8,2,11.92,3.36.69,1.79-1,1.56-1.78,2.09-1.16,1.2-2.52,1.36-3.45,0-2-2.87-3.64-.79-5.61-.22.87,2,2.83,1.59,3.85,2.66.12,1.13-.77,1.16-1.45,1.31-3.43.75-5.77,1.75-6.9,6.07-1,3.69-5,.82-7.74.35-1-.91-2.22-.2-3.41-.4C194.84,120.72,196.06,119.78,197.13,120.42Z"/><path class="cls-22" d="M231.24,85.28c3.43,1.93,4.93-1.58,7-2.82,1.71-1,3.46-2.21,5.13-3.41,3.24-.4,7-2.3,8.47,2.72.88,3.67,1.51,7.24-3.86,7.79-1.61.17-1.54,1.35-1.47,2.36.27,3.85-2,3.89-4.77,3.33-3.18-2.56-4.37.33-5.93,2.19a7.39,7.39,0,0,1-1,.77c-5.37,1.18-7.6,6.47-11.87,9.1a4.24,4.24,0,0,1-2.59-.11,7.31,7.31,0,0,1-2.22-1.54c-2.22-2.12-2-4.58.56-4.5,5.21.19,6.45-3.15,7.92-6.74C226.05,90.3,229.08,88,231.24,85.28Z"/><path class="cls-23" d="M174.85,127.51c.29,1.07-.31,2.35.52,3.21,1.87.11.18-5.2,3.7-2.09.1.08.79-.31,1-.62,1.56-1.95,1.54-2,3.13-.14-1.29,2.16-4.67,3.06-3.84,6.58.14.6-1,2.18-1.42,2.13-4-.56-5.4,4-9.08,4.47-2.64.32-2.76,3.67-.5,5.78.62.59,1.73,1,1.2,2.17a1.71,1.71,0,0,1-2.39.74c-4.47-2.07-7.6.4-10.7,3-.66.4-1.46.07-1.38-.46.79-5.24-2.92-5.86-6.57-6.64-.43-.09-.54-.64-.35-1.11,3.95-2.91,8.83-4.63,12.48-7.45,3.88-3,8.57-4.94,11.86-8.64A2.44,2.44,0,0,1,174.85,127.51Z"/><path class="cls-24" d="M98.23,173.11l-3.7-2.66c4.54-3,8.31-7.34,13.75-8.89,1.61-.46,1.79-3.06,4-2.27,3-1,4.72-.16,4.68,3.23,0,1.52,0,2.19,2.17,2.67,2.81.63.78,3.59.85,5.55-1,5.93-6.71,5.86-10.57,8.09-1,.55-2-.35-2.79-1.17h0C103.42,176.84,101.11,174.46,98.23,173.11Z"/><path class="cls-25" d="M331.13,202.64c3.89-1.89,5.75-5.22,6.85-9.22s-2.05-6.73-2.84-10.15c-.19-.82-1.28-1.6-.07-2.27s1.5.49,2,1.24A28.2,28.2,0,0,1,341.94,200c-.22,2.83-2.66,4.53-5.29,5.58-3,1.2-5.75,2.74-7.28,5.8-4.22,3.71-9.79,4.94-14.5,7.79a29.31,29.31,0,0,1-5,2.75c.2-3.43,3.49-4,5.45-5.76C320.51,211.51,325.86,207.11,331.13,202.64Z"/><path class="cls-26" d="M119.59,170.43c-.76-.32-.37-1-.55-1.52-.38-1.1,1.76-1.93.07-3.16-1.88-1.38-1.72,2.11-3.34,1.07.11-3,1.36-6.75-3.53-7.53,3.79-1.27,4.82-6,8.9-7.11a8.84,8.84,0,0,0,2.91-1c.13.09.24.23.37.25,5.55,1.14,5.54,1.14,2.47,5.65a1.68,1.68,0,0,0-.3,1.28c1.35,1.86,5.24-.15,5.4,3.53C130.07,168,124.51,168.72,119.59,170.43Z"/><path class="cls-27" d="M131.52,162c-.13-2.37-2.34-.36-3.13-1.49s-3.7-.33-3.3-1.32c.67-1.65-.31-4.93,3.21-4.82.27,0,.55-.59.91-1-1.51-1.08-2.83-.45-4.27-.17-2.2.43-.3-1.41-.89-1.94,3.64-4.42,6.61-4.84,11.65-1.79a29.31,29.31,0,0,0,4.07,1.7c1.23,2.06.66,4.15.13,6.25C137.83,160.23,135.48,162.55,131.52,162Z"/><path class="cls-28" d="M49.19,212.68c5,1.26,5.77,6.72,9.37,9.37.35,3.14-2.62,1.69-3.8,2.73-2.71,2.21-5.37,4.4-9.1,1.8-.74-.53-1.7-.82-1.84-1.79-.52-3.62-2.47-.83-3.78-.89C42.38,219.58,43.78,214.5,49.19,212.68Z"/><path class="cls-29" d="M490.05,499.06c-3.82-.64-5.71-2-2.78-6,1.57-2.16,2.23-4.58-1.55-5.93-1.81-.64-1.7-3-2.08-4.72,6.11,0,10.36,2.88,13,8.3.44,1.38-.45,2.24-1.17,3.21-.95,1.27-3.83,1.3-2.28,4.31.5,1-1.45,2.37-3.24,1.59-.06,0-.07-.24-.05-.36A3.61,3.61,0,0,1,490.05,499.06Z"/><path class="cls-30" d="M148.21,144.57c1.43,1.69,2.32.11,3.36-.57.71,3.42,4.06,1.61,5.77,2.94,1.12.87,0,1.54-.66,2.08-1.56,1.19-1.56,2.44-.17,3.76-1.75,1.6-4.36.57-6.29,2.28-1,.92-4.06-.15-3.91-1.6.55-5.3-3-2-4.67-2.54C141.6,146.5,146.18,146.85,148.21,144.57Z"/><path class="cls-31" d="M226.64,94.42c-.48,3.41.23,8.25-5.14,7.46-2.22-.32-2.89.74-4.29,1.26l3,3.39a1.36,1.36,0,0,1-.15,2c-2.4-.33-4.77,0-6.2-3.1-.92-2-3.89,1.71-5.61-.62C214,102.43,218.39,98,223.38,94.5,224.74,93.55,225.61,95.07,226.64,94.42Z"/><path class="cls-32" d="M432.76,416.7c0,2.64-.49,6.06-3.05,6.11-2.24,0-6.41,1.32-7.28-3.12,1.5-1.24,3-2.47,2.9-4.69a24,24,0,0,1,4.59-1.61C431.06,414.33,432.3,415.18,432.76,416.7Z"/><path class="cls-33" d="M490.05,499.06c1.17,1.12,2.46-.44,2.4-.59-1.58-4.23,3.28-4.93,4.18-7.74,1.18,1.06,2.9,1.75,2.65,3.81a51,51,0,0,1-4.63,6.63c-1,1.05-3.07,2-4.28,1.64S488.42,500.49,490.05,499.06Z"/><path class="cls-34" d="M429.92,413.39c-1.33,1.11-2.63,2.29-4.59,1.61a12.17,12.17,0,0,0-.77-5.73C428.25,408.16,428.26,411.84,429.92,413.39Z"/><path class="cls-3" d="M384.65,434.53c3.22,2.67,4.12,6.19,3.73,10.18C385.35,442,384.84,438.31,384.65,434.53Z"/><path class="cls-35" d="M365.33,85.26l2.74,1.07c-1.9,2.46-5.2,4.38-2.15,8.36.86,1.11-.51,2.81-2.29,2.17s-3.61,0-5.13-1.63c-2.1-2.19-5.33-2.24-8-3.43-.34-.52-.21-1.16-.42-1.71,0,0-.18,0-.18.06a2.44,2.44,0,0,0,.6,1.65c-1.21,1.48-.33,2.82.81,4.93-3.64-.89-3.79-7.47-8.64-4.24a14,14,0,0,0,1.45,1.67c1.28,1.07,3,2,1.59,4-1.94,2.78-2.21-.57-3-1.1-1.63-1.08-4.23,1.37-5.16-1.56-.92-1.84-2.87-3.87,1-4.6-.54-1.34-1.62-1.71-2.47-2.32-4.25-3.09-3.1-7-1.59-10.9.23-.58.85-.79-.11-1-.44-.11-1.14,0-1.1.51.15,2.41-.23,5.11-3.2,3.53-2.14-1.14-7.18-1.48-4.67-6.46.13-.27.39-.52.44-.8.3-1.72-3.49-2.83-1.17-4.48,2-1.46,5.27-.43,7,.46,2.57,1.31,2.1-.46,2.63-1.4.3-.53,0,.19.26-.41-2.16.78-4.26,1.5-6.68,1.15-3.73-.55-6.05,1.68-4.7,5.14s-.41,3.67-2.68,4.75a29.29,29.29,0,0,1-7,2,6.32,6.32,0,0,1-3.89-4.47A9.85,9.85,0,0,0,307,72.08c-5.66-5.4-10.23-11.75-14.66-18.18l5.47,1.91c3.52,2.79,7.27,2.75,10.71-.1,1.23-1,2.11-1.73,2.77.72.88,3.28,1.12,3.21,0,6.52,2.47-2.49,2.67-2.73.94-4.81-.94-1.14-1.39-2.08-.64-3.19s2.16-1.05,3.36-.61a9.68,9.68,0,0,0,4,.57c5.6-.33,5.6-.29,7.06,5.7.39-1.93,0-4.19,2.37-4.32,2.22-.13,3.73,1.22,4.5,3.29.41,1.11.35,2.66,2.13,2.42,2.05-.27,1.62-1.85,1.48-3.22-.35-3.3,1.69-3.41,3.69-2.3a9.73,9.73,0,0,0,5.64,1.11c4,.9,2.9,5.41,5.37,7.67,2.33,2.11,3.73,5.15,6.54,7.12,1.88,1.32.86,4.71,2.79,6.5-1.65,1.15-2.54-.13-3.44-1.13-2.12-2.39-7.09-2.44-6-7.56.14-.69-1.4-1.91-3.13-2.42.22,2.33.25,4.61-3.09,4.34-1.94-.15-2.48,2.08-3.87,3-1.74,1.17-1,2.47.73,2.9,1.89.49,3.5,1.09,4.23,3.09a1.17,1.17,0,0,0,1.51.74c4.76-1.72,6.22,2.53,8.78,4.8-.13,1.09-.42,3.75,1.1,2.12C359.79,86.18,362.94,86.87,365.33,85.26Z"/><path class="cls-36" d="M313.54,80.68c2-2.29,5.84-1.32,7.62-4.15.06-.09,1.4,1.45,1.93-.23.4-1.29-.72-1.2-1.33-1.75-1.47-1.33,1.37-6.79,3.74-7,1.76-.18,3.87.87,5.3.21,1.69-.77,3.19-.75,5.58-.93-2.18,2-2.39,3.81-.92,6-2.34-3.88-6.27-2.32-9.3-3.4-.6-.21-1.24-.43-1.37.48a1,1,0,0,0,.94,1.28c3.09.27,3.66,1.22.88,3.16-1.76,1.23.37,2.76-.39,4,1.44,1.24,1.08-3.64,2.52-.64.8,1.67,1.25,3.47,3.23,2.32s-.53-2.54-.66-3.93c1.78-.56,3.46-1.52,5.06.24.64.7,1.47,1.48,1,2.38-.6,1.17-1.19-.17-1.81-.29-.28-.06-.69-.18-.82,0-1.38,1.3.07,9,2.2,9.46,2.61.62,2.47,2.83,3.73,4.17-1,1.58-2.24-.31-3.29.25-1.59,1.19,3.63,2,.17,3.3h-.87c-.68.77-1.23,1.76-2.53,1.44.76.7,1.75-.29,2.52.33,1.84,1.79,4.55,2.49,5.88,4.94.65,1.2,1.4,2.09.93,3.74-.65,2.3.46,3.42,3.05,3.06.83-.11,3.52-.08,1,2.09-.24.21,1.56,1.49,2.72,2,3.28,1.52,2.71,3.08-.57,4.66,2.43,1.2,4.44,2.41,7,2.91,2.08.4,5.57.54,4.78,4.55-.21,1.07.77.7,1.25.68.64,0,1.25-.29,1-1.13a13.29,13.29,0,0,1-1.1-3c-.08-1-2.31-1.81-.79-2.55s2.87-2.7,4.86-1.53c1.27.76,3.11,1.21,3.43,2.83.19,1-1.15,1.55-1.9.79-1.43-1.43-2.77.28-4.27-.06l1.58,2.14c1,1.3,1.58,3.71.95,4.19-2.84,2.13-4,5-5.08,8.14-.46,1.27-1.92,1-2.33-.4-.48-1.61-1-2.91-3-2.9L353,130.19c2.46,3.5-2,2.63-2.5,4.11-1.46-2.08-2.52-4.67-4.44-6.14-3.83-2.93-5.79-7.33-7.65-11.13-2.79-5.69-7.25-9.87-10.95-14.56-2.82-3.56-5-7.56-7.81-11.09C317.1,88.25,314.48,84.85,313.54,80.68Z"/><path class="cls-37" d="M349.67,153.6c-1.73,1.56-.8,2.74.64,3.68,2.07,1.35.93,3.38.41,4.51-.71,1.54-2.49.25-3.62-.22-2.14-.9-4.33-1.74-4.44-4.86-.05-1.56-.73-4.24-3.33-1.56a7.8,7.8,0,0,1-.7.59c-2.48-3.23-6.52-1.23-9.46-2.81a1.55,1.55,0,0,1-.55-2.06,1.27,1.27,0,0,1,1.94-.55c2,1.46,4.49,2.44,6.43,1.05a34.86,34.86,0,0,0,7.95-7.76,18.57,18.57,0,0,1,3-3.09c-.52,4.62,3,5.51,5.53,7.23,4,2.72,6.29,8.1,4.49,13-1.85-3.73-6.93-3-8.27-7.13.78-1,2.87-2-.28-2.81a16.64,16.64,0,0,0-5.21-.55C345.54,152.27,349.57,149.69,349.67,153.6Z"/><path class="cls-38" d="M294.14,77.93c-2.47,1.73-4.05-.86-6.08-1.29-.31-.07-.49-1-.75-1-7.32-.2-1.61-4.92-2.33-7.36-.1-.34,3.27-1.24,3.81.4.91,2.77,1.8,1.72,3.49.93,1.43-.68,3.6-.83,1.78,2C292.1,73.73,292.65,75.83,294.14,77.93Z"/><path class="cls-39" d="M294.14,77.93c-3.43.3-2-2.87-2.73-4.27-.9-1.83,1.9-1.1,2.65-2.06C298.25,73.66,294,75.82,294.14,77.93Z"/><path class="cls-36" d="M351.42,135.27c2.51,1,5.44,1.64,3.71,5.47C352.89,139.6,352.67,137.09,351.42,135.27Z"/><path class="cls-40" d="M54.76,224.78c1-1.31,3.33-.72,3.8-2.73,4.7-2,7.89,1.87,10.9,3.83a14.18,14.18,0,0,0,6,2L73,226.47c0-1.44.43-1.53.87-1.36,2.85,1.09,4.45-1.25,5.69-2.75,1.6-1.93-.74-2-2-2.13-1.64-.17-3.51-.43-3.1-2.41.24-1.12.54-2.86,3-3.12,3.87-.41,1.6-3.08.6-5.55,2.94,1.2,4.81,1.25,6.18-1.89,1.21-2.77,3.69-.56,5.6,0,2.28,1.42,8.61,0,10.09-2.32,2.7-4.14,2.7-4.14,7.57-1.62a2.18,2.18,0,0,1,.42,1.21c-1.58,2.37-4.82,3.87-3.81,7.62.19.69-1,1.52-1.6,1.33-3.64-1-3.5,1.86-3.49,3.71,0,4-3.34,6.29-4.43,9.78-.66,2.13-2.2-.64-3.53-1.43,1.41,3.21,2.71,6.35-.29,9.23,1.67,5.68-2.65,5.19-5.91,5.57-.39,1.39.4,2.24.93,3.13.38.64.82,1.31,1.81,1,1.41-.38.32-1.19.43-1.81.75-4.26,8.41-8.44,12.52-6.94,1.21.44,2.69,1.29,2.22,2.48a5.8,5.8,0,0,1-3.54,3.32c-1.07.35-2.39-.8-3.45.37a1.7,1.7,0,0,0,1.91,1.63c4.32-1.09,5.2,2.87,5,4.77-.49,4.8,3.66,6,5.76,6.29,4.54.63,7.17,2.09,7.74,6.72.13,1,.7,1.82,1.86,1.08,4.06-2.6,7,.69,10.29,1.91.19.59.26,0,.09.42-1,2.56,5.06,4.07,1,7-2.07,1.49-3.14,4.15-6.17,4.68,1.36,1.18,2.19,1,3,.06,2.88-3.24,2.69-3.07,5.2.46,1.51,2.13,1.07,4.08.6,6.11-.75,3.3-4.27,5.69-7.38,4.92-2.89-.71-1.51-2.68-.72-4.58-3,2.67-5.62.43-8.31-.09-.77-1.67-4.88-3.89-7-3.88-.43,0-.69-.52-.82-1,.73-2.8-2-4.5-2.25-7.05-.09-1-1.14-.33-1.83-.17-2.19.53-.66,1.76-.54,2.73-2,3.6-2.61,3.69-5.1.76.07-1.81-1.15-3.88,1.24-5.23.24-.13.69-1.88-.35-2.39-1.23-.6-1.55.56-1.76,1.41-.72,3-3.79,3.82-5.43,5.95-.4.51-1,1-1.52.5-4.21-3.75-9.39-4.5-14.69-5.3-1.56-.23-2.86-2.12-4.28-3.26a3.3,3.3,0,0,1,2-1.77c5.85-2.07,6.66-3.72,3.59-8.75-1.71-2.8,1.68-2.72,1.94-4.36.13-.8.92-1.75,2-.79.9.76,1.81,3,2.83.85.47-1-1.16-4.47-2.45-4.21-4,.84-2.58-3-4.14-4.09,1.5-2-.84-5.42,2.71-6.68,1.44-.51,3.09-1.82,2.24-3.43-.75-1.42-2.59-2.3-3.69.2L77,232.59c-1-.53,1.1-3.68-1.23-2.2-1,.66-4.39,2.91-2.44,5.91.69,1.07,2.26,1.8.82,3.91-1.31-2-4-2.72-3-6,.41-1.42-1.27-2.38-2.43-1.93-4,1.54-7.08.09-10.12-2.27-.44-.35-1.39-.05-2.48-.05,1.64-2.18,4-2.43,6.49-3.75Z"/><path class="cls-41" d="M141.66,315.33c.65-1.21,4.13-1.79.85-3.9-.6-.38-.38-1,0-1.57,3-4.5,6.24-8.69,11.86-9.85,2.23-.46,4.18,1.07,5.71,2.58.94.93.08,1.6-2.14,1.3-.5-.07-.88-.2-1.23.71,2.15,1.94,6,2.7,5.54,7.11-.27,2.59-2.15,3.18-3.62,4.15s-2.61-.22-3-1.72-1.68-1.57-2.93-1.57c-2.69,0-4.73-.88-5.12-4.2-1.05,2.23-4.61,4.09,0,6a1.82,1.82,0,0,1,.78,3c-.83,1-1.53,1.25-2.59.18-.44-.43-1.44-.3-2.19-.43A3.18,3.18,0,0,0,141.66,315.33Z"/><path class="cls-7" d="M108.37,278.36c1.43.92,2.2-.12,2.83-1.09a3.23,3.23,0,0,1,4.32-1.09c1.79.83,1.22,2.42.15,3.76-.8,1,.24,2,.07,3-.22,1.55,1.16,3.08.07,4.64l0,0c-3.5-1-7.14-.39-10.74-1-3-.54-4.34-1.69-5-4.23s-2-4.93-1.77-7.68c2,1.69,3.53,1.59,4.64-.93.45-.2,1.15,0,1.11.28C103.54,277.47,106.15,277.7,108.37,278.36Z"/><path class="cls-42" d="M107.48,204.49c0-.3,0-.59,0-.88-3.22-2.2-1.2-6.11-2.9-8.83-2.88-4.61,3-5,3.84-7.82,2.56.23,2.51,2.86,3.67,4.28,6,7.35,12.66,14.08,18,22,2.18,3.2,5.58,5.52,6.31,9.74.12.66,1.3,1.21,2.09,1.65,3.52,2,6.47,4.42,7.83,8.46a7.74,7.74,0,0,0,2.57,3.72c4.62,3.72,7.77,8.76,11.65,13.14,2.53,2.85,4.38,6.32,7.6,8.65,2.24,1.63,2.39,4.75,4.07,7,4.44,6,11.25,10.07,14,17.59.48,1.32,4,1.81,4.46,4.46-2.09,5.09-2.17,5.13-6.52,2.53a2.74,2.74,0,0,0-2.2-.16,7.33,7.33,0,0,1-2.28.3c-.11.29.25.26.46.48,2.85,3,4.65,7,8.85,8.78,1,.43.71,2.26-.18,3.32-1.14,1.35-2.92,1.91-4.11.84-2.52-2.25-5.11-1.87-8.11-1.55-3.59.38-4.55-1.52-4.38-7.16-1.19-2.35-1.95-4.75-.94-7.38a11.4,11.4,0,0,0-4.68-6.4c-3.12-2-3.11-6-3.56-9.46-.28-2.2.37-4.69-2.19-6-2-.94-5.33-.1-5.36-3.82a2,2,0,0,0,.74-1.59c-.36.51-.16,1.28-.8,1.66-6.89-2.59-14.69-3.36-19.59-9.87-3-4.09-2.3-6.15,2.38-7.45a10.51,10.51,0,0,1,3.6-.48c1.17.08,2.35.89,3.52,0-1.78-3.54-1.77-3.28-5-2-2.52,1-5.36,2.62-8.15.33-1.09-.89-2.32-.45-3.53-.5-4.74-.22-5.49-1.39-4-5.94a4.32,4.32,0,0,0,.13-2.88c-2.65,3-5,2.22-7.38-.18a5.13,5.13,0,0,0-4.72-1.25c-5.92.55-7-.36-6.3-5.05a13.76,13.76,0,0,1,1.84-3.15c1.56-1.61,3.19-1.9,4.55.2.83,1.28,1.33,2.87,3.24,2.82,1,0,2.35.2,2.91-.89s-.5-1.64-1.08-2.31c-1.67-2-4.1-3.83-1.23-6.56,2.38-2.27,4.5-.29,6.76.52C117.4,213.86,113.47,207.92,107.48,204.49Z"/><path class="cls-43" d="M155.51,261.74c1,2.62,3.33,2.53,5.49,2.82a1.17,1.17,0,0,1-.06,1.93c-.61.46-2-.08-.6,1.69s3.18,5-1.11,6.51l-.9.89c-1.16-.11-1-1.78-2.21-1.87-1.71,1.37.15,3.18-.65,4.63-1.05,1.12-1.23,3-3.6,2.89-3.49-.14-3.49,1.85-1.65,4,.8,1,2.18,1.67,1.13,3-1.43,1.79-1.79-.65-2.69-.88a2.33,2.33,0,0,0-3.07,2.74c.55,3.42,1.77,6.69-1.36,9.62-.77.72-5.45,4.13-6.78,3.85-2.37-.5-2.22-2.71-2.47-4.43-.37-2.61-.42-5.28-2.35-7.37a13.8,13.8,0,0,1-9.91,6.46c.78-4.57,5.88-4.59,7.26-8.39-3.4.28-6.41-3.42-10.21-.07-1.52,1.35-2-2.46-4-2.17.06-1.55-3.4-3-.07-4.64,1-.31,1.92-1.08,3-.18,1.81,1.5,3.37,2,4.4-.9a1.42,1.42,0,0,1,2-.4c1,.64.65,1.52.21,2.42-1.06,2.14-1,2.13,1.21,2,1.06-.07,1.91,1.15,3,.57.15-.07.17-.49.17-.75,0-2.79,4.19-5.55.17-8.3-1.24-.85-.07-2.3-1.12-3.07-3.34,5.58-3.34,5.58-8.36,1.45,5.3.82,5.9-4.82,10-5.8-1.37-1.69-4.77-2.4-2.77-5.5a7,7,0,0,1,1.79-1.42c2-1.18,2.73-2.4.34-4a9.08,9.08,0,0,1-2.23-2.31c-2-2.88-1.44-4.49,2.21-6,1.53.12,3,.63,4.61.28a2.39,2.39,0,0,1,1.6.54c1.46.53,3.28.25,3.39,2.85.13,3.09,3.2,1.36,4.79,2.22,3.62,2,7.94,2.46,11.25,5.15Z"/><path class="cls-41" d="M172.17,295c3-1,1,.93,1.07,1.74.1,1.12-1.7,2.5-.25,3.14s3,2.5,5,1.22c2.43-1.55,4.49-1.47,6.14,1.12.82,1.28,2,1.25,3.23.73a1.94,1.94,0,0,0,1.25-1.77c.06-1.51-.91-2.14-2.2-2.5-2.88-.8-6.27-1-4.93-5.74.12-.44-2.76-1.74-4.55-2.82l6.91-1.91c.7-.2,1.65-.73,1.77.46s-1,2.86.82,2.9c1.39,0,2.64-1.36,2.83-3.1.1-.83.76-.8,1.35-.85h0a4.16,4.16,0,0,1,1.56,2.66c.27,3,2.28,4.18,4.9,4.74.19,2.69-.08,5.15,1.5,8a7.9,7.9,0,0,1-2,9.89c-3,2.63-4.9,6.34-8.74,8-1.66-1-3.53-.77-5.34-1-3-.36-6.59.17-5.37-5.39.42-1.91-2.39-5.15-5.83-5.66-3.12-.45-3.35-1.66-.78-3.57,1.22-.91,2.58-1.61.74-3.83C170.11,300,171.1,297.09,172.17,295Z"/><path class="cls-41" d="M159.23,274.69a3,3,0,0,0,.94-4.26,5,5,0,0,1,.83-5.87c3.32.22,3.57,3.71,3.18,5-1,3.16,1.2,5.48,1.14,8.28,0,1.45.83,2.51,2.64,3.2,2.7,1,4.52,3.26,3.27,6.61-3.94-.05-6.92,2-7,4.89-4.33-2.95-1-9.17-5.74-12C164.61,278.71,159,276.57,159.23,274.69Z"/><path class="cls-41" d="M155.47,278.34a3.4,3.4,0,0,0-.43-.8c-1.62-1.6-1.6-3.16,0-4.76.6-.6.84-1.84,2.06-1.27,1.87.87.12,2.91,1.23,4.07C157.65,276.78,158.43,279.49,155.47,278.34Z"/><path class="cls-41" d="M169.9,311.71c-.3,1.3-.47,2.57-1.9,2.32-2.83-.48-2.17-3.25-3-5a2.28,2.28,0,0,1,.76-2.25C167.28,308.35,168.62,310.12,169.9,311.71Z"/><path class="cls-41" d="M173,315c.8.35,1.85.59,1.48,1.77a1.69,1.69,0,0,1-1.27,1c-1.12,0-1.35-1-1.43-1.87S172.32,314.9,173,315Z"/><path class="cls-44" d="M131.52,162c3.27-.65,5.18-3.79,8.37-4.58,4-2.64,6.28,2.77,9.86,2-.71,2.67.52,4.16,3,4.88,4.66,3.09,7.35,7.94,10.69,12.17,1.47,1.87,3.12,4.12,5.08,4.29,4.41.37,3.22,2.82,2.76,5.27,1.07,2.24,2.29,4.34,4.56,5.61,3.61,3.29,7.14,6.38,9.17,11.27a27.28,27.28,0,0,0,6.74,9.07,72.08,72.08,0,0,1,12,13.91,20.82,20.82,0,0,0,4.72,5c3.72,5,8.33,9.4,11.45,14.92,1.63,2.9,4.88,4,7.17,6.14,2.29,4.53,5.36,8.67,7.09,13.5,1.32,1.23,5.37,7.39,5.49,8.35-5.79.18-9.24,4.51-12.88,7.93-5.48,5.15-11.85,9.22-17,14.74-1.17,1.25-2.23,3.13-5.32-.12-6.14-6.46-11.22-13.75-17.4-20.11-1-1-1.78-2.2-3.28-2.38-1.93-.23-2.25-.61-1.07-2.52,1.31-2.13-1.26-3.56-2.42-4.25-3.75-2.26-5.8-5.56-8.26-9-2.26-3.16-4.39-7.26-8.63-8.82-.41-.14-1.15-.26-1.16-.44-.62-7.53-7.26-11.24-11.18-16.41-7.8-10.27-15.51-20.73-24.23-30.23-3.71-4.05-6.21-9-10.49-12.62-3.85-3.3-5.17-9-9.78-11.9,1.76.45,3.09,0,4.87-.79,3.46-1.47,6.23-3.26,8.14-6.44C123.58,167.62,128.75,166.47,131.52,162Z"/><path class="cls-45" d="M270.11,225.77c1.56,1.89-.07,3.15-.9,4.57-.4.26-.92.5-1.29.29-3.74-2.07-7.36-3.61-11.8-1.43-1.64.81-4.32-1.44-5.06,2.53-.38,2.07-4.91,1.2-7.73-1.53a3.12,3.12,0,0,1-.58,4.21c-1.56,1.11-2,2.11-2.46,4-.64,2.5-4.64,1.69-6.95,3.21-1.39.91-2.48-1.09-2.54-2.83-.05-1.36-1.11-1.68-2.16-2-1.62-.51-3.22-1.05-4.12-2.68-.43-2.35,1.17-4.93-.94-6.91-1.35,2.72-3.71,2.66-5.42.51-2.57-3.24-6.71-5-8.3-9.1a3.59,3.59,0,0,0-2.49-1.89c-1-.34-2-.78-3-1.09-8.78-2.65-8.78-2.65-6.16-11.08-2.58.38-4.87,1.71-7.38,2.36-1,.26-2.24.4-2.89-.74-.53-.93.19-1.74.66-2.51,1.76-2.89,4-3.68,9.42-3.39-.57-.6-1.34-.38-1.94-.67a3.12,3.12,0,0,1-1.43-1.09c-.41-.64-.54-1.29.63-2-1.71.57-1.19,3.56-3.41,2.56s-1.15-2.84-.61-4.36c.47-1.33,1-2.54.23-4a1.89,1.89,0,0,1,1-3c1.58-.3-.47-2.69,1.53-2.68,2.23,0,1.25,2.29,2,3.79,2.89-2.92,5.51-4.18,7.69.12.66,1.3,1.54,1.27,3,.78,2.71-.89,4.58-.12,4,3.41-.64,3.71,3.39,2.43,4.88,4.48-2.55-3.57,3.14-3.08,2.35-6.3-1.26-5.16,4-.38,5-2.68,3.32,1.94,7.33,2.63,10,5.69a5.76,5.76,0,0,0,3.74,1.61c.92.13,2.12.17,2.55.9,1.86,3.09,3.48,4.69,5.71.24.52-1,2.18-.75,2.88.05,2,2.25,7.92,1.91,4.8,7.75-.89,1.65,1.83,3.36,3.69,4,.42.16.74,4.24,2.44.32.86-2,4.24,0,4,1.5-.93,5.43,4.74,7.33,5.57,11.66C268.61,223.73,269.86,224.51,270.11,225.77Z"/><path class="cls-46" d="M210.06,144.45c-4.78-3.82-4.78-3.82-.62-8.54-.86-1.37-4.2-.42-3.52-2.46.59-1.76.77-4.41,3.51-5.1,1.68-.41.64-3.6,2.39-3.47,4.29.33,4.54-3,5-5.47.69-3.64,3,1.89,3.4-.83,1.4-.75,3.19-.82,3.59-3,.5-2.82,2.7-3.41,5.25-3.09a2.88,2.88,0,0,1,1,.76c.8,1.62,2.47,1.66,3.85,2a8,8,0,0,1,3.11-8.78c1.44-1,2.63-.29,3.8.48,1.76,1.14,2.86,2.41.93,4.41-2.22,2.31-.18,2.08,1.43,3,4.28,2.41,9.69,2,13.43,5.55.81.77,1.73.25,2.61.1,1.47-.24,2.62.4,2.66,1.83.09,3,2.07,4.62,4,6.35,3.43,3,5.38,7,7.38,11,.54,1.09.5,2.83,2.44,2.86-2.22-4.77-1.39-6.77,3.39-8.24,2.64,5.88,9,7.5,13.26,11.54,1,1,2.36,0,3.55,0,1.63,0,3,.31,3.41,2.29.85,3.8-3.16,4-4.52,6.21.92.4,1.77-.12,2.63.07,1.21.26,2.51.37,2.77,1.92s-.27,3.21-1.61,3.45c-3,.54-3.26,2.85-4,4.94-1.81,2.08-3.23.89-4.45-.64a80.27,80.27,0,0,1-5.89-7.5c-1.79-2.59-5.37-3.66-6-6.49a4.56,4.56,0,0,1-2.71,7c-4.25,1.16-4.15,3.8-4,6.81.17,3.77-1.65,6-5,7.28a3,3,0,0,1-3.39-.49,47.81,47.81,0,0,0-4.44-7.31c2.65-2.78,5.16-5.65,6.36-9.4.5-1.56,1.54-3.09.19-4.73-3.35-3.94-4.33-9.43-8.91-12.69a13.35,13.35,0,0,0-7.58-2.72,42,42,0,0,0-11,.93c-3.65.91-7.11,2-8.7,5.9a2.46,2.46,0,0,1-2.22,1.41c-2,.17-3.15-2-5.12-2a10.92,10.92,0,0,0-6.16-.29c-2.35.56-4.48.65-3.62,4.07C212.34,144.62,211.41,145.34,210.06,144.45Z"/><path class="cls-47" d="M229.46,113c-2.35.29-4.74.12-5.1,3.66-.17,1.75-2.44,1.88-4.14,1.88,2.18-1.8,4.66-3.5,0-5.41-.85-.34-1.21-1.9-1.8-2.9l1.67-1.74.15-2,2.74.08c5.23-1.52,9.4-4.41,12.06-9.26h0c2-1.3,4.55-1.33,6.45-2.84,2.4.32,4.55.59,3.9-3.17-.13-.74-.27-3.23,2.89-2.82,2.07.27,5.52-1.87,2.15-5.36-.5-.52-.23-1.11.41-1.44,6.71-1.09,9.45,1.87,8,8.46a20.67,20.67,0,0,1-3.1,7.08c-1.13,1.69-1,2.69,1.5,2.72,3.67,0,7.16,1.09,8.29,5.08s4.28,6.17,6.28,9.34a4.71,4.71,0,0,1,.92,3c0,.92-1.31,1.47-.85,2.29.18.34,1.31-.32,2-.42,2.85-.72,4.52.68,5,3.27s1.71,3.67,4.19,3.28c2.91-.46,4.56.94,5.64,3.42a4.1,4.1,0,0,0,1.92,2.46c1.3.58,3.5.89,2.37,3a7,7,0,0,1-7.27,3.79c-2-.17-2.08-1.29-2.17-3.16-.18-3.68-2.65-1.13-4.19-1.08-4.06,2.11-4.42,3.28-1.74,5.78.48.45.94,1,.54,1.57a9.19,9.19,0,0,1-2.54,2.51c-1,.55-1.73-.37-2.06-1.28-.84-2.31-2.34-4.37-3.1-6.6-1.44-4.19-4.43-6.79-7.86-8.87-1.94-1.17-.88-2.61-1.28-3.87-.58-1.84-.47-4.5-3.3-1.64-.55.55-1.84,1.09-1.86.44-.19-4.83-4.14-3.22-6.53-3.74-2.78-.61-4.41-5.43-8.16-2.29l-3.06-4.37c.88-1.43,4.06-.27,3.44-2.68-.28-1.08-2.28-1.72-3.5-2.55-.06,2.75-3.53,2.76-4.12,5.2s1.2,3,3.34,3.43c-4.52,1.83-7.35.89-8.1-2.3.78-.37,1.94-.37,1.66-1.79C230.32,111.64,230.44,112.87,229.46,113Z"/><path class="cls-48" d="M270.11,225.77c-2.09-1.73-4.44-3.28-4.21-6.51.09-1.32-.9-1.18-1.75-1.5-2.19-.82-3.63-2.1-2.09-4.73,1.12-1.91-.38-3.26-1.74-3.48-2.39-.38-1.51,1.56-1.37,2.83s0,2.5-1.27,2.54-1.62-1.33-1.17-2.4c.63-1.52.3-2.25-1.3-2.64-2.18-.53-2.81-2.56-4-4.14-2.27-3.06.32-2.65,2.19-3.13-1.61-2.49-4.6-3-6.51-4.88-1.17-1.18-2,.54-2.15,1.39-.3,1.87-.48,3.18-2.93,2-1.17-.55-3.94.94-2.2-2.42.55-1.07-1.15-1.52-1.76-1.44-3.74.47-5.48-3-8.19-4s-5-2.13-6.67-4.54l-1.83-1.88c-2.53.1-2.71-2.2-3.72-3.64-6-4.35-8.81-11.42-13.85-16.61a1.41,1.41,0,0,1-2.06-1.1c.09-2.47-.94-4.76-1-7.12,0-1.69.35-4.08,3.27-2.46,3.21,3.88,3.53,9,5.79,13.38,2.64,5.09,6.2,7.79,11.87,7.77,2.86.3,5.3,1.91,8,2.57a19.78,19.78,0,0,0,3.89.66c11.54,3.85,22.78,8.24,31.71,17,3.22,5.38,7.43,10,11.3,14.93,1.53,1.94,3.34,3.11,5.71.76a4.36,4.36,0,0,1,5.12-.7l.45.47c1.87,2.51,3.65,5.09,5.63,7.5,1.06,1.29.78,2.25-.28,3.11-2,1.58-3.69,3.62-6.48,3.89-.11-1.95,2.44-4.7-.29-5.43-2.15-.57-6.16-3.63-7.44,1.79-.2.83-1.15.7-1.9.19C273.92,221.77,271.89,223.34,270.11,225.77Z"/><path class="cls-49" d="M233.24,181.29c-1.29-.08-2.75.65-3.78-.76-.21-.22-.6-.48-.57-.68,1.15-7.62-5.57-8.42-10.14-12,.19,2.69,1.34,4.24,2.33,5.89.69,1.15,2.36,2.43.12,3.73-4.88,1.17-9.1-.93-11.64-5.83a104.43,104.43,0,0,1-6-15.19c-1-1.47-2.45-2.76-2.41-4.69.05-2.08.08-4.41,3.34-3.64a7.34,7.34,0,0,0,3.23,3.72c1,.66,2.35,1.37,1.86,2.77-2.08,6,3.54,7.34,6.25,10.47a55.2,55.2,0,0,0-5.14-13.43c-1.64-3-3-4.46-.64-7.21.83-.09,1.61-.39,1.08-1.37-2.21-4.1.1-4.1,3.38-4.59,2.68-.41,5.1-1.52,7.55.42,2.15,3.45,2,7.35,1.44,11-.92,5.72,1.42,9.79,5.23,13.52,2.4,2.35,2.3,6.26,5.06,8.43C236.54,175.18,235.41,178.27,233.24,181.29Z"/><path class="cls-50" d="M192.51,187.86c-.22.56-.74,1.55-.62,1.63,3.2,2.27.51,4.71.17,7-.11.72-1.53,1.4,0,2,1.05.43,1.16-.61,1.45-1.29a3.88,3.88,0,0,1,.67-1.17,2.43,2.43,0,0,1,2.95-.49,1.26,1.26,0,0,1,.46,1.1c-.28,1.52-1.91.22-2.58,1.14,1.44,2.33,4.59-.06,6.16,2.4-3.88,2.71-10.68-1.22-12.6,5.77,3.12,1.26,5.17-2.15,8.34-2.2,3.81-.06,1.16,2.72,2.47,3.3-6,4.2,0,6.16,2,6.42,6.45.82,10,4.95,13.43,9.55.8,1.06,2.66,1,3,2.6a3.05,3.05,0,0,0,3.71,2.52c2.25-.34.12-2.56,1.51-3.94,2.51,3,4.09,5.92,1.7,9.72-1,.68-1.91,0-2.86-.13-4.22,3.8-8,3.07-11.59-1a21.12,21.12,0,0,0-2.25-1.56c-2.11-.16-3.19-1.76-4.19-3.26a116.62,116.62,0,0,0-13.5-15.88c-2.69-2.76-6.28-6-7.25-10.46-.49-2.25-2.06-3.89-3.83-5.41-1.46-1.24-3.3-2.37-3.46-4.65,4.36,0,8.69-1.32,13.27-.29-2.15-1.08-2.32-3.86-5.35-4.65C187.41,185.37,190.09,185.69,192.51,187.86Z"/><path class="cls-51" d="M204.5,148.13c-5.13,2.24-.73,5.54-.93,8.33-.63-.16-1.6-.89-1.76.25-.51,3.48.83,6.69,1.78,9.94-1.59,1.5-4.43,2.14-3.56,5.34.37,1.34-.72,1.15-1.33.87-3.81-1.72-2.81,1.65-3.34,3.23-3.28.72,1.24-9.9-5.6-3.46-.5-4.2-.78-8.21-1.5-12.14a3.46,3.46,0,0,0-4.9-2.76,2.84,2.84,0,0,0-.66,4.68c1.43,1.32,0,2.7.87,4,.61.89-1,2.13-2.1,2.45s-1.91-.62-2.2-1.76c-1.83-7.18-1.84-7.17-8.13-12-1-.78-3-1.08-2.18-2.91,1-2.08,2.28.94,3.69-.06.2-1.23-.38-2.69.28-4.18.57-1.29,2.19-2.08,1.12-4.24,2.09,1.23,2.07,3.27,4.16,3.81.14-1.88.3-4.08,3.48-3.39-.91,1.49-2.09,5.12-.81,4.76,2.65-.74,4.84,4.58,7.47,0,1.16-2,3.55-.33,5.08,1.07a32.85,32.85,0,0,0-3.21,2.38c1,.62,2.14.54,3.7,1.83-1.5-1.86-2.34-3.12-.51-4.23,2.54-2.75,5-5.55,9.16-6.45C201.93,145.49,204.41,146.25,204.5,148.13Z"/><path class="cls-52" d="M171.27,186c-.53-1.76,0-3.5-3.08-4.32-5.65-1.52-7.3-7.83-11.22-11.59-1.71-1.63-2.84-3.87-4.23-5.83-.35-2.1-2.48-4,2.72-3.42,5.45.57,6.3,3.67,7.06,6.94s3.77,3.89,4.87,6.37c.15.33.73.56,1.15.66,1.8.46,1-2.13,1.79-1.87a4.38,4.38,0,0,1,2.14,2.45c.37.95.33,2.06,1.17,2.86,2.19,2.06,2.37,5.06.33,5.18S172.5,185.58,171.27,186Z"/><path class="cls-52" d="M169.88,168.4l-1.7,1.27c0-2.22-3.4-.89-3.24-3.11a1.52,1.52,0,0,1,1.91-1.46A4.4,4.4,0,0,1,169.88,168.4Z"/><path class="cls-45" d="M217.44,183.26l3.72,3.64C217,187.5,216.72,187.19,217.44,183.26Z"/><path class="cls-35" d="M356.69,101.74c-.46,1.15.74,3.08-2.14,2.67-1.3-.18-3.4-.26-3.63,2.62-.13,1.53-2.39,1.57-3.16-.27-.45-1.08-1.74-1.8-1.35-3.6C350.08,105,353,101.9,356.69,101.74Z"/><path class="cls-35" d="M336.68,97.29c-2.06,1.39-3.57.48-5.48-1.64,2.23.43,4,1.12,5.49-.13C336.69,96.11,336.69,96.7,336.68,97.29Z"/><path class="cls-53" d="M108.38,187c.75,3.29-3.49,3.62-3.65,5.52s1.8,4.21,2.47,6.43c.25.85-3.38,3.1,1.13,2.32.82-.14-.92,1.41-.89,2.38a4.12,4.12,0,0,1-4.58-2.26c-1.53,2.72-5.86,7.57-8.73,8.65-1.81.69-4.44.6-4.25-2.78C93,204.88,93,201,94.24,197.81a10.37,10.37,0,0,1,4.82-5.95c4.09-2.06,3.91-3.47,0-5.25-.4-.19-.53-1-.78-1.52,3.74-2.69,6.26.72,9.23,1.85Z"/><path class="cls-42" d="M107.48,186.94c-.9-1.12-4.71,4.38-3.5-1.54l-5.73-.31c-1.85-.81-3.64-1.71-4.71-3.55C99.38,178.22,105.06,180.42,107.48,186.94Z"/><path class="cls-42" d="M197.1,295c-6.79,1.58-5.22-4.14-6.46-7.4C194.7,288.43,194.91,292.59,197.1,295Z"/><path class="cls-44" d="M98.23,173.11c4-.75,5.63,2.93,8.35,4.56C102.73,178.1,98.76,178.74,98.23,173.11Z"/><path class="cls-54" d="M298.79,213.74c-3,2.49-4.31-1.22-6.49-1.71-3-2.67,1.08-2.11,1.66-3.2-6.15-1.09-6.15-1.09-6.53-6.62-1.08,2-2.41,3.17-4.24,2.21-2.95-1.58-1.32-4.25-1.29-6.53-5.26,1.32-8.58-1.79-10.94-5.51-1.83-2.87-3.5-5.58-6.51-7.32-.75-.44-1.47-1.23-.53-2.24,1.88-1,3.55-.33,5.18.65a60.18,60.18,0,0,0,7.17,5.49c-2.8-2.48-5.73-4.85-4.69-9.24,1.18-1.47-1-1.89-.95-3,2-2,5-2.79,6.68-5.29,1.79-1.53,3.51-1.74,5.15.24a11.08,11.08,0,0,0,2.87,2.25c3.67,2.29,3.57,3.48-.35,6-.61-.07,0,1-.15.4,0-.15.06-.25.27-.21,1.43.22,2.49.76,3.13-1.63.85-3.2,9.57-7.32,12.79-6.74s3.34,3.1.7,7.2c-.29,1.47-.29,1.47,3.13,1.62,1.67.82,4,1.45.82,3.47-1.81,1.15-1.15,1.92.4,2.81,1.12.65,1.83,2.19.76,3.14-2.19,1.93-3.07,5-5.76,6.62,2.25-1.77,4.73-1.19,7.26-1.27s2.86,1.32,3.41,2.83c.48,1.34-3.92,9.12-5.28,9.64A18.1,18.1,0,0,0,298.79,213.74Z"/><path class="cls-55" d="M222.07,233.07l2.69.88a19,19,0,0,0,5.54,2.15c1.18.21,3.56.54,1.65,2.92-.62.78-.11,1.45.57,1.91s1.52.22,1.62-.27c.82-3.91,3.48-2,6.67-1.26-3-3-1.53-4.31.47-5.52,1.77-1.08,2.12-2.22.8-2.79-1-.44-1.79-.73-1.22-1.75s1.77-.42,2.36.12c2.26,2.07,4.71,3,7.76,1.8,0-1.37-2.36-2.1-1.45-3.49,1.09-1.65,2.52.74,3.67.22,1.85-.85,4.9,2.6,5.73-1.61,2,.7,4.55-.61,6,1.42,1.13,1.56,2.84,1.7,4.25,2.54l1,.93c-.77,1.84.48,3.7-.07,5.54h0c-.87,1-2.07,1-3.25,1.3-2.37.64-5.74.79-4.65,4.92a1.75,1.75,0,0,1-1,1.92c-1.18.67-1.58-.26-2.06-1.06s-1.07-1.07-2.53-1c2,1.3,4.86,2.41,3.34,4.54-1.19,1.68-4,1.71-6,.08.69,1.22,2.41,1,3.17,2.23-.47.77-.76,1.9-1.44,2.24-1.25.61-.45-1.25-1.14-1.32-2.16-.24-1.89,1.7-1.92,2.73-.08,3.41-2,5.13-4.77,6.25-1.77-1.53,2.07-2.94.11-3.69-2.22-.85-3.13,1.58-3.42,3.17-.22,1.26-.34,2-1.64,2-.19,0-.4-.71-.6-1.08-2.2-2.78-5.6-1.23-9-2.78,2.9,2.34,3.56,4.63,2.55,7.36a1.74,1.74,0,0,1-1.74.79c-3.56-3.74-5.7-8.31-7.69-13A31.57,31.57,0,0,0,222.75,236C222.27,235.06,221.5,234.23,222.07,233.07Z"/><path class="cls-56" d="M304.22,181.32c-1.15.12-2.46.66-3.4.28-1.28-.54-2.89-1.73-.24-2.91,2.86-.69,3.47-5.4,7.73-3.89a12.49,12.49,0,0,0-7.94-5.23c-1.71-.42-4.22-.21-3-3.69.86-2.38-3.17.27-3.15-2.13,1.06-1.82-1.55-6.33,3.83-5.09.71.16,1.61-1.59,1.39-2.55-.4-1.75-2.18-1-3.36-1.3s-2.49,2.53-3.39.83c-1.07-2,1.78-2.72,2.76-4.09.87-1.21,3.08-.94,2.91-3.52-.15-2.22-1.44-1.42-2.39-1.73-.81-2.14-2.15-4.26,1.28-5.64,1-.4.15-2.18.31-3.31.23-1.66-1-3.66,1.14-4.87a6.88,6.88,0,0,1,.8.45c2.44,1.76.94,6.34,5.57,7,1.59.23,2.91,3.56.89,6.28-1.56,2.1-.31,4.36,2.12,3.92,3.07-.55,3.61,3.41,6.34,2.72.18,3.75,4,4.56,5.61,7.11.79,1.29,2.15,2.26,2.56,3.46,1,3,4.92,4.72,2.7,9.21-1.84,3.72,1.08,6.67,4.84,7.74,2.45.7,3.13,1.62,1.84,3.82-1.57,2-3.37,2.85-5,.22-2-3.33-4.56-1.57-7-1.08a22.51,22.51,0,0,1-10.33-2C307.85,180.6,306.05,179.77,304.22,181.32Z"/><path class="cls-57" d="M263.69,183.21a9.55,9.55,0,0,0,1,.95c2.55,1.9,5.65,2.74,6.5,6.88.79,3.86,5.11,5.15,9.88,4.77,1-.08,3,.93,1.88,2.67-.77,1.25-.13,2.37-.41,3.52-.38,1.53.9,1.93,1.9,2s2.1-.27,1.2-1.93a1.34,1.34,0,0,1,1.48-1.75,1.64,1.64,0,0,1,1.42,1.6c.23,2.1.33,4.21.53,6.87,3.35-4.44,5.25-1.41,7.19.94-.12,2.89-4.54-1.94-3.92,2.33-1.64-.43-3,.62-4.59.75v0c-4.48-.65-8.63-2.31-11.41-5.89-3.16-4.07-8.77-4.65-11.68-8.88-9.11-8.1-20.21-12.46-31.38-16.69-.32-3,2.83-6.1-.08-9.11-1-.84-2.17-1.63-.61-3,1.17-.06,2.18,1.07,3.42.43,1.78-.17,3,1,4.48,1.71a10.58,10.58,0,0,1,1.08.64c2.66,2.51,6,4.22,8.4,7,2.08,2.43,1.92-2.56,3.63-1a2.77,2.77,0,0,1,2,1.46c.23,3.17,2.9,1.89,4.54,2.45C261.33,182.29,263.3,180.58,263.69,183.21Z"/><path class="cls-58" d="M304.22,181.32c1-2.09,1.56-3.62,4.62-1.52a12.57,12.57,0,0,0,9.05,1.92c1.09-.19.69,2,2.12,1.62,2.52,1.32,2.43,1.25.51,3.83a3.71,3.71,0,0,0-.1,4.36c1.41,1.58,2.19-.6,3.18-1.28,1.19-.81,1.31-3.55,3.13-2.76,2.3,1,.29,3.14.45,4.68.2,2-.9,3.58-.62,5.39.52,3.28-1.84,4.07-4.11,4-3.14-.1-2.06-2.43-1-4.24-.89,0-1.38-.11-1.45,0-3.68,6.7-12,9.22-14.95,16.58-.51,1.27-1.64,2.06-2.73.38s-2.21-1.36-3.55-.57c.11-1.2-1.41-3.14.77-3.42,3-.37,3.08-1.84,1-5.25,4.86,2.7,7.39,2.5,7.49-2.14,0-1,.25-1.82,1.37-2.1,2.29-.57,1.89-1.94,1.07-3.49-.93-1.74-1.55-2.35-2.29.16-.17.59-.84-.36-1.26-.74-1.25-1.1-2.22-2.37-3.43.44-.78,1.79-3.27,1-4.86.39-1-.4-.64-2.11.24-2,4.44.48,3.61-4.91,6.85-5.84,1.61-.46.44-2.37-.23-2.37-3.1,0-2.13-2.86-2.17-3.82-.09-2,2.43.77,3.15-1C306.12,181.46,305.1,181.51,304.22,181.32Z"/><path class="cls-45" d="M257.16,249.76c-2.61-.22-4-1.89-5-4.24,2.71-1.42,2.89,4,5.78,2,.58-.38,2,.33,1.53-1.24-.23-.76-.68-2.24-1.71-1.55-1.54,1-2.42.5-2.72-.81a3.29,3.29,0,0,1,.87-2.85c1.15-.82,2.16.49,3.2,1s.25,2.24,1.79,2.27c1.83-2.1-1.27-2.74-1.22-4.3,3.25-1.77,6.31-4.12,10.39-3.31.05,1.24.05,2.62-1.09,3.29a8.31,8.31,0,0,0-4.54,7.19c-.07,1-2.73,2-4.5,1.86C258.92,249.09,257.91,248.62,257.16,249.76Z"/><path class="cls-59" d="M235.94,264.65a10.17,10.17,0,0,0-4.62-8.06c3.65-.63,6.53,1.65,9.78.42.9-.34,3,1.09,1.24,3.05C241,262.65,238,263.09,235.94,264.65Z"/><path class="cls-45" d="M270.11,236.81c-.9-1.86-2.84-3.73.07-5.54,1.45,0,2.58.2,2.72,2.08C273.05,235.48,271.62,236.13,270.11,236.81Z"/><path class="cls-60" d="M271,114.92c-2-2.91-4.84-5-6.06-8.76-1.13-3.49-4-6-8.73-4.66-1.7.47-4.61-.29-2.25-3.71a21.94,21.94,0,0,0,3.87-8.13c1-5.16-.09-7-5.43-7.43-.62,0-1.21.1-1.61-.51-1.23-1.44-1.23-1.44-7.41-2.67,6.07-4.89,13.39-4.61,17.38,3,1.42,2.72,5.6,4,5.53,7.44-.08,4,2,4.86,5.05,6.64,3.26,1.89,5.31,6.11,7.44,9.59,1.66,2.72,4.35,5.1,3.92,8.86-.05.46,1,1.57,1.47,1.5,4.23-.71,4.68,2.93,6.27,5.26-.54,2-2.34,4-3.8,3-2.51-1.67-7.23.4-7.76-4.27-.33-2.94-3.77-4.17-3.51-7.31C274.1,114,273.45,116.28,271,114.92Z"/><path class="cls-61" d="M271,114.92c2.4.2,2.65-2.91,5.27-3.15-.94,2.22,1.08,3.06,1.91,4.54.75,1.33,4,1.77,1.59,4.31a2.32,2.32,0,0,0,.61,1c3.33-1,6.87,4.06,10.06-.32l8.27,11.13c0,2.82.07,5.64,0,8.45,0,1,.46,3.06-1.72,1.08-1.29-1.18-1,.39-.83.77.59,1.25-.22,2.35-.19,3.52-1.86,0-4.06,3.19-5.54-1.4-.43-1.33-4.81-4.25-7-4.6-4.48-.71-3.79-3.33-4.1-6,2-4.25,4.5-1,6.78-.59,1,2-4,2.06-1.47,3.51,3,1.75,5.65-.78,8.22-3.33-3.49-.66-5.09-3-6.14-5.92-.94-2.58-3.57-.94-4.94-1.12-2.51-.34-2.51.57-3.44-2.11-.73-2.11-.25-5.8-4.52-4.29-1.21-.53-1.16-1.9-1.85-2.78C271.67,116.76,271.34,115.84,271,114.92Z"/><path class="cls-62" d="M345.92,57.59c-3.11,4.58-5.37-1.39-8.17-.82-.92,1.46.46,2.36.58,3.48.19,1.79-.75,3.44-2.37,3.13-1.26-.24-4.25,1.16-3.87-2.09.33-2.89-1.58-4.3-3.58-4.1-2.62.26-.74,2.08-.38,3.39.43,1.57-1.38,1.45-2.1,1.87-1.3.75-1.42-.65-1.36-1.49.35-5.41-2.42-6.26-6.75-4.58-1.94.76-2.59-1.38-4.09-1.45-.8,0-1.64,0-1.89.9-.3,1.07.36,1.07,1.27,1.13,3.65.26,1.26,3,1.2,4.2a3.91,3.91,0,0,1-4,3.49c-.72,0-2-1-.78-1.86,3.13-2.26,1-4.78.91-7.27-2.76.44-2.32,5.46-3.85,4.15-2.76-2.35-8.13,2-8.86-3.86,5.08-1.72,8.55-6,13.23-8.39,1.91-1,6-1.07,4.47-5.3,2.9.39,4.64-1.64,6.71-3.09,5.76-4.05,14.23,0,15.08,7.09.07.57.06,1.54.33,1.64C342.34,49.44,341.89,55.41,345.92,57.59Z"/><path class="cls-36" d="M356.11,87.11c-1.3-1.67-4.2-1.49-4.69-4.08a3.66,3.66,0,0,0-.15-.43C347,85.07,344.94,81,342,79.5c-1.27-.62-3.32-.27-3.42-2.42-.08-1.7,1.16-2.47,2.15-3.67,1.93-2.33,3.54-3.12,6.57-2.24,0-1.83-2.76-3.27-.61-4.83a2,2,0,0,1,2.9.39c1.09,2,4.45,2.58,3.58,5.77-.16.57-1.4,1.72-.51,1.54,4.36-.88,4.74,4.25,8,4.84l2.82,3.72c-.2,2.88-1.77,2.88-3.84,1.83-.68-.64-.71-1.61-1.21-2.34-.19.6.21,1.16.13,1.77C358.06,85.21,358.35,87.1,356.11,87.11Z"/><path class="cls-10" d="M356.11,87.11c.6-1.21,1.21-2.41,1.82-3.61a1.14,1.14,0,0,1,1.79,0c1.73,1.7,2.8.67,3.72-.91.53-.86,1.77-1.57,2.23-1.13,1.2,1.17-.54,2.47-.34,3.8-1.06,1.75-2.15,3.4-4.67,2.41-1.23-.49-1.73,0-1.37,1.29.54,1.79-.44,1.69-1.67,1.47-1-.17-2,1-2.94-.17C355.87,89.53,353.89,87.38,356.11,87.11Z"/><path class="cls-8" d="M197.13,120.42c-1.94.82-3.88,1.69-6.06-.08,1.73-2.25,4.25-.71,6.15-1.5l-.12,1.6Z"/><path class="cls-31" d="M235,97.35c1.36,2.22-.48,2.59-1.5,4.09-2.24,3.26-5.72,3.77-8.35,5.85-.75.59-2,1.25-2.21-.68C226.27,102.6,229.14,98,235,97.35Z"/><path class="cls-31" d="M241.46,94.51c-.33,5.08-4.29,1.92-6.45,2.84a8.83,8.83,0,0,0,1.46-2.23C237.69,90.84,239.46,91.91,241.46,94.51Z"/><path class="cls-10" d="M350.52,91.8c-2.19-.23-2.31-1.9-1.81-3.3.27-.77,1.72-.47,2.47.08,2.05,1.48-.1,2.21-.66,3.22Z"/><path class="cls-63" d="M349.67,153.6c-1.79-2.34-4.55-1.24-6.83-1.84-.53-.14-1.28.18-1.56-.48a1.14,1.14,0,0,1,.68-1.49c3.31-1.59,6.72-.54,10.07-.23.54.05,1.07,1.17.53,1.93-.71,1-.75,3-2.89,2.1Z"/><path class="cls-53" d="M130.59,251.56c-3.94.27-4.16,2.39-1.92,4.78,1.46,1.56,2.75,3.52,5.27,4.12-1.89,2.09-3.16,4.35-6.14,4-1.91-1.1-4.91.89-6.18-2.28-.27-.67-1.43-.34-2,.34-3.28,4.31-3.9,1.19-4.81-1.63s-1.1-6.57-6.11-4.27c-2.22,1-2.37-3.1-4.9-3.43-1.69-.22-4.9-.88-1.94-4.08.7-.77-2.21-3.45-3.39-3.79a14.21,14.21,0,0,1-4.37-2.26c-.77-.57-.59-1.68,0-2.51,1.13-1.44,2.85-.8,3.8-.34,2.79,1.37,2-3.14,5.24-1.28-3.54-3.87-6.28-1.22-8.79-1.48-4.37-.45-3,4.54-6.12,4.69,1,1.43,2.55,0,3,1.42.1.35-.15.79-.24,1.19-2.16-1.68-2.23,3.2-4.52,1.41a10.74,10.74,0,0,1-3.6-6.25c-.54-2.37,1.37-1.48,2.74-1.14,3.7.91,4.39.16,3.35-3.39-.09-.29-.31-.8-.3-.81,6.13-2.72,1-6.74,1.2-10.13,0-.56.16-1.11.26-1.79,2.33.66,1.79,3.64,4.27,4.45-.15-2.07-1.82-4,1.56-5.3,2.36-.91,1.71-4.91,2-7.6,0-.45-1.58-1-.51-2.06.78-.8,1.39-.53,2.38-.17,3.28,1.2,3.13,1.11,2.67-2.41s3.16-3.5,4.93-5.1c6.5.65,8.92,7,13.84,10a55.26,55.26,0,0,1,5.19,3.14c-2.18,1.51-3.88,1.93-5.71-.14-1.3-1.48-2.72-.93-4,.35s-.54,2.46.53,3.48a2.48,2.48,0,0,1,.32.33c1.14,1.69,4.22,2.57,3.22,5-.84,2-3.61.87-5.47,1.38-2.21.6-3-1.45-3.36-3.42-.14-.83-.51-1.47-1.44-1.47-2.36,0-1.78,2.62-3.12,3.54-1.42,0-2.4-2.74-4-.9-1.13,1.36.32,2.54,1.19,3.56a7.08,7.08,0,0,1,1.87,4.59c.12,4.46,2.94,7.87,4.66,11.7.45,1,1.38,2.46,2.59.64.7-1,0-2.94,1.89-3.33,1.47-.31,2.46,1.17,4.24,1.22,0-3.42.93-6.76-4.3-7.63-3.06-.5-3.85-3.2-2.67-6.17,1.9-.08,4.15.25,5.1,1.58,3.29,4.62,5,2,7.1-1.79.56,2.59,2.3,4.34.43,6.63-3,3.64.46,4.34,2.53,4.16,2.35-.2,4-1.09,5.75,1.65,1.07,1.66,6.87-1.76,7.47-4.69,1.45,1.12,2.23,2.74,4,3.38,1.09.41,3.23,1.65,2,3.32-.61.85-2.16,2.53-4.23,1-1.32-.95-3.1-.43-4.81,0-4.1.92-4.36,2.91-2.24,6l-1.81.08C133.08,251,131.86,250.23,130.59,251.56Z"/><path class="cls-5" d="M108.37,278.36a7.9,7.9,0,0,1-2.62.39c-1.55-.3-6.23,1.4-2.26-3.08.55-.62,0-1.41-.63-1.9-.5-1.17-2.4.62-2.46-1.06,0-1,.36-2.24,1.83-2s1.66-1.23,2.65-1.5a3.51,3.51,0,0,1,1.68-.17c.32.08.79.92.71,1C104.67,273.23,112.1,275.08,108.37,278.36Z"/><path class="cls-5" d="M112.48,271c-1-.07-2.53,0-2.48-1.32.06-1.47,1.21-2.29,2.92-2,1.3.23,3.22,0,3,1.82C115.71,270.86,113.86,271,112.48,271Z"/><path class="cls-7" d="M157.68,308.64c-2,1.28-3.49.54-4.68-.94a1.3,1.3,0,0,1,.39-1.15C155.67,305.62,155.93,308.44,157.68,308.64Z"/><path class="cls-64" d="M113,230.35c.46,3.38,1.45,5.91,5.76,5.92,1.55,0,4,1.53,2.14,4.23a1.76,1.76,0,0,0-.25.87c-.07,1.53,3,2.9.69,4.33s-3.67-1.48-5.3-2.25c-1.25.7-.51,1.59-.76,2.19-.5,1.22.17,3.41-1.3,3.58-1.83.21-4.22-2-4.11-2.93.51-4-4-5.38-3.91-9.35a11.21,11.21,0,0,0-4.19-9.37c-1.39-1.11.44-3.17,1.7-3.86,3-1.63,2.88,1.66,4,3-.5,1.2-1.52,2.32,0,3.61C109.35,231.9,111.17,230.63,113,230.35Z"/><path class="cls-41" d="M169.2,265.08c1.78,2.37,1.17,5.09,3.86,6.11,1.21.46-.28,2.18-.64,2.63a7.29,7.29,0,0,1-3.64,2.27c-1.23.34-.86-1.26-1.33-1.86C164.67,270.69,169,268.69,169.2,265.08Z"/><path class="cls-43" d="M155.55,261.78l-.27-1.32c-.19-.9-1.87-1.49-.6-2.67.49-.45,1.41-.49,1.45.17.06,1.26,2.66,3.07-.62,3.78Z"/><path class="cls-42" d="M130.59,251.56c.1-.84-.31-2.12.81-2.29,1.58-.23,2.19,1.26,2.91,2.37A3.43,3.43,0,0,1,130.59,251.56Z"/><path class="cls-12" d="M221.15,272.85a5.93,5.93,0,0,1,.38,2.24c-.69,2.65-8.46,6.49-11.17,6.77-7.44.77-8.07-7-12.67-9.77-.69-.42,1.22-3.9,3.69-4.45a27.16,27.16,0,0,1,3.14-.34c1.21-.51,2,0,2.66,1a2.43,2.43,0,0,0,3.25.86C215.58,266,218.18,269.9,221.15,272.85Z"/><path class="cls-65" d="M221.15,272.85c-.46,0-1.17.13-1.33-.1-3-4.41-6.93-3.92-11.14-2.05-3.5,1.55-1.81-3.43-4.16-3.4-.61-1.23-1.08-2.7-2.57-3s-3.68-.78-3.12-2.4c.81-2.36,2.77-4.29,3.58-6.82.11-.34,1,1.6,2,2.06,1.93-.53,4.29-1.16,2.1,2.06-1.11,1.63-.6,2.3.7,2.62,1.66.4,3.54,2.94,5.06.27A12.65,12.65,0,0,1,214.7,259c1.76-1,5.06-.11,5,0-1,4.28,5.89,7.18,2.13,11.86A6.56,6.56,0,0,0,221.15,272.85Z"/><path class="cls-45" d="M222.07,233.07c4.47,4.91,4.75,11.28,6,17.31a2,2,0,0,1-1.51,2.09c-8.77-4.79-12.64-13.83-18.45-21.19,2.14-.2,3.78,1.06,5.08,2.35,3.1,3.1,5.2,2.4,7.2-1.14C221.33,230.73,221.84,231.81,222.07,233.07Z"/><path class="cls-66" d="M136.14,175.85c4.24-.17,8.49-.25,11.59,3.36.94,1.1,3.76,1,2,4-1.93,3.32-3.12-.11-4.09-.42-2.12-.66-3.95-1.39-6.18-.59-.34.12-1.09-.88-1.65-1.36-.34-.75,1.79-2-.63-2.44A1.8,1.8,0,0,1,136.14,175.85Z"/><path class="cls-67" d="M214.7,259c0,.15,0,.42,0,.43-2.78.66,1.73,6.46-3.44,5.09-2.36-.63-5.18-.76-6.86-3.14-.29-.41-.94-.56-1.44-.84,1-1.49,3.55-.82,3.55-3.06a11.93,11.93,0,0,0-2.11-.32c3-2.7,5,1.78,7.81,1.2C212.94,258.18,213.86,258.74,214.7,259Z"/><path class="cls-68" d="M136.14,175.85c.66.75,1.19,1.78,2,2.2,2.69,1.35.89,2-.32,2.79-1.1-.79-3.3.54-3.56-1.92C134.11,177.35,134.47,176.24,136.14,175.85Z"/><path class="cls-69" d="M240.57,172.15c-1.93.22-2.74-2.11-4.61-2-1-.91-1.33-2.34-2.62-3-.22.75.27,1.51-.18,2.18-1.63.95-.38,1.9,0,2.85a4.94,4.94,0,0,1-1.57-.8c-2.22-2.54-1.33-7.47-6.19-8,.21-4.44-5.11-7.55-3.45-12,1.58-4.31-.16-8.31.12-12.44,2.72-2.31,2.69,2.24,4.64,1.85,3.3,1.4,4-1.7,5.43-3.29,3.54-4.1,6.37-3.62,8.56,1.72,1-.62,2.65-1.1,2.78-2.06.7-5.28,4.36-3.13,6.85-2.59a16.15,16.15,0,0,1,8.81,4.67,5.59,5.59,0,0,1,1.66,4.57c-.31,3.22-1.47,3.93-4.4,2.64-4.86-2.15-5.61-2.17-10.51.29,3.82-.24,6.49-.42,9.34.43,3.93,1.17,3.66,2.31,1.5,4.73,3.73-.05,7.09-.84,9.63-3.69.45.37,1.35.93,1.28,1.09C265.58,154.33,265,160.36,259,163c-1.77,2.75-4.67,1.83-6.6,1.12-3.68-1.36-5.9-.79-7.19,2.93-2.6.67-5.08,1.14-4.21-3,.1-.5.19-.85-.32-1.1-4.92-2.39-3.59-6.75-2.7-10.39.84-3.45-2.37-5.62-1.93-7.36.21,2.74-2.43,5.86-3.82,9.44-3.46.68-3.71-2.75-5.64-4.1,2.28,2.93-.13,7.68,4.1,10.62.66-2.52-1.64-5.4,1.61-6.65,3-.72,4.84,1.57,4.45,3.56-.79,4.05,1.34,6.19,3.55,8.77C241.55,168.24,245,170.19,240.57,172.15Z"/><path class="cls-70" d="M232.24,154.62c-.39-1-1.49-2.39-.59-2.94,4-2.46,2.19-6.94,4.3-11.12,1.27,4.06,3.68,6.9,3.37,10.76a21.61,21.61,0,0,1-.65,2.67c-.92,4.45-1.17,8.55,4.92,8.53.48,2.7-3,.94-2.39,2.83s2.58,1.08,4,1.21c5.76,3.46,12.16,2.57,18.41,2.71,3.56,1.55,5.33-.7,6.42-3.42.64-1.59.48-3.53.52-5.31.05-2.51-.66-4.86,3.74-4.4,2.22.23,4.13-2.72,3.34-5.74-.37-1.43-1.51-2.71.14-5.92.14,6.19,5.12,7.36,7.08,11a22.83,22.83,0,0,1-2.2,5.51c-1.38,2.68-2.83,2.29-5.08-.73,1,3.86-.89,6.83,1.15,9.7.6.84-.5,1.61-1.19,2.2-1.66,2.25-3,4.94-6.5,4.61-2.11,1.46-4.13-2.49-6.32,0,.63.78,1.84.62,2.55,1.33.54.54,1.17,1.07,1,1.91a2,2,0,0,1-1.93,1.68c-3.74-.36-7.94,1.41-11-2.2l-1.83-1c-5.09-.59-8.45-4.63-12.93-6.44h0c2.43-2.68-.25-4-1.67-5.28-2.64-2.39-3.31-4.82-3.05-8.53a3.67,3.67,0,0,0-3.63-3.74Z"/><path class="cls-71" d="M277.55,172.19c.2-.57.72-1.26.55-1.68a38.68,38.68,0,0,1-1.19-9.13c.14-.93-1-2.33.63-2.65,1.34-.26,1.53,1.13,1.87,2.14a7.53,7.53,0,0,0,.87,1.45c2.55-1.78,1.64-5.56,4.59-6.81,1.95,2.43,3.95,4.83,5.85,7.3,1,1.29,1.85,2.5,3.53.94.66.34,1.22.71,2.08.25a2.66,2.66,0,0,1,3.62,1.06c.65,1.57-1.76,1.13-2.58,2.63,3.92,1,8,1.62,10.94,4.57.89.89,2.1,1.68,1.64,3s-1.89.68-2.84.62a3.89,3.89,0,0,0-4.18,2.81c-.76,1.84-1.54,1.57-2.35,0,.67-1,1.36-2,2-3a1.88,1.88,0,0,0-1.44-3c-2.87.49-5.94,1.1-8.36,2.6-4,2.46-3.8,2.77-4,6.88-2.34.36-3.75-2.86-6.54-1,.78-2.16,2.58-1.25,3.29-2.32.47-.72,1.59-1.06,1.36-2.21-.53-2.64-4.13-1-4.84-3.56C281.23,170,279.24,171.62,277.55,172.19Z"/><path class="cls-70" d="M266.36,148.18c-.45,4.64-4,4.91-7.25,4.46-1.35-.19-2.57,1.41-4-.29.6-1.18,2.62-1.81,2.35-3.66-1.61-.88-3.9,1.39-5.35-1.61-.8-1.66-2.41.95-3.88,1.18s-2.82.31-3.45-1.23c-.74-1.83,1.12-1.87,2-2.39,4.54-2.56,8.41-.29,12.27,1.93,1.29-6.19,1.29-6.19-13.54-12.12.45,2.58-3.34,6.34-5.78,5.82-.52-.11-.94-.21-.71-.76,1.11-2.6-1-3.17-2.57-3.66-2-.64-3.23,1.06-3.75,2.57-.66,1.92-2.56,2.3-3.66,3.66-.95,1.18-2.23.37-2.36-1.32,2.83-.81,2.55-4.19,5.53-5.72,5.93-3.06,12.21-3.12,18-3,5.43.09,9.75,4.75,12.46,10C263.84,144.12,264.28,146.65,266.36,148.18Z"/><path class="cls-72" d="M263.63,169.27c-6.57,2.07-13,2.84-18.41-2.71a18.66,18.66,0,0,0,.57-3.11c.05-2.69,1.45-2.65,3.23-1.63A11.82,11.82,0,0,0,259,163C263.09,163.19,262.26,167,263.63,169.27Z"/><path class="cls-49" d="M214.15,136.7c-1.07-.06-1.28-.74-1.26-1.54,0-1.33.5-2.48,2-2.41.82.05,2.1.5,2,1.43C216.76,135.64,215.15,136,214.15,136.7Z"/><path class="cls-31" d="M245.16,106.9c-1.62-2.48-4.39-3.15-6.5-4.74-.77-.57-1.74-1.6-.9-2.65.59-.73,1.73-.4,2.55,0C243.18,101,245.65,102.8,245.16,106.9Z"/><path class="cls-46" d="M229.46,113a7.92,7.92,0,0,0,.43-1.3c.17-.95-1.75-1.7-.3-2.78a1.27,1.27,0,0,1,2,.4c.66,1.16,1.58,2.46.75,3.79s-1.9.2-2.86-.11Z"/><path class="cls-60" d="M272,117.67c2.15-.09.94,2,1.85,2.78-1.09-.4-2.23,1.57-3.11.17C270,119.39,271.18,118.5,272,117.67Z"/><path class="cls-73" d="M264.62,198c7.23,2.72,12.12,9,18.78,12.6,1.4.77,3.23.8,4.31,2.17-2.42.08-4.92-.13-6.37,2.52-.72,1.33-1.68,1.53-2.9.36A73.88,73.88,0,0,1,264.62,198Z"/><path class="cls-74" d="M221.2,177.48c.51-3.6-3.95-5.12-3.64-8.68.07-.79-1.17-1.63-.15-2.45,1.44-1.14,1.63.89,2.45,1.06,3.68.74,5.31,4.75,9.19,5.47a2.64,2.64,0,0,1,.72,4.81c-1.36,1,0,1.94-.31,2.84A24.73,24.73,0,0,1,221.2,177.48Z"/><path class="cls-45" d="M216.62,228.64c0,1-1.05,1.42-1.45,1.15-2.24-1.51-5.12-2.07-6.79-4.37-.29-.4.14-1.12,1-1.19C211.26,224.05,216.61,227.26,216.62,228.64Z"/><path class="cls-8" d="M193.41,150c-1.48,2.75,1.74,3,2.65,4.9-3.2.5-5.63-1.92-9.24-1.32,1.91-2.95,4.51-2.78,6.61-3.56Z"/><path class="cls-8" d="M198.26,153.41c-1.18-.08-2.36-.79-2.24-1.78.17-1.37,1.74-1.93,2.95-2.34,1-.35,1.7.33,1.78,1.44C200.89,152.52,199.58,153,198.26,153.41Z"/><path class="cls-49" d="M255.32,179.57c4.06,1.25,8.14,2,12.38.8-.29-1.58-1.3-1.77-2.12-2-1.15-.39-2.9.75-3.39-1.27-.16-.68.45-1.12,1.1-1.17,1.82-.12,3.25-2.86,5.34-.9.75.7,1.13,1.83,2.42,1.81.52.81,2,1.3.94,2.67-.19,2-.74,3.84-2.85,4.72l-5.45-1-10.12-.85Z"/><path class="cls-75" d="M269.14,184.19c1-1.56,1.35-3.48,2.85-4.72l.41.21c2.59,1.26-1.37,4.17,1.56,5.65a6.89,6.89,0,0,1,4.2,5.78A17.77,17.77,0,0,1,269.14,184.19Z"/><path class="cls-49" d="M240.56,172.15c5.18.41,8.52,4.49,12.93,6.44-1.85,3.75-3,2.59-5.4,0C245.89,176.29,242.92,174.51,240.56,172.15Z"/><path class="cls-49" d="M233.16,169.33c-.4-1.23-1.78-2.2-1-3.7a1.59,1.59,0,0,1,1.1-.46c1.1,1.56,3.76,2.28,2.75,5C234.63,171.23,233.71,170.91,233.16,169.33Z"/><path class="cls-35" d="M351.37,79.35c-2.51-.72-5-.4-5.4-3.3-.14-1,.28-2.15,1.26-2.13C350.26,74,350.53,76.55,351.37,79.35Z"/><path class="cls-35" d="M359.72,83.51h-1.79c-.33-.49-.62-1-1-1.46-.74-.93-1.12-2,.22-2.51,1.11-.46,1.45.73,1.78,1.48A21.92,21.92,0,0,1,359.72,83.51Z"/><path class="cls-70" d="M232.22,154.6c.62,1.16-2,1.65-.56,3.09,1.07,1.1,2,2.46.42,4-.68.63-1.54,1.51-2.35.71-1.24-1.22-3.31-3-3-4.08.89-3.46-.63-6.35-1.32-10l6.87,6.31Z"/><path class="cls-70" d="M239.62,146.86c4.27-7.27,11.46-9.73,16.47-6.46.86.56,2.23,1.35,1.54,2.42-.78,1.22-1.66.07-2.58-.54-3.21-2.15-6.43-2.45-9.58.34C244,143.91,242.31,144.93,239.62,146.86Z"/><path class="cls-54" d="M290.91,172.91c-5.21.27-2.37-4.62-4.39-6.23a1.54,1.54,0,0,1,2.08-.06C290.35,168.35,290.3,170.59,290.91,172.91Z"/><rect class="cls-76" width="569" height="569"/></g></g></svg>