<svg xmlns="http://www.w3.org/2000/svg" viewBox="0 0 33.36 33.31"><defs><style>.cls-1{fill:#fff;}</style></defs><g id="Capa_2" data-name="Capa 2"><g id="Capa_2-2" data-name="Capa 2"><path class="cls-1" d="M33.31,20.88c0,1,0,2-.08,3A11,11,0,0,1,32,28.66a3.74,3.74,0,0,1-.74,1.06.19.19,0,0,1-.09-.24,1.64,1.64,0,0,0,.05-.93,4.1,4.1,0,0,0-.07-1.05.23.23,0,0,1,0-.18c.18-.24.08-.53.17-.79a.27.27,0,0,0,0-.26A1.72,1.72,0,0,1,31,25.16.74.74,0,0,0,31,25a9.46,9.46,0,0,0-.48-1.54.61.61,0,0,0-.29-.34c-.06-.61,0-1.21,0-1.82a1.31,1.31,0,0,0,.05-.48v-7.3c0-.16-.07-.39.11-.47s.32.1.45.22c.38.33.77.65,1.13,1a.89.89,0,0,0,.43.22,1.25,1.25,0,0,1,.87,1.06v5.22A.27.27,0,0,1,33.31,20.88Z"/><path class="cls-1" d="M1.48,4.57A4.6,4.6,0,0,1,2.26,3.4a6.3,6.3,0,0,1,1.1-1.09,22.13,22.13,0,0,0,2.57-.25,1.13,1.13,0,0,1,.18,0A9.67,9.67,0,0,0,7.81,2a17.09,17.09,0,0,0,2.48-.26c1.47-.26,2.91-.64,4.36-.95,1-.22,2-.47,3-.63a1,1,0,0,1-.26,0H13.11a.65.65,0,0,1-.47-.09A.54.54,0,0,1,13,0c2.47,0,4.94,0,7.41,0a37.92,37.92,0,0,1,4.13.17c.13.07.09.14,0,.22a.55.55,0,0,1-.25.1c-1.13.25-2.25.58-3.38.78s-2.16.47-3.25.67-2.29.46-3.43.7a3.57,3.57,0,0,0-.89.29.88.88,0,0,1-.39,0,4,4,0,0,0-.85,0c-.66,0-1.3.07-1.95.09a10.08,10.08,0,0,0-3.27.57,6.45,6.45,0,0,0-1,.47.64.64,0,0,1-.34.14,1.83,1.83,0,0,0-.9,0,3.11,3.11,0,0,1-.61,0,6.79,6.79,0,0,0-1.26.16A8.38,8.38,0,0,1,1.48,4.57Z"/><path class="cls-1" d="M18.33,33.28c-2.35,0-4.71,0-7.06,0a17.72,17.72,0,0,1-4.1-.41A8.88,8.88,0,0,1,4,31.51c.15-.33.48-.41.77-.54a14.38,14.38,0,0,1,2.62-.87c.14,0,.27-.1.41-.13.47,0,.92.13,1.39.17,1,.06,2,.12,3,.11a11.06,11.06,0,0,1,1.91.08c.43.28.93.4,1.37.66a12.1,12.1,0,0,1,2.66,1.94C18.27,33,18.43,33.1,18.33,33.28Z"/><path class="cls-1" d="M26.77.62a8.06,8.06,0,0,1,3.32,1.75,6.91,6.91,0,0,1,1.29,1.41s-.08.08-.13.07-.38-.18-.53.1c0,0-.23,0-.31-.14a1.5,1.5,0,0,0-.11-.22c-.11,0-.1.13-.17.18s-.14.12-.22,0-.24,0-.29,0c-.24-.08-.42,0-.62.07s-.16-.07-.09-.16,0-.12-.07-.16-.12,0-.15,0-.15.12-.24,0a.07.07,0,0,0-.11,0c-.19.21-.41.08-.59,0a2,2,0,0,0-.73,0c-.2,0-.26.15-.39.18a11.24,11.24,0,0,0-2-.49c-1-.12-1.92-.15-2.89-.18s-1.88,0-2.82-.08a.28.28,0,0,1-.13-.19c0-.14,0-.25.15-.2s.27,0,.36-.12.09-.09.14,0,0,0,0,0c-.07-.27.26,0,.27-.21,0,0,.07,0,.09,0,.11.21.26.12.42.07s.56,0,.84-.15c.1,0,.14-.07.12-.18s0-.12.17-.26a1.15,1.15,0,0,1,.43-.24.34.34,0,0,1,.24,0,1.63,1.63,0,0,0,.9-.11c.21-.05.29,0,.32.21.06-.42.61-.56,1.16-.31,0-.1,0-.25.12-.32.09.09,0,.21.06.3a.4.4,0,0,1,0-.3c.15.07.08.18.08.29,0-.4.36-.28.56-.35a1.64,1.64,0,0,1,.58-.09c.3.09.42-.08.59-.22S26.67.69,26.77.62Z"/><path class="cls-1" d="M33.31,20.88c0-1.73,0-3.46,0-5.19a1.55,1.55,0,0,0-.64-1.1c-.05-.05-.11,0-.17,0a.84.84,0,0,1-.54-.26A14.17,14.17,0,0,0,30.48,13a.6.6,0,0,0,0,.34q0,3.76,0,7.53c0,.12,0,.25,0,.36-.16-.15-.11-.34-.11-.52q0-3.72,0-7.45c0-1.34,0-2.68-.13-4,0-.31-.1-.62-.09-.94,0-.14.09-.19.23-.15s.39.07.55-.14.27,0,.28.11.09.16.2.16a2,2,0,0,0,.54.06c.06,0,.13,0,.13.09h0a.22.22,0,0,0,.16-.14s0,0,.05,0a.29.29,0,0,0,.38,0c.09-.08.12,0,.17,0a.38.38,0,0,0,.37.16,12.5,12.5,0,0,1,.16,2c.11,3.37.07,6.73.06,10.09C33.34,20.68,33.37,20.78,33.31,20.88Z"/><path class="cls-1" d="M12.64.05H18V.13L17,.35,15.24.72c-1.18.26-2.37.51-3.55.8A18.42,18.42,0,0,1,9.14,2a5.67,5.67,0,0,1-1.54.07.37.37,0,0,0-.18,0,1.67,1.67,0,0,1-.86.06,2.89,2.89,0,0,0-1.2.13c-.46.08-.93,0-1.39.07l-.32.07c-.11,0-.25.1-.29-.09A8,8,0,0,1,6,.81,13.1,13.1,0,0,1,10,.1C10.91.06,11.77,0,12.64.05Z"/><path class="cls-1" d="M33.13,8.47c0,.07-.07.19-.1.14s-.38-.07-.34-.36c-.07.18-.09.19-.26.17,0,0,0,0,0,0-.17.13-.17.13-.24-.11l0,.24-.06-.17c-.06.09,0,.21-.15.28,0-.19.09-.44-.21-.18-.09-.17-.28-.14-.4-.13s-.23-.07-.24-.2S31,8,30.83,8.09s0,.54-.31.14c-.17.23-.25-.11-.39-.06S30,8,30,7.84a6.3,6.3,0,0,0-1-2.32A5.6,5.6,0,0,0,27,3.93c-.12-.06-.28-.08-.32-.25s-.05-.44.24-.15c.11.1.13-.24.24,0,.32-.2.59.11.89.1.05,0,.1.08.14,0,.14-.29.25-.14.35,0,.12,0,0-.23.16-.21s.23.14.32.24-.15,0-.12.16.28-.08.41-.13.09-.13.18-.08,0,.13,0,.19.22-.44.4,0c.05.12.19,0,.22-.14s0-.17.13-.17.1.11.14.19,0,.22.16.22.15.11.19-.06.18-.21.3-.08.2,0,.31.06A7.53,7.53,0,0,1,32.67,6.3,8,8,0,0,1,33.13,8.47Z"/><path class="cls-1" d="M30.33,23.14c.11-.17.14,0,.19.05a6.81,6.81,0,0,1,.53,1.45c.14.39,0,.82.12,1.19a1.84,1.84,0,0,1,.18,1.08s0,.09,0,.12c-.35.65,0,1.33-.05,2a.94.94,0,0,1-.07.34.39.39,0,0,0,0,.35l-.38.44a3.44,3.44,0,0,1-.66.66,6.44,6.44,0,0,1-1.53,1.11,7.45,7.45,0,0,1-.54-2,1.5,1.5,0,0,0-.29-.63c0-.09-.14-.17-.09-.3a12.57,12.57,0,0,0,1.09-1.1,6.51,6.51,0,0,0,1.28-3.24c.06-.44.08-.87.12-1.3C30.24,23.29,30.23,23.19,30.33,23.14Z"/><path class="cls-1" d="M18.33,33.28a2.75,2.75,0,0,0-.85-.88,13.14,13.14,0,0,0-2.28-1.49,5.45,5.45,0,0,0-.75-.32c-.1,0-.21-.06-.22-.19a.3.3,0,0,1,.2-.08l.21,0c2,.05,4-.08,6-.06a2,2,0,0,1,.49,0c.13.05.18.12,0,.18a1.41,1.41,0,0,1-.46,0,1,1,0,0,0-.36,0c.34.35.61.74.93,1.09a2.71,2.71,0,0,1,.53.77,1.93,1.93,0,0,0,.28.36c.12.16.23.32.09.52C20.9,33.27,19.61,33.35,18.33,33.28Z"/><path class="cls-1" d="M0,16.16C0,15,0,13.8,0,12.63A37.69,37.69,0,0,1,.25,8.25a1.94,1.94,0,0,1,0-.2l0,0a0,0,0,0,0,0,0C.42,8,.48,7.89.62,8s0,0,0,0,0-.06,0-.09c.08-.18.12-.18.29,0a1.48,1.48,0,0,1,1-.62,4,4,0,0,0,1-.25c.21-.12.45-.08.63-.23s.08,0,.1.06a.64.64,0,0,1-.06.36,10.07,10.07,0,0,0-.44,2.83,3.65,3.65,0,0,1-.08.81.34.34,0,0,1-.32.13c-.15,0-.26,0-.31.18s-.17.07-.25.08a.52.52,0,0,0-.4.21,2.78,2.78,0,0,1-.71.57.31.31,0,0,0-.19.27.76.76,0,0,1-.32.55,1,1,0,0,0-.38.74c-.08.73,0,1.46-.06,2.19C.12,15.93.18,16.08,0,16.16Z"/><path class="cls-1" d="M0,16.16c.07-.66,0-1.32,0-2,0-.3,0-.61.09-.91s.26-.35.42-.49a.56.56,0,0,0,.24-.41c0-.36.31-.37.49-.52h.05c-.07-.34.47-.21.42-.54.17.11.24-.31.44-.09,0,0,.11-.11.16,0,0-.5.41-.18.6-.3H3a.32.32,0,0,1,.1.28c0,.76,0,1.52,0,2.28A8.77,8.77,0,0,0,3,15.18c0,.18,0,.35-.18.46s-.24.27-.4,0c0-.07-.19-.09-.15.1s0,.17-.09.17-.1-.12-.1-.2a.72.72,0,0,0-.38.42.94.94,0,0,1-.33.36c-.09.07-.18,0-.28,0a.64.64,0,0,0-.83.35c0,.09-.08.19-.17.19s0-.11-.07-.18A3.18,3.18,0,0,1,0,16.16Z"/><path class="cls-1" d="M26.77.62s.09.14,0,.11c-.26-.08-.41,0-.49.23S26.11,1,26,1c-.07-.3-.24-.09-.29,0s-.32-.09-.44.07c-.14-.16-.27.26-.41,0a.46.46,0,0,0-.16.4c-.1-.13,0-.27-.09-.4l0,.38h0l0-.35h0l0,.36c-.35-.27-.72-.13-1.08-.08-.16,0,0,.26-.1.38-.13,0-.11-.21-.22-.27s-.21.19-.33,0a.29.29,0,0,1-.18.12c-.31.12-.64-.07-1,.1-.14.08-.17.1-.12.23-.12,0-.13-.2-.26-.1s0,.14.05.21-.11.18-.23.26c-.32.22-.68,0-1,.23-.15.11-.29,0-.3-.2-.09.09,0,.27-.13.28s-.06-.15-.15-.21l0,.33-.07-.29c-.12.32-.31.36-.56.14,0,.15.12.23,0,.33s-.23.1-.35.11c-1.06.06-2.13,0-3.2,0s-1.88,0-2.81,0c-.15,0-.31,0-.42-.11a.54.54,0,0,1,.35,0,2.72,2.72,0,0,0,1.3-.2c.61-.22,1.25-.25,1.86-.42s1.34-.23,2-.43a9.37,9.37,0,0,1,1.51-.29c.36-.05.69-.21,1.05-.26.52-.09,1-.17,1.55-.3s1.32-.29,2-.46c.23-.06.46-.09.68-.15s.25,0,.15-.22A8.77,8.77,0,0,1,26.77.62Z"/><path class="cls-1" d="M3.58,6.83a.32.32,0,0,0-.14.28c-.14-.1-.26-.34-.41,0-.06.14-.34,0-.52.1s-.31,0-.43.17-.19,0-.3,0a1.22,1.22,0,0,0-.62.38c0,.07-.13.27-.3.07S.76,7.9.75,8s0,.16-.18.08-.12.18-.24.19,0-.13,0-.2A8.58,8.58,0,0,1,1,5.42a3,3,0,0,1,.45-.85A.86.86,0,0,1,2,4.46c.65,0,1.28-.19,1.91-.24.35,0,.73,0,1.1,0,.2,0,.39-.12.57,0A2.34,2.34,0,0,1,5,4.91,5.27,5.27,0,0,0,3.82,6.57C3.77,6.68,3.72,6.79,3.58,6.83Z"/><path class="cls-1" d="M7.76,30a1,1,0,0,1-.62.23,11.78,11.78,0,0,0-2.8,1,1.4,1.4,0,0,0-.32.22,6.69,6.69,0,0,1-1.38-1.16,5,5,0,0,1-.88-1.11A11.79,11.79,0,0,1,3.9,28.05c.16-.06.24-.2.37-.29s.2.1.27.18a6,6,0,0,0,2.93,1.93A.52.52,0,0,1,7.76,30Z"/><path class="cls-1" d="M22.18,33.26a.57.57,0,0,0-.24-.56c-.22-.17-.23-.46-.41-.66-.45-.52-.88-1.05-1.34-1.6.37-.09.74,0,1.08-.08a.25.25,0,0,1,.24-.11c.72,0,1.43-.09,2.15-.06l.15,0a.29.29,0,0,1,.17.17c.3.79.84,1.46,1.15,2.25a.71.71,0,0,1,.11.4,12.6,12.6,0,0,1-2.21.19Z"/><path class="cls-1" d="M.06,22.16c0-.77,0-1.54,0-2.31,0-.06,0-.12,0-.18,0-.22,0-.33.26-.41a3.49,3.49,0,0,0,1.06-.57A4.72,4.72,0,0,1,2.77,18c.09,0,.18,0,.2.09a29.57,29.57,0,0,1,.09,3c-.09.19-.28.22-.46.28a2.35,2.35,0,0,0-.69.29.44.44,0,0,1-.39.12,5.53,5.53,0,0,0-.91,0c-.23,0-.4.06-.44.31A.1.1,0,0,1,.06,22.16Z"/><path class="cls-1" d="M.06,22.16c.14-.46.15-.43.64-.48a3.36,3.36,0,0,1,.84,0c.3,0,.44-.25.7-.3A4.29,4.29,0,0,1,3,21.18a.19.19,0,0,1,.11.2c0,.65.09,1.3.05,2,0,.16-.16.23-.29.29L2.06,24a2.38,2.38,0,0,0-.77.52,3.64,3.64,0,0,1-.82.57c-.08.06-.17.07-.22,0A25,25,0,0,1,.06,22.16Z"/><path class="cls-1" d="M.25,25s.12,0,.14,0c.3-.27.71-.39,1-.74A1.62,1.62,0,0,1,2,23.94c.36-.18.73-.33,1.09-.5a.65.65,0,0,1,.13.48A10.93,10.93,0,0,0,3.53,26c-.06.26-.29.29-.48.33a.86.86,0,0,1-.65,0,.78.78,0,0,1-.8.68c-.12,0-.18-.05-.26.12a.46.46,0,0,1-.48.28,9.18,9.18,0,0,1-.55-2C.28,25.33.27,25.18.25,25Z"/><path class="cls-1" d="M.86,27.47c.13-.17.52-.12.43-.49,0-.05.06-.11.1-.08.35.3.54,0,.8-.17s.17-.21,0-.38a2.79,2.79,0,0,0,1.28-.21c.12,0,.14.07.16.13a6.5,6.5,0,0,0,.63,1.3.17.17,0,0,1,0,.22.44.44,0,0,1-.33.33,9.63,9.63,0,0,0-2,1.09.17.17,0,0,1-.19,0A7.38,7.38,0,0,1,.86,27.47Z"/><path class="cls-1" d="M25.24,33c-.37-.86-.89-1.64-1.28-2.49a.59.59,0,0,1-.07-.26.27.27,0,0,1,.25-.14,10.27,10.27,0,0,0,2.19-.39c.16,0,.17.09.15.22a2.8,2.8,0,0,0,.15.91,1.89,1.89,0,0,1,.07.88.39.39,0,0,0,.14.46c.2.13.15.27.1.43A7.61,7.61,0,0,1,25.24,33Z"/><path class="cls-1" d="M26.94,32.65c0-.08-.18-.12,0-.22s.08,0,0-.08-.45-.3-.24-.62a1.07,1.07,0,0,0-.14-.52l0,0c.31-.18-.16-.36,0-.54,0,0,0,0,0-.07a.77.77,0,0,1-.09-.76l-.05,0a4.78,4.78,0,0,1,1.35-.73v0a2,2,0,0,1,.49,1.11,4.32,4.32,0,0,0,.41,1.44.42.42,0,0,1,0,.29A6.21,6.21,0,0,1,26.94,32.65Z"/><path class="cls-1" d="M2.93,18a8.49,8.49,0,0,1-.89.31.37.37,0,0,0-.32.28c0,.16-.13-.07-.23-.05,0,.18,0,.25-.23.31a1,1,0,0,0-.59.34.61.61,0,0,1-.42.2c-.28,0-.18.18-.2.3v.16a11,11,0,0,1,0-1.72,1.7,1.7,0,0,1,.79-.54,3.32,3.32,0,0,0,.87-.5c.06-.05.11-.11.18-.09a.31.31,0,0,0,.4-.17.14.14,0,0,1,.14-.06,1.1,1.1,0,0,0,.52-.14s.09,0,.09.07A4,4,0,0,1,2.93,18Z"/><path class="cls-1" d="M2.93,16.66c-.08.07-.13.15-.26.17s-.41,0-.46.23c0,0-.1.08-.12.07-.3-.17-.41.17-.6.2s-.44.38-.76.36a.54.54,0,0,0-.36.19.66.66,0,0,1-.34.25,7.82,7.82,0,0,1,0-1.28L.09,17c0-.08.16-.12.11-.22s0-.12.11-.16a1.83,1.83,0,0,0,.38-.23.4.4,0,0,1,.37,0c.08,0,.11.22.23.13s.38-.28.36-.39c0-.27.18-.28.29-.36s.11-.12.19-.22v.35c.09-.13.05-.36.26-.37s.15.15.19.26,0-.08,0-.08c.37-.12.29-.43.3-.7a10.29,10.29,0,0,1,0-1.36c.13.06.12.2.12.31q0,1.2,0,2.4C3.08,16.45,3.07,16.59,2.93,16.66Z"/><path class="cls-1" d="M30.19,30.82a5.14,5.14,0,0,1,.66-.66A1.61,1.61,0,0,1,30.19,30.82Z"/><path class="cls-1" d="M8.48,14.34a6.57,6.57,0,0,1,.94-2.17,8.39,8.39,0,0,1,6.1-4A8.31,8.31,0,0,1,22,10a5.36,5.36,0,0,1,1.27,1.29,2.53,2.53,0,0,1-.86-.17,2.84,2.84,0,0,0-1.53-.06.38.38,0,0,1-.29-.07.39.39,0,0,0-.52,0,.44.44,0,0,1-.36.15c-.61-.11-1.24.09-1.85-.06-.05,0-.08,0-.12.07a2.81,2.81,0,0,1-.82,0,5.41,5.41,0,0,0-4.21,1.67c-.27.26-.44.61-.74.85a2.06,2.06,0,0,1-1.45.46c-.61,0-1.21.15-1.82.24A.22.22,0,0,1,8.48,14.34Z"/><path class="cls-1" d="M17.72,11.15c0-.13.05-.22.18-.13s.39.06.59.07a6,6,0,0,1,1,0,.46.46,0,0,0,.52-.14.38.38,0,0,1,.56,0,.25.25,0,0,0,.37,0c.15-.12.39,0,.58,0a2.3,2.3,0,0,1,1,.19c.22.1.5,0,.68.2a8.22,8.22,0,0,1,1.64,7.66,6.7,6.7,0,0,1-1,2.17,4.12,4.12,0,0,0-1-1.15,10.56,10.56,0,0,1-1.16-1.06A4.62,4.62,0,0,1,22,18a5.5,5.5,0,0,0-4-6.66C18,11.3,17.79,11.3,17.72,11.15Z"/><path class="cls-1" d="M20.05,24.49a5.9,5.9,0,0,1-2.21.59,10.82,10.82,0,0,0-1.25-.88l-.84-.53a4.61,4.61,0,0,0-1.08-.61,2.07,2.07,0,0,1-.57-.3,2.64,2.64,0,0,0-1.29-.4,4.71,4.71,0,0,1-1-.26,1.24,1.24,0,0,0-.57-.08,1.26,1.26,0,0,1-.51,0A1.73,1.73,0,0,0,10,22a4.47,4.47,0,0,1-.8-1.21c-.07-.14,0-.16.14-.2a1.8,1.8,0,0,1,1.1,0,1.78,1.78,0,0,0,.69,0,.37.37,0,0,1,.18,0,3.48,3.48,0,0,1,1.52.31l.14.05a5.71,5.71,0,0,0,2.65,1.22,3.66,3.66,0,0,0,1.51.08.64.64,0,0,1,.36,0A27.07,27.07,0,0,1,19.82,24C20,24.11,20.16,24.24,20.05,24.49Z"/><path class="cls-1" d="M25.58,9.75a2,2,0,0,1,0-4,2,2,0,0,1,2,2A2,2,0,0,1,25.58,9.75Z"/><path class="cls-1" d="M10,22a.56.56,0,0,1,.56-.11,2.86,2.86,0,0,0,.83.07,3.44,3.44,0,0,1,1.15.3.51.51,0,0,0,.22.06,2.37,2.37,0,0,1,1.38.41c.23.15.52.23.74.35s.63.36.93.56a3.53,3.53,0,0,0,1,.57c.13,0,.2.14.28.23a.86.86,0,0,0,.46.27c.19,0,.26.23.32.4A8.22,8.22,0,0,1,10,22Z"/><path class="cls-1" d="M20.05,24.49c0-.37-.33-.51-.55-.69a14.21,14.21,0,0,0-1.86-1.41.22.22,0,0,1-.11-.17.34.34,0,0,1,.26-.14,6.27,6.27,0,0,0,2.27-1,.5.5,0,0,1,.62.18c.05.05.06.14.2,0s.24.07.29.2a1.15,1.15,0,0,0,.67.61c.17.08.32.12.18.34s0,0,.05.06c.08.21.19.41.05.64A6.8,6.8,0,0,1,20.05,24.49Z"/><path class="cls-1" d="M22.12,23.18a2.06,2.06,0,0,0-.06-.55,1.38,1.38,0,0,1,0-.25c0-.1,0-.14-.09-.13-.3,0-.39-.25-.59-.37s-.27-.14-.23-.34a.19.19,0,0,0-.17-.19c-.12,0-.07.13-.12.24a.74.74,0,0,0-.69-.47c-.07-.13.05-.18.12-.24a5.75,5.75,0,0,0,1.41-1.8c0-.07,0-.2.17-.16h.06a7.89,7.89,0,0,0,.87.76c.35.34.71.67,1.06,1a.49.49,0,0,1,.14.4,7.8,7.8,0,0,1-1.72,2Z"/><path class="cls-1" d="M12.94,20.88c-.2.05-.31-.17-.49-.18a3.8,3.8,0,0,0-1.39-.06,1.22,1.22,0,0,1-.59,0,1.72,1.72,0,0,0-1.2.05s0,.07,0,.1a7,7,0,0,1-.91-2.51c.2-.07.4-.29.63-.05.38-.12.8.19,1.15-.14.05,0,.15,0,.17,0s.16.05.25.05a1.26,1.26,0,0,0,.74-.13,5.88,5.88,0,0,0,1.56,2.61C12.88,20.67,13,20.74,12.94,20.88Z"/><path class="cls-1" d="M11.22,18c-.12.27-.31.26-.55.16a.23.23,0,0,0-.25.06c-.09.1-.13.06-.14-.08s-.16,0-.16,0c-.14.36-.43.11-.64.15s-.24,0-.35,0-.33,0-.44-.22c0,.37-.25.16-.38.2a7.35,7.35,0,0,1-.11-2.56l.62.22c0-.1.11-.1.23-.09.41,0,.84.14,1.19-.2,0,0,.08-.07.1-.06.27.16.58,0,.85.19a.07.07,0,0,1,0,.05,7.55,7.55,0,0,0,.06,1.9C11.28,17.8,11.33,17.92,11.22,18Z"/><path class="cls-1" d="M11.15,15.74c-.12,0-.22.16-.33,0s-.1.12-.23,0-.44,0-.6.17-.09,0-.13,0-.07-.09-.08-.06c-.13.32-.27.07-.41,0s-.22.14-.33.05-.14.1-.22.14,0-.21-.18-.17,0,.18-.1.26c0-.26-.3-.25-.34-.46a5.15,5.15,0,0,1,.28-1.35c.51-.1,1-.13,1.53-.24.31-.07.64,0,1-.09s.67,0,.84-.37c0,0,.07,0,.1,0a1.36,1.36,0,0,1-.22.59,12.46,12.46,0,0,0-.42,1.31C11.26,15.63,11.25,15.73,11.15,15.74Z"/></g></g></svg>