<svg xmlns="http://www.w3.org/2000/svg" viewBox="0 0 43.43 32.54"><defs><style>.cls-1{fill:#fff;}</style></defs><g id="Capa_2" data-name="Capa 2"><g id="Capa_2-2" data-name="Capa 2"><path class="cls-1" d="M43.43,29.94a5,5,0,0,1-.31,1,2.86,2.86,0,0,1-2.57,1.62c-2.26,0-4.52,0-6.78,0-.24,0-.21-.12-.21-.27V18.85c0-1,0-2,0-3.06,0-.11.12-.16.19-.22l9.41-7c.08-.06.16-.15.28-.11Z"/><path class="cls-1" d="M33.56,3c.9-.68,1.8-1.36,2.69-2.05A4.75,4.75,0,0,1,38.1.08c.12,0,.24,0,.34-.08h1.09A4,4,0,0,1,42,1.09a3.81,3.81,0,0,1,1.4,2.77s0,.07,0,.1V8.41l-4,2.95-5.92,4.43h0a.46.46,0,0,1-.09-.36v-12A.6.6,0,0,1,33.56,3Z"/><path class="cls-1" d="M5,0A4.62,4.62,0,0,1,6.91.74c1,.72,2,1.46,2.94,2.2a.66.66,0,0,1,.08.39v12a.85.85,0,0,1,0,.32c-.08.14-.18.09-.28,0l-.26-.19L.3,8.67C.2,8.59.08,8.53,0,8.4c0-1.51-.11-3,0-4.54A4.35,4.35,0,0,1,3.76.05c.06,0,.12,0,.17,0Z"/><path class="cls-1" d="M9.78,15.68c.12-.09.06-.22.06-.33q0-6.21,0-12.41l5.23,3.91q3.22,2.4,6.44,4.83a.29.29,0,0,0,.43,0l11.34-8.5L33.56,3V15.78q-5.82,4.37-11.64,8.74c-.19.14-.28.07-.42,0L10,15.88,9.9,15.8A.11.11,0,0,1,9.78,15.68Z"/><path class="cls-1" d="M9.78,15.68l.12.12v2.68q0,6.87,0,13.74c0,.26-.06.33-.32.32H3.12A3,3,0,0,1,0,29.44Q0,19.06,0,8.7c0-.1,0-.2,0-.3l4.1,3.07L9.6,15.56Z"/></g></g></svg>