<svg xmlns="http://www.w3.org/2000/svg" viewBox="0 0 37.99 37.84"><defs><style>.cls-1{fill:#fff;}</style></defs><g id="Capa_2" data-name="Capa 2"><g id="Capa_2-2" data-name="Capa 2"><path class="cls-1" d="M38,31.61c-1.07,3.68-3.73,5.45-7.32,6.08A14.22,14.22,0,0,1,24,36.93a30.86,30.86,0,0,1-10.9-6.23,54,54,0,0,1-9.9-10.9,17.41,17.41,0,0,1-2.9-6.61A12.88,12.88,0,0,1,3.63,1.48,4.39,4.39,0,0,1,6.31,0,3.69,3.69,0,0,1,9.47,1c2,1.9,3.9,3.82,5.79,5.8a4,4,0,0,1-.1,5.4c-.63.68-1.3,1.32-2,2a2.49,2.49,0,0,1-.32.21A24,24,0,0,0,20.15,23c1,.73,2.1,1.34,3.16,2a.31.31,0,0,0,.47-.06c.61-.63,1.23-1.25,1.86-1.87a4,4,0,0,1,5.92,0c1.53,1.53,3,3.08,4.6,4.59A5.39,5.39,0,0,1,38,30.57Z"/><path class="cls-1" d="M34.57,14.85a1.21,1.21,0,0,1-1.11,1.24A1.25,1.25,0,0,1,32.2,15a14.51,14.51,0,0,0-.77-2.61,11.11,11.11,0,0,0-7.76-6.48c-.21-.06-.44-.08-.66-.12a1.2,1.2,0,0,1-1-1.34,1.17,1.17,0,0,1,1.38-1,13.37,13.37,0,0,1,9.79,7,11.72,11.72,0,0,1,1.4,4.15C34.55,14.71,34.56,14.81,34.57,14.85Z"/><path class="cls-1" d="M22.11,8.28a17.83,17.83,0,0,1,2.1.7,9.36,9.36,0,0,1,5.49,6.54,2.61,2.61,0,0,1,.09.73,1.18,1.18,0,0,1-1.12,1.09,1.19,1.19,0,0,1-1.21-1A7,7,0,0,0,23,11a8.44,8.44,0,0,0-1.22-.33,1.2,1.2,0,0,1-.92-1.26,1.19,1.19,0,0,1,1.23-1.06Z"/></g></g></svg>